<?xml version="1.0" standalone="no"?>
<!DOCTYPE svg PUBLIC "-//W3C//DTD SVG 1.1//EN" "http://www.w3.org/Graphics/SVG/1.1/DTD/svg11.dtd" >
<svg>
<metadata>
Created by FontForge 20090622 at Sun Feb 16 05:11:19 2020
 By deploy user
Copyright (c) 2010 by Typemade. All rights reserved.
</metadata>
<defs>
<font id="JosefinSans-BoldItalic" horiz-adv-x="469" >
  <font-face 
    font-family="Josefin Sans"
    font-weight="700"
    font-style="italic"
    font-stretch="normal"
    units-per-em="1000"
    panose-1="0 0 0 0 0 0 0 0 0 0"
    ascent="750"
    descent="-250"
    x-height="375"
    cap-height="700"
    bbox="-45 -250 1098 932"
    underline-thickness="50"
    underline-position="-50"
    unicode-range="U+0020-U+203A"
  />
<missing-glyph horiz-adv-x="300" 
 />
    <glyph glyph-name=".notdef" horiz-adv-x="300" 
 />
    <glyph glyph-name=".null" horiz-adv-x="0" 
 />
    <glyph glyph-name="nonmarkingreturn" horiz-adv-x="300" 
 />
    <glyph glyph-name="space" unicode=" " horiz-adv-x="300" 
 />
    <glyph glyph-name="space" unicode="&#xa0;" horiz-adv-x="300" 
 />
    <glyph glyph-name="exclam" unicode="!" horiz-adv-x="201" 
d="M46 0q-20 0 -33 15t-12 38q3 23 21.5 37.5t38.5 14.5q19 0 32.5 -14.5t10.5 -37.5t-21 -38t-37 -15v0zM109 750h83l-82 -584h-83z" />
    <glyph glyph-name="quotedbl" unicode="&#x22;" horiz-adv-x="335" 
d="M178 472l35 248h83l-19.5 -124l-19.5 -124h-79zM45 472l35 248h83l-19.5 -124l-19.5 -124h-79z" />
    <glyph glyph-name="numbersign" unicode="#" horiz-adv-x="571" 
d="M229 371q-6 -26 -12.5 -51l-13.5 -51h100l13.5 51t12.5 51h-100zM233 0l24.5 94l24.5 94h-100l-24.5 -94l-24.5 -94h-84l24.5 94l24.5 94h-92l21 81h92l13.5 51t12.5 51h-91l10 40.5l10 40.5h92l25.5 95.5l25.5 95.5h84l-25.5 -95.5l-25.5 -95.5h100l25.5 95.5l25.5 95.5
h84l-25.5 -95.5l-25.5 -95.5h102l-10 -40.5l-10 -40.5h-103q-6 -26 -12.5 -51l-13.5 -51h102l-21 -81h-102l-24.5 -94l-24.5 -94h-84z" />
    <glyph glyph-name="dollar" unicode="$" horiz-adv-x="567" 
d="M180 514q-5 -33 6.5 -52t32.5 -30q5 -3 11 -5.5t12 -4.5l28 198q-40 -11 -62.5 -40t-27.5 -66zM378 188q3 23 -1.5 40.5t-14 31t-23.5 23.5t-30 18l-31 -223q38 11 66 38t34 72zM488 631l-27.5 -30l-27.5 -30q-11 11 -31 25.5t-48 22.5l-32 -228q28 -12 55.5 -29.5
t48 -42t31 -57t4.5 -75.5q-6 -39 -23.5 -72t-43.5 -58t-59 -40.5t-69 -21.5l-9 -63h-84l9 64q-31 5 -58 16.5t-49 26.5t-38.5 32.5t-25.5 34.5l60 52q19 -24 49 -49.5t73 -34.5l36 258q-5 2 -11.5 5t-13.5 7q-18 9 -39 21.5t-37.5 33t-26 49t-4.5 69.5q3 30 15.5 60t34.5 56
t55.5 44t78.5 24l9 63h84l-9 -64q29 -6 59 -21.5t64 -47.5z" />
    <glyph glyph-name="percent" unicode="%" horiz-adv-x="726" 
d="M458 111q-3 -20 7.5 -33t30.5 -13t33.5 13t16.5 33t-7.5 32.5t-30.5 12.5t-33.5 -12.5t-16.5 -32.5zM484 -16q-26 0 -48 10t-37 27t-22 40t-3 50q4 26 17.5 49t33 40t44.5 27t51 10t48 -10t37 -27t22 -40t3 -49q-4 -27 -17.5 -50t-33.5 -40t-44.5 -27t-50.5 -10zM193 389
q-3 -20 7.5 -33t30.5 -13t33.5 13t16.5 33t-7.5 32.5t-30.5 12.5t-33.5 -12.5t-16.5 -32.5zM219 262q-26 0 -48 10t-37 27t-22 40t-3 50q4 26 17.5 49t33 40t44.5 27t51 10t48 -10t37 -27t22 -40t3 -49q-4 -27 -17.5 -50t-33.5 -40t-44.5 -27t-50.5 -10zM138 0l184.5 250
l184.5 250h91l-184.5 -250l-184.5 -250h-91z" />
    <glyph glyph-name="ampersand" unicode="&#x26;" horiz-adv-x="700" 
d="M161 188q-7 -49 21 -82.5t80 -33.5q38 0 69 19t48 50l-37.5 81l-38.5 81q-56 0 -95 -30.5t-47 -84.5zM480 194l-1 -7q-3 -21 -11 -42l29 -60.5l29 -60.5l-35.5 -21.5l-35.5 -21.5q-10 20 -19 41t-20 41q-32 -33 -75 -52.5t-91 -19.5q-42 0 -76 15.5t-57.5 42.5t-34 62.5
t-4.5 76.5q5 36 21.5 68t42 57.5t57.5 43t67 23.5l-27 58l-27 58q-14 30 -16.5 62t7 62.5t31.5 58t58 47.5q31 17 60.5 20.5t56.5 -2t50.5 -16.5t40.5 -23l-21 -32.5l-21 -32.5q-9 6 -23.5 13.5t-31 11.5t-33.5 4t-32 -9q-45 -26 -55 -66t9 -79l57.5 -121l57.5 -121
q6 31 15 53q10 22 24.5 32.5t32 14t36 3t38.5 -0.5h47l-11 -81h-44q-15 0 -25.5 -3.5t-18 -14t-12.5 -30.5t-9 -52z" />
    <glyph glyph-name="quotesingle" unicode="'" horiz-adv-x="163" 
d="M24 472l35 248h84l-19.5 -124l-19.5 -124h-80z" />
    <glyph glyph-name="parenleft" unicode="(" horiz-adv-x="424" 
d="M115 291q10 75 33.5 143t55 126t67.5 105.5t72 80.5q17 -6 35 -11.5t35 -11.5q-33 -33 -67 -78t-63.5 -100t-51.5 -119t-32 -135t-6 -135t18 -119t35.5 -100t45.5 -78l-38 -11.5l-38 -11.5q-27 33 -50 80.5t-38 105.5t-19.5 126t6.5 143z" />
    <glyph glyph-name="parenright" unicode=")" horiz-adv-x="400" 
d="M312 288q-11 -75 -34.5 -143t-55 -126t-67.5 -105.5t-72 -80.5l-35 10.5l-35 10.5q33 33 67 78t63.5 100t51.5 119t32 135t6 135t-18 119t-35.5 100t-45.5 78l38 12.5l38 12.5q27 -33 50 -80.5t38 -105.5t19.5 -126t-5.5 -143z" />
    <glyph glyph-name="asterisk" unicode="*" horiz-adv-x="335" 
d="M249 575l29.5 -18l28.5 -18l-26 -36.5l-26 -36.5l-28.5 18.5l-28.5 18.5q-2 -17 -5 -34.5l-6 -34.5h-80l10 70l-32.5 -17.5l-33.5 -17.5l-15.5 36.5l-15.5 36.5q17 8 33 17t33 17l-27.5 18.5l-27.5 18.5l48 69l29.5 -18.5l28.5 -18.5l11 75h84l-12 -75l69 36l15.5 -34.5
l14.5 -34.5l-34.5 -18.5z" />
    <glyph glyph-name="plus" unicode="+" horiz-adv-x="543" 
d="M198 51l20 139h-138l11 81h138l20 140h84l-20 -140h138l-11 -81h-138l-20 -139h-84z" />
    <glyph glyph-name="comma" unicode="," horiz-adv-x="200" 
d="M177 86l-57.5 -103l-57.5 -103h-74l52 103l53 103h84z" />
    <glyph glyph-name="hyphen" unicode="-" horiz-adv-x="300" 
d="M47 147l11 81h184l-11 -81h-184z" />
    <glyph glyph-name="period" unicode="." horiz-adv-x="163" 
d="M32 52q4 23 22 38t38 15q19 0 33 -15t10 -38q-3 -23 -21 -37.5t-37 -14.5q-20 0 -34 14.5t-11 37.5z" />
    <glyph glyph-name="slash" unicode="/" horiz-adv-x="380" 
d="M-36 -19l192 377.5l192 377.5h84l-192.5 -377.5l-192.5 -377.5h-83z" />
    <glyph glyph-name="zero" unicode="0" horiz-adv-x="616" 
d="M37 327q11 76 40.5 137.5t72 104.5t95 66t108.5 23t101.5 -24t75.5 -67.5t41.5 -105.5t0.5 -138t-42.5 -137t-75.5 -104.5t-95.5 -66.5t-102.5 -23t-96 24t-76 68t-44.5 105.5t-2.5 137.5zM121 326q-8 -53 0 -99t28 -80t50 -54t68 -20q37 0 73.5 19t67 53t51.5 80t29 99
q6 36 3 80t-19 82.5t-47.5 64.5t-82.5 26t-90 -25.5t-66.5 -63.5t-43.5 -82t-21 -80z" />
    <glyph glyph-name="one" unicode="1" horiz-adv-x="273" 
d="M68 569l11 81h152l-91 -650h-84l80 569h-68z" />
    <glyph glyph-name="two" unicode="2" horiz-adv-x="519" 
d="M218 81h243l-12 -81h-443l136.5 120.5t119 113t87 106t41.5 98.5q5 37 -3.5 63t-24.5 43t-36.5 25t-38.5 8q-38 0 -64 -13t-42.5 -32t-25 -40t-10.5 -37q-9 -64 25 -104l-29 -25.5l-29 -25.5q-15 11 -26 29.5t-17.5 40t-8.5 44t1 41.5q6 40 24.5 77t49.5 65t72 44.5
t92 16.5q46 0 81.5 -17t58.5 -45.5t33 -66t4 -79.5q-7 -50 -31 -96.5t-59 -92.5t-78.5 -90.5z" />
    <glyph glyph-name="three" unicode="3" horiz-adv-x="515" 
d="M154 326l87 121l86 121h-190l12 82h329l-88.5 -119l-88.5 -119q31 -12 55.5 -31.5t41 -45.5t23 -58t1.5 -68q-6 -45 -29.5 -84.5t-57.5 -69t-76 -46.5t-87 -17q-48 0 -86 19.5t-64 51.5l34.5 28.5l34.5 28.5q15 -22 39 -34.5t54 -12.5q28 0 54 11t47 29.5t35.5 43
t18.5 52.5t-3.5 52.5t-23.5 42.5t-39 28.5t-51 10.5q-36 0 -68 -17z" />
    <glyph glyph-name="four" unicode="4" horiz-adv-x="529" 
d="M330 413l-67.5 -74.5l-67.5 -74.5h114zM16 183l216.5 237.5l216.5 237.5l-56 -394h97l-11 -81h-97l-26 -183h-84l26 183h-282z" />
    <glyph glyph-name="five" unicode="5" horiz-adv-x="543" 
d="M138 292l51 358h287l-12 -81h-203l-20 -147q6 1 12.5 1.5t13.5 0.5q45 0 82.5 -16.5t63 -46t37.5 -68.5t6 -84t-29.5 -84.5t-57.5 -69t-76 -46.5t-87 -17q-44 0 -80 16t-61 45l34.5 28l34.5 28q15 -17 36.5 -26.5t47.5 -9.5q28 0 54 11t47 29.5t35.5 43t18.5 52.5
t-3.5 52.5t-23.5 42.5t-39 28.5t-51 10.5q-35 0 -65.5 -11.5t-52.5 -39.5z" />
    <glyph glyph-name="six" unicode="6" horiz-adv-x="520" 
d="M119 209q-4 -28 2.5 -52.5t22 -43t38 -29.5t49.5 -11q28 0 54 11t47 29.5t35.5 43t18.5 52.5t-3.5 52.5t-23.5 42.5t-39 28.5t-51 10.5q-27 0 -52.5 -10.5t-46 -28.5t-34 -42.5t-17.5 -52.5zM31 197q10 72 49.5 134.5t95 116.5t121 101l127.5 88l21.5 -32l21.5 -32
q-71 -43 -121.5 -80.5t-86.5 -69.5q5 0 10.5 0.5t10.5 0.5q45 0 82.5 -16.5t63 -46t37.5 -68.5t6 -84t-29.5 -84.5t-57.5 -69t-76 -46.5t-87 -17q-43 0 -79.5 16t-62 43.5t-38 65t-8.5 80.5z" />
    <glyph glyph-name="seven" unicode="7" 
d="M48 568l11 82h413l-191.5 -325l-191.5 -325h-94l167.5 284l168.5 284h-283z" />
    <glyph glyph-name="eight" unicode="8" horiz-adv-x="510" 
d="M204 498q-5 -32 14 -53t50 -21q32 0 56.5 21t29.5 53t-13.5 55.5t-50.5 23.5q-15 0 -29.5 -6.5t-26.5 -17.5t-20 -25t-10 -30zM105 209q-4 -28 3 -52.5t22 -43t37.5 -29.5t49.5 -11q28 0 54 11t47.5 29.5t35.5 43t18 52.5q4 27 -3 51t-22 42t-37.5 29t-49.5 12
q-29 0 -55.5 -10.5t-47 -28.5t-34.5 -42.5t-18 -52.5zM19 209q8 58 42.5 105.5t85.5 76.5q-17 20 -25 47.5t-3 59.5q4 33 20.5 62t41 51t55 34.5t63.5 12.5t60.5 -12.5t46 -34.5t27 -51t4.5 -62q-5 -32 -20.5 -59.5t-38.5 -47.5q42 -29 63.5 -76.5t13.5 -105.5
q-6 -45 -29 -84.5t-57 -69t-76 -46.5t-87 -17t-82 17t-62.5 46.5t-37 69t-5.5 84.5z" />
    <glyph glyph-name="nine" unicode="9" horiz-adv-x="525" 
d="M390 419q4 28 -2.5 52.5t-22 43t-38 29.5t-49.5 11q-28 0 -54 -11t-47 -29.5t-35.5 -43t-18.5 -52.5t3.5 -52.5t23.5 -42.5t39 -28.5t51 -10.5q27 0 52.5 10.5t46 28.5t34 42.5t17.5 52.5zM476 419q-9 -68 -49 -129t-96.5 -114.5t-121.5 -99.5l-124 -85l-21.5 32
l-21.5 32q71 43 121.5 80.5t86.5 69.5q-5 -1 -10.5 -1h-10.5q-45 0 -82.5 16.5t-63 46t-37.5 68.5t-6 84t29.5 84.5t57.5 69t76 46.5t87 17t82 -17.5t62 -47t36.5 -69t5.5 -83.5z" />
    <glyph glyph-name="colon" unicode=":" horiz-adv-x="175" 
d="M50 302q3 23 21 38t38 15q19 0 33 -15t11 -38t-21 -37.5t-37 -14.5q-20 0 -34 14.5t-11 37.5zM15 52q3 23 21 38t38 15q19 0 33 -15t11 -38t-21 -37.5t-37 -14.5q-20 0 -34 14.5t-11 37.5z" />
    <glyph glyph-name="semicolon" unicode=";" horiz-adv-x="201" 
d="M89 302q4 23 22 38t38 15q19 0 33 -15t10 -38q-3 -23 -21 -37.5t-37 -14.5q-20 0 -34 14.5t-11 37.5zM144 86l-57.5 -103l-57.5 -103h-74l52.5 103l52.5 103h84z" />
    <glyph glyph-name="less" unicode="&#x3c;" horiz-adv-x="680" 
d="M533 99l-16 -113l-200.5 126l-200.5 126l235.5 126l236.5 126l-16 -113l-130 -69.5l-130 -69.5l110 -69.5z" />
    <glyph glyph-name="equal" unicode="=" horiz-adv-x="708" 
d="M598 193l-12 -81h-506l12 81h506zM625 387l-12 -81h-506l12 81h506z" />
    <glyph glyph-name="greater" unicode="&#x3e;" horiz-adv-x="650" 
d="M80 -14l16 113l130 69.5l131 69.5l-111 69.5l-111 69.5l16 113l200.5 -126l201.5 -126l-236.5 -126z" />
    <glyph glyph-name="question" unicode="?" horiz-adv-x="452" 
d="M140 552q-17 7 -35 13.5t-35 13.5q10 22 27 48.5t43.5 49.5t63.5 39t88 16q41 0 75 -15.5t56.5 -42t33 -62t4.5 -75.5q-8 -56 -40 -97.5t-83 -75.5q-15 -10 -32.5 -20.5t-33.5 -24t-27.5 -32t-15.5 -45.5l-11 -78h-84l14 97q4 32 17.5 52t32 35.5t42 29t48.5 31.5
q40 27 61.5 59t26.5 69q7 49 -19 81.5t-76 32.5q-56 0 -87.5 -25t-53.5 -74zM152 0q-20 0 -34 14.5t-11 37.5q4 23 22 38t38 15q19 0 33 -15t10 -38q-3 -23 -21 -37.5t-37 -14.5z" />
    <glyph glyph-name="at" unicode="@" horiz-adv-x="990" 
d="M367 188q-7 -49 21 -82.5t80 -33.5q26 0 48.5 9t40.5 24.5t29.5 37t14.5 45.5q8 50 -20 82.5t-80 32.5q-26 0 -48.5 -8.5t-40.5 -24t-29.5 -36.5t-15.5 -46zM909 188q-11 -53 -36.5 -88.5t-56.5 -58t-64.5 -32t-60.5 -9.5h-106l3 20q1 5 1.5 10t1.5 10q-2 -3 -12 -11
t-27.5 -16t-41.5 -15t-53 -7q-42 0 -77 15.5t-58 42.5t-34 62.5t-5 75.5q6 39 26.5 74.5t51.5 62.5t70 42.5t81 15.5q26 0 47.5 -7t37 -16.5t24.5 -18.5t10 -12q2 11 5.5 23t5.5 24h69l-42 -294h33q20 0 40 5.5t36.5 18t28.5 33t18 50.5q10 71 -7.5 133t-57 108.5t-97 73
t-127.5 26.5q-71 0 -136.5 -26.5t-118 -73t-88 -108.5t-45.5 -133t8 -132.5t58 -107.5t98 -72.5t129 -26.5q59 0 114 17.5t104 48.5l21 -29.5l21 -29.5q-28 -22 -61.5 -38.5t-69.5 -27.5t-72 -16.5t-69 -5.5q-88 0 -160.5 33t-122 90t-71.5 134t-10 164t56 164t109.5 134
t147.5 90t170 33q87 0 159 -33t121 -90t71 -134t10 -165z" />
    <glyph glyph-name="A" unicode="A" horiz-adv-x="740" 
d="M400 515q-1 8 -1.5 16.5t-2.5 16.5q0 -2 -2 -6.5l-4.5 -10l-5 -10.5t-3.5 -6l-23 -42.5l-21.5 -38l-21 -37.5l-22.5 -41h152l-22.5 79.5zM629 0h-83l-39 138.5l-39 138.5h-220l-78 -138.5l-78 -138.5h-83l206.5 366l206.5 366z" />
    <glyph glyph-name="B" unicode="B" horiz-adv-x="535" 
d="M179 621l-33 -229h108q59 0 98 33t47 87q8 59 -24 84t-90 25h-106zM135 313l-33 -234h111q31 0 59 7t50.5 21.5t37.5 35.5t19 50q4 31 -6.5 54t-31 37.5t-49.5 21.5t-60 7h-97zM8 0l99 700h183q49 0 88 -10t65 -31t37 -54.5t4 -79.5q-8 -62 -44 -109t-99 -64
q27 -6 51 -20t41 -36t25 -51t3 -65q-6 -45 -30 -78.5t-59 -56t-77.5 -34t-85.5 -11.5h-201z" />
    <glyph glyph-name="C" unicode="C" horiz-adv-x="670" 
d="M521 108l36 -66q-43 -23 -90.5 -36.5t-98.5 -13.5q-74 0 -135 28t-102.5 76.5t-60.5 113.5t-9 139t47.5 139.5t93 114t124.5 77t143 28.5q51 0 94.5 -13t81.5 -37l-28 -33.5l-28 -33.5q-28 18 -60.5 28t-70.5 10q-57 0 -110 -22t-95.5 -60.5t-71.5 -89.5t-37 -108
t6.5 -108t46.5 -88.5t78.5 -59.5t103.5 -22q74 0 142 37z" />
    <glyph glyph-name="D" unicode="D" horiz-adv-x="652" 
d="M109 700h163q72 0 132.5 -24.5t102 -70.5t60.5 -110.5t7 -145.5q-8 -62 -36 -124.5t-80.5 -112.5t-131 -81t-187.5 -31h-129zM181 621l-38.5 -270.5l-37.5 -270.5h70q61 0 115 18.5t96 53t69.5 84.5t36.5 114q9 62 -5.5 112t-47.5 85.5t-81 54.5t-107 19h-70z" />
    <glyph glyph-name="E" unicode="E" horiz-adv-x="601" 
d="M19 0l99 700h431l-11 -79h-348l-33 -229h309l-11 -79h-309l-33 -234h362l-11 -79h-445z" />
    <glyph glyph-name="F" unicode="F" horiz-adv-x="587" 
d="M19 0l99 700h431l-11 -79h-348l-33 -229h309l-11 -79h-309l-44 -313h-83z" />
    <glyph glyph-name="G" unicode="G" horiz-adv-x="692" 
d="M396 221l11 79h138q29 0 37 -14.5t3 -45.5l-28 -198q-43 -23 -90.5 -36.5t-98.5 -13.5q-74 0 -135 28t-102.5 76.5t-60.5 113.5t-9 139t47.5 139.5t93 114t124.5 77t143 28.5q51 0 94.5 -13t81.5 -37l-28 -33.5l-28 -33.5q-28 18 -60.5 28t-70.5 10q-57 0 -110 -22
t-95.5 -60.5t-71.5 -89.5t-37 -108t6.5 -108t46.5 -88.5t78.5 -59.5t103.5 -22q52 0 102 18l14 102q2 17 -0.5 23.5t-18.5 6.5h-80z" />
    <glyph glyph-name="H" unicode="H" horiz-adv-x="700" 
d="M28 0l99 700h83l-44 -308h378l44 308h83l-49.5 -350l-49.5 -350h-83l44 313h-378l-44 -313h-83z" />
    <glyph glyph-name="I" unicode="I" horiz-adv-x="278" 
d="M148 700h83l-99 -700h-83z" />
    <glyph glyph-name="J" unicode="J" horiz-adv-x="342" 
d="M-42 -144l11 79q34 2 64.5 13t54.5 31t39.5 48.5t20.5 65.5l86 607h83l-86 -610q-8 -56 -32.5 -99t-60.5 -72.5t-82.5 -45.5t-97.5 -17z" />
    <glyph glyph-name="K" unicode="K" horiz-adv-x="600" 
d="M531 0h-99l-117.5 181.5l-117.5 181.5l-34.5 -29.5l-35.5 -29.5l-21.5 -152l-21.5 -152h-83l99 700h83l-39 -274q-2 -8 -3.5 -16t-3.5 -16q5 6 11 11.5t11 11.5l168.5 141.5l168.5 141.5h102l-169 -142l-169 -142l135.5 -208z" />
    <glyph glyph-name="L" unicode="L" horiz-adv-x="593" 
d="M19 0l99 700h83l-88 -621h362l-11 -79h-445z" />
    <glyph glyph-name="M" unicode="M" horiz-adv-x="937" 
d="M151 732l149.5 -237.5l149.5 -237.5l216.5 237.5l216.5 237.5l-103 -732h-83l66 470l4 16l4 16q-80 -98 -167 -190.5l-172 -186.5l-110 175l-109 175l-7.5 13.5t-6.5 13.5q-1 -8 -1 -16t-1 -16l-66 -470h-83z" />
    <glyph glyph-name="N" unicode="N" horiz-adv-x="813" 
d="M760 700l-103 -732l-218 272l-218 272q-3 7 -7 13t-8 13q-1 -8 -1 -16t-1 -16l-71 -506h-83l103 732l217 -277.5l217 -277.5q4 -7 8 -13t8 -13v16t1 16l73 517h83z" />
    <glyph glyph-name="O" unicode="O" horiz-adv-x="840" 
d="M61 349q10 73 47.5 138.5t93 114.5t124.5 77.5t143 28.5q73 0 134.5 -28.5t103.5 -77.5t61 -114.5t9 -138.5q-10 -74 -47.5 -139t-93.5 -113.5t-125.5 -76.5t-142.5 -28q-74 0 -135 28t-102.5 76.5t-60.5 113.5t-9 139zM144 349q-8 -58 6.5 -108.5t46.5 -88t79 -59.5
t104 -22t110 22t95.5 59.5t71.5 88t37 108.5t-6.5 108.5t-46.5 88.5t-78.5 60t-103.5 22t-110.5 -22t-96 -60t-71.5 -88.5t-37 -108.5z" />
    <glyph glyph-name="P" unicode="P" horiz-adv-x="489" 
d="M146 392h87q44 0 74.5 11.5t50 28.5t29 38t12.5 40q3 22 -5.5 42.5t-26 36t-43.5 24.5t-57 9h-88zM8 0l99 700h165q34 0 74 -10.5t72.5 -33.5t51.5 -59t12 -87q-13 -91 -74.5 -144.5t-163.5 -53.5h-109l-44 -312h-83z" />
    <glyph glyph-name="Q" unicode="Q" horiz-adv-x="842" 
d="M144 349q-8 -57 6.5 -108t46.5 -88.5t78.5 -59.5t103.5 -22t110 22t96 59.5t72 88.5t37 108t-6.5 108t-46.5 89.5t-79 60.5t-104 22t-110 -22t-95.5 -60.5t-71.5 -89.5t-37 -108zM61 349q10 74 47.5 139.5t93 114t124.5 77t143 28.5t135.5 -28.5t103.5 -77t60.5 -114
t8.5 -139.5q-11 -81 -54.5 -151t-108.5 -119h147l-11 -79h-307q-38 -8 -75 -8q-74 0 -135 28t-102.5 76.5t-60.5 113.5t-9 139z" />
    <glyph glyph-name="R" unicode="R" horiz-adv-x="519" 
d="M146 392h87q44 0 74.5 11.5t50 28.5t29 38t12.5 40q3 22 -5.5 42.5t-26 36t-43.5 24.5t-57 9h-88zM8 0l99 700h165q34 0 74 -10.5t72.5 -33.5t51.5 -59t12 -87q-11 -75 -55.5 -125.5t-118.5 -66.5l105 -318h-90l-51.5 156l-51.5 156h-17h-68l-44 -312h-83z" />
    <glyph glyph-name="S" unicode="S" horiz-adv-x="563" 
d="M488 631l-27.5 -30l-27.5 -30q-7 8 -18.5 17.5t-27.5 17.5t-35.5 13.5t-42.5 5.5q-58 0 -90.5 -33t-38.5 -78q-4 -26 2.5 -42.5t19.5 -27.5t32 -18.5l41 -15.5q31 -12 67 -28.5t64.5 -42.5t45 -63t9.5 -89q-6 -45 -28 -81t-54 -61.5t-72 -39t-82 -13.5q-38 0 -72.5 10.5
t-62 27t-48 36.5t-31.5 40l60 52q11 -14 26.5 -29.5t35 -28.5t43.5 -21t53 -8q26 0 51 7.5t45.5 22t34.5 36.5t18 51q6 40 -10.5 64.5t-42.5 40.5t-56 25.5t-51 18.5q-17 7 -40 19.5t-43 33.5t-31.5 52t-6.5 75q4 33 18.5 66t41.5 60t67.5 44t95.5 17q40 0 80.5 -14
t87.5 -59z" />
    <glyph glyph-name="T" unicode="T" horiz-adv-x="553" 
d="M602 700l-11 -79h-234l-88 -621h-83l88 621h-236l11 79h553z" />
    <glyph glyph-name="U" unicode="U" horiz-adv-x="652" 
d="M278 -8q-54 0 -98 15t-73.5 44.5t-42.5 73.5t-5 101l66 474h83l-66 -471q-5 -38 3.5 -67.5t28 -49.5t49 -30.5t66.5 -10.5q74 0 127.5 40.5t64.5 117.5l66 471h83l-66 -474q-8 -57 -33.5 -101t-64 -73.5t-86.5 -44.5t-102 -15z" />
    <glyph glyph-name="V" unicode="V" horiz-adv-x="722" 
d="M642 700h83l-206.5 -366l-206.5 -366l-207 732h83l73 -257.5l73 -257.5q1 -8 1.5 -16.5t2.5 -16.5q3 8 6.5 16.5t7.5 16.5l145 257.5z" />
    <glyph glyph-name="W" unicode="W" horiz-adv-x="1108" 
d="M1015 700h83l-206.5 -366l-206.5 -366l-118 417q-2 9 -3 17.5l-2 17.5q-22 -56 -52.5 -113.5t-64 -114.5l-68.5 -113.5t-65 -110.5l-207 732h83l73 -257.5l73 -257.5q1 -8 1.5 -16.5t2.5 -16.5q18 45 42 89.5l50 89l52.5 88.5l50.5 87l-27.5 97l-27.5 97h83l73 -257.5
l73 -257.5q1 -8 1.5 -16.5t2.5 -16.5q3 8 6.5 16.5t7.5 16.5l145 257.5z" />
    <glyph glyph-name="X" unicode="X" horiz-adv-x="700" 
d="M326 357l-86.5 171.5l-87.5 171.5h102l63.5 -125.5l63.5 -125.5q2 -7 5 -13.5t5 -13.5l8 13.5l8 13.5l99.5 125.5l99.5 125.5h102l-138.5 -174.5l-137.5 -174.5l89.5 -175.5l89.5 -175.5h-103l-131 258q-3 7 -5.5 14t-4.5 14q-9 -13 -17 -28l-102.5 -129l-101.5 -129
h-103l142 178.5z" />
    <glyph glyph-name="Y" unicode="Y" horiz-adv-x="638" 
d="M357 269l-38 -269h-102l38 270l-97 215l-97 215h102l73 -161.5l73 -161.5q2 -8 3.5 -15.5t3.5 -15.5h1l8 15.5l8 15.5l118.5 161.5l118.5 161.5h102l-158 -215.5z" />
    <glyph glyph-name="Z" unicode="Z" horiz-adv-x="700" 
d="M308 700h401l-11 -79l-252.5 -270.5l-251.5 -270.5h457l-11 -80h-559l11 80l251.5 270.5l252.5 270.5h-338q-31 0 -50 18t-15 47l7 49h83l-2 -12q-2 -16 4 -19.5t23 -3.5z" />
    <glyph glyph-name="bracketleft" unicode="[" horiz-adv-x="338" 
d="M20 -149l125 895h192l-11 -81h-109l-103 -733h109l-11 -81h-192z" />
    <glyph glyph-name="backslash" unicode="\" horiz-adv-x="385" 
d="M147 736l85.5 -377.5l85.5 -377.5h-94l-85.5 377.5l-85.5 377.5h94z" />
    <glyph glyph-name="bracketright" unicode="]" horiz-adv-x="342" 
d="M313 746l-125 -895h-191l10 81h109l103 733h-109l11 81h192z" />
    <glyph glyph-name="asciicircum" unicode="^" horiz-adv-x="470" 
d="M244 660l47.5 -90.5l47.5 -90.5h-59l-51 72l-35.5 -36l-35.5 -36h-59l72.5 90.5z" />
    <glyph glyph-name="underscore" unicode="_" horiz-adv-x="600" 
d="M494 0h-400l11 81h400z" />
    <glyph glyph-name="grave" unicode="`" horiz-adv-x="200" 
d="M42 612l35.5 -66.5l35.5 -66.5h-59l-47.5 66.5l-47.5 66.5h83z" />
    <glyph glyph-name="a" unicode="a" horiz-adv-x="510" 
d="M159 188q-7 -49 21 -82.5t80 -33.5q26 0 48.5 9t40.5 24.5t29.5 37t14.5 45.5q7 50 -21 82.5t-80 32.5q-26 0 -48.5 -8.5t-40.5 -24t-29.5 -36.5t-14.5 -46zM75 187q6 43 26 79t51 62t70 41t81 15q27 0 49 -8t37.5 -17.5t24.5 -18.5t9 -12q2 11 5 23t5 24h69l-52 -375
h-73l4 32q0 2 0.5 4.5t0.5 4.5q-1 -3 -10.5 -11t-27 -16.5t-42 -15.5t-54.5 -7q-42 0 -76.5 15.5t-58 42.5t-34 62.5t-4.5 75.5z" />
    <glyph glyph-name="b" unicode="b" horiz-adv-x="533" 
d="M425 188q7 50 -21 82.5t-80 32.5q-26 0 -48.5 -8.5t-40.5 -24t-29.5 -36.5t-14.5 -46q-7 -49 21 -82.5t80 -33.5q26 0 48.5 9t40.5 24.5t29.5 37t14.5 45.5zM509 188q-6 -44 -26 -80t-50.5 -62t-70 -40.5t-82.5 -14.5q-30 0 -52.5 7t-37.5 15.5t-22.5 16.5t-7.5 11
q0 -2 -0.5 -4.5t-0.5 -4.5l-4 -32h-73l105 750h83l-55 -388q-3 -8 -7 -16t-7 -16q1 3 12 11.5t29 18t42 17t51 7.5q42 0 77 -15.5t58 -42.5t34 -62.5t5 -75.5z" />
    <glyph glyph-name="c" unicode="c" horiz-adv-x="395" 
d="M324 97q11 -16 20.5 -31.5t20.5 -31.5q-29 -20 -62 -31.5t-69 -11.5q-42 0 -76 15.5t-57.5 42.5t-34 62.5t-4.5 76.5q6 44 26 80t50.5 62t69 40t81.5 14q37 0 67.5 -11.5t53.5 -31.5l-30 -31l-30 -31q-29 24 -72 24q-26 0 -48.5 -8.5t-40.5 -24t-29.5 -36.5t-14.5 -46
q-7 -49 21 -82.5t80 -33.5q44 0 78 25z" />
    <glyph glyph-name="d" unicode="d" horiz-adv-x="528" 
d="M159 188q-7 -49 21 -82.5t80 -33.5q26 0 48.5 9t40.5 24.5t29.5 37t14.5 45.5q7 50 -21 82.5t-80 32.5q-26 0 -48.5 -8.5t-40.5 -24t-29.5 -36.5t-14.5 -46zM75 188q6 40 26 75.5t51 62.5t70 42.5t81 15.5q27 0 49 -7.5t37.5 -17t24.5 -18t9 -11.5q-2 8 -3 16t-3 16
l55 388h83l-105 -750h-73l4 32q0 2 0.5 4.5t0.5 4.5q-1 -3 -10.5 -11t-27 -16.5t-42 -15.5t-54.5 -7q-42 0 -76.5 15.5t-58 42.5t-34 63t-4.5 76z" />
    <glyph glyph-name="e" unicode="e" horiz-adv-x="451" 
d="M278 303q-40 0 -71.5 -20t-48.5 -52q-5 -8 -7.5 -17t-4.5 -18l98.5 34.5l98.5 34.5q-11 17 -27.5 27.5t-37.5 10.5zM442 218l-142 -50l-143 -50q12 -21 35 -33.5t54 -12.5q23 0 43 8.5t37 23.5l21.5 -30l21.5 -30q-29 -25 -63 -39t-72 -14q-42 0 -76 15.5t-57.5 42.5
t-34 62.5t-4.5 76.5q6 46 26 82.5t50.5 61.5t69 38.5t81.5 13.5q31 0 57.5 -12.5t46.5 -34.5t32.5 -52.5t16.5 -66.5z" />
    <glyph glyph-name="f" unicode="f" horiz-adv-x="328" 
d="M64 303l11 81h64l19 133q8 56 32.5 99t61 72.5t82.5 45t98 17.5l-11 -79q-70 -4 -119.5 -44t-60.5 -114l-19 -130h117l-11 -81h-117l-42 -303h-83l42 303h-64z" />
    <glyph glyph-name="g" unicode="g" horiz-adv-x="518" 
d="M159 188q-7 -49 21 -82.5t80 -33.5q26 0 48.5 9t40.5 24.5t29.5 37t14.5 45.5q7 50 -21 82.5t-80 32.5q-26 0 -48.5 -8.5t-40.5 -24t-29.5 -36.5t-14.5 -46zM433 375h69l-55 -391l-6 -44q-6 -40 -26.5 -74.5t-50.5 -60t-68.5 -40.5t-80.5 -15q-45 0 -84 19.5t-66 40.5
l32 34l32 34q18 -15 42.5 -28.5t53.5 -13.5q26 0 49 9t41 24.5t30 37t15 46.5l9 67q3 5 6 9.5t6 9.5q-4 -4 -14.5 -12t-28 -15.5t-40 -13.5t-50.5 -6q-42 0 -76.5 15.5t-58 42t-34 62t-4.5 75.5q6 44 26 80t51 62t70 40.5t81 14.5q27 0 49 -8t37.5 -17.5t24.5 -18.5t9 -12
q2 11 5 23t5 24z" />
    <glyph glyph-name="h" unicode="h" horiz-adv-x="525" 
d="M187 750h83l-60 -426l-9 -45q29 49 74.5 75.5t102.5 29.5q59 0 89 -31t25 -81l-38 -272h-83l32 234q2 27 -12.5 46.5t-52.5 21.5q-26 0 -51 -9t-45 -25t-34 -38t-18 -48l-25 -182h-83z" />
    <glyph glyph-name="i" unicode="i" horiz-adv-x="200" 
d="M122 520q3 23 21 38t38 15q19 0 33 -15t11 -38q-4 -23 -22 -37.5t-37 -14.5q-20 0 -34 14.5t-10 37.5zM141 0h-83l52 375h83z" />
    <glyph glyph-name="j" unicode="j" horiz-adv-x="225" 
d="M141 520q3 23 21 38t38 15q19 0 33 -15t11 -38q-4 -23 -22 -37.5t-37 -14.5q-20 0 -34 14.5t-10 37.5zM52 -181l-24 31l-24 31q59 42 71 122l52 373q21 0 41.5 -0.5t41.5 -0.5l-52 -375q-9 -61 -36.5 -106.5t-69.5 -74.5z" />
    <glyph glyph-name="k" unicode="k" horiz-adv-x="449" 
d="M380 384l21.5 -24.5l21.5 -24.5l-72.5 -60.5l-72.5 -60.5l63 -107l63 -107h-96l-48 80l-48 80q-14 -11 -27.5 -23t-27.5 -23l-16 -114h-83l105 750h83l-76 -539l105.5 86.5z" />
    <glyph glyph-name="l" unicode="l" horiz-adv-x="194" 
d="M141 0h-83l105 750h83z" />
    <glyph glyph-name="m" unicode="m" horiz-adv-x="796" 
d="M134 375h73l-1 -9q-2 -24 -2.5 -43.5t-2.5 -43.5q28 48 74 75.5t103 29.5q55 0 85 -27.5t29 -72.5q29 46 74.5 72t100.5 28q59 0 89 -31t25 -81l-38 -272h-83l32 234q2 27 -12.5 46.5t-52.5 21.5q-26 0 -51 -9t-45 -25t-34 -38t-18 -48l-25 -182h-83l32 234
q2 27 -12.5 46.5t-52.5 21.5q-26 0 -51 -9t-45 -25t-34 -38t-18 -48l-25 -182h-83z" />
    <glyph glyph-name="n" unicode="n" horiz-adv-x="495" 
d="M134 375h73l-1 -9q-2 -24 -2.5 -43.5t-2.5 -43.5q27 48 75 76.5t102 28.5q59 0 89 -31t25 -81l-38 -272h-83l32 234q2 27 -12.5 46.5t-52.5 21.5q-26 0 -51 -9t-45 -25t-34 -38t-18 -48l-25 -182h-83z" />
    <glyph glyph-name="o" unicode="o" horiz-adv-x="475" 
d="M62 188q6 47 26.5 83.5t51 61.5t69 38t80.5 13t77 -15.5t58 -42t34 -62.5t5 -76q-6 -44 -26.5 -80t-51.5 -62t-70 -40.5t-81 -14.5t-76 15.5t-57.5 42.5t-34 62.5t-4.5 76.5zM145 187q-3 -24 3 -45t19.5 -36.5t33 -24.5t43.5 -9t46.5 9t40.5 24.5t30 36.5t15 45t-3 45
t-19.5 37t-33.5 25t-44 9t-46 -9t-40 -25t-30 -37t-15 -45z" />
    <glyph glyph-name="p" unicode="p" horiz-adv-x="525" 
d="M410 188q7 50 -21 82.5t-80 32.5q-26 0 -48.5 -8.5t-40.5 -24t-29.5 -36.5t-14.5 -46q-7 -49 21 -82.5t80 -33.5q26 0 48.5 9t40.5 24.5t29.5 37t14.5 45.5zM494 188q-6 -44 -26.5 -80t-51.5 -62t-70 -40.5t-81 -14.5q-30 0 -52.5 7t-37.5 15.5t-22.5 16.5t-7.5 11
q2 -5 3.5 -11t3.5 -11l-38 -269h-83l88 625h69q-2 -12 -1.5 -23.5t-0.5 -23.5q1 3 12 12t29 18.5t42 17.5t51 8q42 0 77 -15.5t58 -42.5t34 -62.5t5 -75.5z" />
    <glyph glyph-name="q" unicode="q" horiz-adv-x="512" 
d="M159 188q-7 -49 21 -82.5t80 -33.5q26 0 48.5 9t40.5 24.5t29.5 37t14.5 45.5q7 50 -21 82.5t-80 32.5q-26 0 -48.5 -8.5t-40.5 -24t-29.5 -36.5t-14.5 -46zM75 188q6 43 26 79t51 62t70 40.5t81 14.5q27 0 49 -8t37.5 -17.5t24.5 -18.5t9 -12q2 12 5 23.5t5 23.5h69
l-88 -625h-83l38 269l6.5 11l6.5 11q-1 -3 -10.5 -11t-27 -16.5t-42 -15.5t-54.5 -7q-42 0 -76.5 15.5t-58 42.5t-34 63t-4.5 76z" />
    <glyph glyph-name="r" unicode="r" horiz-adv-x="331" 
d="M342 302q-30 0 -56.5 -9t-46.5 -25t-32.5 -38t-16.5 -48l-25 -182h-83l52 375h73l-1 -9q-2 -24 -2.5 -43.5t-2.5 -43.5q15 25 36.5 44.5t43.5 33t42.5 20.5t35.5 7z" />
    <glyph glyph-name="s" unicode="s" horiz-adv-x="399" 
d="M358 342l-27.5 -31l-27.5 -31q-4 5 -17.5 14t-37.5 9q-22 0 -33.5 -9.5t-11.5 -25.5q1 -12 12.5 -19.5t28.5 -14.5t35.5 -16t33.5 -22.5t23 -34t4 -51.5q-2 -14 -10 -34t-25 -39t-44 -32t-67 -13q-37 0 -69 12.5t-49 34.5l29.5 30.5l29.5 30.5q20 -14 34 -20.5t38 -6.5
q1 0 7.5 0.5t15 4t16 10.5t10.5 21q4 18 -6 27.5t-26.5 16t-37 13t-37 18t-25.5 32.5t-4 56q4 31 19 52t35 34.5t41.5 19.5t38.5 6q10 0 24 -2t29 -7t28.5 -13t22.5 -20z" />
    <glyph glyph-name="t" unicode="t" horiz-adv-x="300" 
d="M194 619h83l-33 -235h98l-11 -81h-98l-42 -303h-83l42 303h-84l11 81h84z" />
    <glyph glyph-name="u" unicode="u" horiz-adv-x="529" 
d="M452 -9h-83l9 60l9 45q-27 -48 -75.5 -76.5t-102.5 -28.5q-59 0 -88.5 31t-24.5 81l38 272h83l-33 -234q-2 -27 13 -46.5t53 -21.5q26 0 51 9t45 25t34 38t18 48l25 182h83z" />
    <glyph glyph-name="v" unicode="v" horiz-adv-x="500" 
d="M266 -23l-79.5 199l-80.5 199h83q12 -30 26.5 -62l28 -64t25 -64.5t17.5 -64.5q15 32 35.5 64.5t43.5 64.5l46 64l44 62h83l-135.5 -199z" />
    <glyph glyph-name="w" unicode="w" horiz-adv-x="772" 
d="M395 328q-5 12 -8.5 23.5t-8.5 23.5h83q21 -63 45 -126.5t37 -128.5q31 65 73.5 128.5t80.5 126.5h83l-128 -199l-129 -199l-49 134.5l-49 134.5l-87 -134.5l-87 -134.5l-72 199l-73 199h83q21 -63 45 -126.5t37 -128.5q26 54 59.5 105.5z" />
    <glyph glyph-name="x" unicode="x" horiz-adv-x="475" 
d="M197 202l-51.5 86.5l-51.5 86.5h102l40.5 -66.5l40.5 -66.5l57.5 66.5l57.5 66.5h102l-87.5 -101l-87.5 -101l52.5 -86.5l52.5 -86.5h-106l-40 66.5l-40 66.5l-57.5 -66.5l-57.5 -66.5h-102l87.5 101z" />
    <glyph glyph-name="y" unicode="y" horiz-adv-x="500" 
d="M136 -250h-83l81 125l81 125l-68.5 187.5l-68.5 187.5h83q-1 1 3.5 -11.5l12 -33.5l17 -48.5l19.5 -55.5l54 -152q0 -1 14 22l35.5 57l46 73.5l46 73l35 55.5t12.5 20h83l-201 -312.5z" />
    <glyph glyph-name="z" unicode="z" horiz-adv-x="451" 
d="M219 375h217l-11 -81q-36 -28 -67 -54.5l-61 -52.5l-61 -52l-66 -54h248l-11 -81h-365l11 81l66 54.5l61.5 52.5l61.5 53l66 55h-139q-31 0 -50 18t-15 47l7 49h83l-2 -12q-2 -16 4 -19.5t23 -3.5z" />
    <glyph glyph-name="braceleft" unicode="{" horiz-adv-x="320" 
d="M24 256l11 81q24 1 41.5 14.5t29 33.5t18 43.5t9.5 43.5l22 156q6 46 19 70.5t30.5 35t39 11.5t45.5 1h63l-11 -81h-44q-15 0 -25.5 -4t-18 -15.5t-13 -31.5t-9.5 -52l-19 -129q-4 -31 -13.5 -53.5t-21.5 -38.5t-25 -26.5t-23 -16.5q9 -6 18.5 -16.5t17 -27t11 -38.5
t-0.5 -52l-18 -129q-5 -32 -5.5 -52.5t4 -31.5t14 -15t24.5 -4h44l-11 -81h-63q-23 0 -44.5 1t-36.5 11.5t-21 34.5t0 71l22 152q3 20 3 43.5t-6 43.5t-19.5 33.5t-37.5 14.5z" />
    <glyph glyph-name="bar" unicode="|" horiz-adv-x="271" 
d="M25 -232l131 932h84l-131 -932h-84z" />
    <glyph glyph-name="braceright" unicode="}" horiz-adv-x="320" 
d="M295 337l-12 -81q-24 -1 -41 -14.5t-29 -33.5t-18.5 -43.5t-9.5 -43.5l-21 -152q-6 -47 -19 -71t-30.5 -34.5t-39 -11.5t-45.5 -1h-62l11 81h43q15 0 25.5 4t18 15t12.5 31.5t10 52.5l19 129q4 30 13.5 52.5t21.5 38.5t25 26.5t23 16.5q-9 6 -18.5 16.5t-17 26.5
t-11 38.5t0.5 53.5l18 129q5 32 5.5 52t-4 31.5t-14 15.5t-24.5 4h-44l11 81h63q23 0 44.5 -1t36.5 -11.5t21 -34.5t0 -71l-22 -156q-3 -20 -3 -43.5t6 -43.5t19.5 -33.5t37.5 -14.5z" />
    <glyph glyph-name="asciitilde" unicode="~" horiz-adv-x="489" 
d="M268 481q-13 16 -24 21t-25 5t-33 -9t-26 -37l-45 3q4 20 15 36.5t26 28t31.5 17.5t31.5 6q23 0 40.5 -9t31.5 -24q13 -16 23.5 -21t24.5 -5q7 0 16 2t17.5 7t16 14t10.5 23q11 -1 22 -1.5t22 -1.5q-4 -20 -15 -36.5t-25.5 -27.5t-31 -17t-31.5 -6q-23 0 -40.5 9
t-31.5 23z" />
    <glyph glyph-name="exclamdown" unicode="&#xa1;" horiz-adv-x="200" 
d="M151 540q19 0 33 -15t11 -38t-21.5 -37.5t-37.5 -14.5q-20 0 -33.5 14.5t-10.5 37.5q4 23 21.5 38t37.5 15zM86 374h83l-82 -584h-83z" />
    <glyph glyph-name="cent" unicode="&#xa2;" horiz-adv-x="385" 
d="M119 188q-5 -34 7 -61t38 -42l29 204q-30 -14 -49.5 -40.5t-24.5 -60.5zM298 97q11 -16 20.5 -31.5t20.5 -31.5q-47 -35 -103 -41l-9 -61h-84l9 68q-30 9 -53.5 27t-39 42.5t-22 55t-1.5 63.5q4 33 19 63t37.5 55t51.5 43t61 27l9 62h84l-8 -56q26 -4 51.5 -14t42.5 -27
l-30 -31l-30 -31q-19 14 -45 21l-32 -226q13 3 26.5 9t24.5 14z" />
    <glyph glyph-name="sterling" unicode="&#xa3;" horiz-adv-x="574" 
d="M154 81h172q32 0 52.5 2.5t33 8.5t18 16t7.5 25l6 44q21 0 42 0.5t42 0.5l-13 -93q-3 -18 -9.5 -34t-20.5 -27t-38 -17.5t-62 -6.5h-399l11 81h43q16 0 26.5 3.5t18 14.5t12 30.5t9.5 51.5l13 92h-65l12 81h65l20 146q10 69 72.5 101.5t167.5 32.5q33 0 58.5 -8t44 -22
t31 -32t19.5 -38l-34 -18.5l-34 -18.5q-5 7 -10 16.5t-14.5 18.5t-26.5 15t-45 6q-68 0 -104.5 -14t-43.5 -61l-17 -124h117l-12 -81h-117l-15 -110q-4 -29 -9.5 -48.5t-23.5 -33.5z" />
    <glyph glyph-name="currency" unicode="&#xa4;" horiz-adv-x="500" 
d="M171 360q-5 -32 14.5 -54.5t51.5 -22.5q16 0 31 6t27 16.5t20.5 24.5t10.5 30q4 32 -15.5 55t-51.5 23t-57.5 -23t-30.5 -55zM87 361q3 22 11.5 41.5t20.5 36.5l-10 12l-10 12l67 59l21 -24q20 9 40 15t42 6t41 -5.5t36 -15.5l27 24l51 -59l-25 -22q17 -37 11 -80
q-6 -44 -35 -81l21 -24l-67 -59q-6 6 -11.5 12.5t-11.5 12.5q-38 -20 -82 -20q-42 0 -75 19l-28 -25l-51 59l27 24q-16 38 -10 82z" />
    <glyph glyph-name="yen" unicode="&#xa5;" horiz-adv-x="638" 
d="M459 181l-12 -81h-114l-14 -100h-102l14 100h-117l12 81h117l11 82h-117l12 81h73l-81 178l-80 178h102l73 -161.5l73 -161.5q2 -8 3.5 -15.5t3.5 -15.5h1l8 15.5l8 15.5l118.5 161.5l118.5 161.5h102l-130.5 -178l-129.5 -178h70l-12 -81h-114l-11 -82h114z" />
    <glyph glyph-name="brokenbar" unicode="&#xa6;" horiz-adv-x="215" 
d="M87 -233h-84l49 350h84zM169 350h-84l49 350h84z" />
    <glyph glyph-name="section" unicode="&#xa7;" horiz-adv-x="500" 
d="M194 360q-4 -27 12 -45.5t43 -18.5q26 0 47.5 18.5t25.5 45.5q4 26 -12 45t-43 19q-26 0 -47.5 -18.5t-25.5 -45.5zM187 148l-33.5 70t-18.5 39.5t-7 18t-1 6.5q-10 23 -11 49.5t7 52.5t24 49t39 40q32 23 74 27l-15.5 34l-15.5 35q-14 33 -16.5 56.5t3.5 41t19.5 29.5
t31.5 22l40.5 22l40.5 22l32 -70q-11 -5 -21 -11t-21 -11q-13 -8 -20.5 -15t-10 -17t1 -23.5t12.5 -34.5h1l34 -74.5l34 -74.5q11 -23 11.5 -49t-7.5 -51.5t-24.5 -48.5t-40.5 -39q-32 -23 -74 -29l32 -70q15 -33 17.5 -57t-4 -41.5t-20 -30t-31.5 -22.5l-39.5 -21.5
l-39.5 -21.5l-32 70l21.5 11.5l21.5 11.5q13 7 20.5 15t8 19.5t-5 28t-17.5 42.5z" />
    <glyph glyph-name="dieresis" unicode="&#xa8;" horiz-adv-x="370" 
d="M214 520q4 23 22 38t38 15q19 0 33 -15t10 -38q-3 -23 -21 -37.5t-37 -14.5q-20 0 -34 14.5t-11 37.5zM48 520q4 23 22 38t38 15q19 0 33 -15t10 -38q-3 -23 -21 -37.5t-37 -14.5q-20 0 -34 14.5t-11 37.5z" />
    <glyph glyph-name="copyright" unicode="&#xa9;" horiz-adv-x="793" 
d="M368 148q47 0 90 17t77.5 47t57 71t29.5 89q7 49 -4 90t-37 71t-64.5 47t-85.5 17t-90 -17t-77.5 -47t-57.5 -71t-30 -90q-7 -48 4.5 -89t37.5 -71t64.5 -47t85.5 -17zM363 111q-54 0 -99 20t-76 55t-45.5 82.5t-6.5 103.5q8 57 36 105t68.5 83t91 54.5t104.5 19.5
t99 -19.5t76 -54.5t45 -83t6 -105q-8 -56 -35.5 -103.5t-68 -82.5t-91 -55t-104.5 -20zM452 266l17 -30q-20 -11 -41.5 -17t-44.5 -6q-33 0 -61 13t-46.5 35t-27 51.5t-3.5 62.5q4 34 21 63.5t42 51.5t56.5 34.5t64.5 12.5q44 0 79 -22q-6 -8 -12.5 -15.5t-12.5 -15.5
q-13 8 -27.5 13t-31.5 5q-26 0 -49.5 -10t-43 -27.5t-32.5 -40.5t-17 -49q-3 -26 3.5 -49t20.5 -40t35 -27t47 -10q35 0 64 17z" />
    <glyph glyph-name="ordfeminine" unicode="&#xaa;" horiz-adv-x="585" 
d="M172.698 441.596q-5.0498 -35.3418 15.1494 -59.5039q20.1982 -24.1621 57.71 -24.1621q18.7559 0 34.9863 6.49219q16.2314 6.49121 29.2158 17.6699q12.9844 11.1797 21.2803 26.6865t10.46 32.8174q5.0498 36.0625 -15.1484 59.5029q-20.1992 23.4404 -57.71 23.4404
q-18.7559 0 -34.9873 -6.12988q-16.2305 -6.13086 -29.2148 -17.3105q-12.9854 -11.1797 -21.2812 -26.3252q-8.2959 -15.1465 -10.46 -33.1777zM112.104 440.874q4.32812 31.0137 18.7549 56.9795q14.4277 25.9648 36.79 44.7168q22.3633 18.7529 50.4971 29.5723
q28.1328 10.8184 58.4307 10.8184q19.4775 0 35.3477 -5.76953q15.8701 -5.77051 27.0518 -12.6221q11.1807 -6.85254 17.6738 -13.3438q6.49219 -6.49121 6.49219 -8.65527q1.44238 7.93457 3.60645 16.5889q2.16406 8.65527 3.60742 17.3105h49.7744l-37.5117 -270.47
h-52.6602l2.88574 23.0801q0 1.44238 0.360352 3.24609q0.361328 1.80273 0.361328 3.24512q-0.72168 -2.16406 -7.5752 -7.93359q-6.85254 -5.77051 -19.4766 -11.9004q-12.624 -6.13086 -30.2979 -11.1797t-39.3154 -5.04883q-30.2969 0 -55.1846 11.1797
q-24.8877 11.1787 -41.8398 30.6533q-16.9521 19.4736 -24.5264 45.0781q-7.5752 25.6045 -3.24609 54.4541z" />
    <glyph glyph-name="guillemotleft" unicode="&#xab;" horiz-adv-x="601" 
d="M436 77l-148 162l96.5 80.5l96.5 80.5l-13 -94l-37 -33.5l-37 -33.5l27.5 -33.5l27.5 -33.5zM265 77l-148 162l96.5 80.5l96.5 80.5l-13 -95l-37 -33l-37 -33l27.5 -33.5l27.5 -33.5z" />
    <glyph glyph-name="logicalnot" unicode="&#xac;" horiz-adv-x="559" 
d="M368 148l6 40h-276l9 60h360l-15 -100h-84z" />
    <glyph glyph-name="registered" unicode="&#xae;" horiz-adv-x="801" 
d="M368 148q47 0 90 17t77.5 47t57 71t29.5 89q7 49 -4 90t-37 71t-64.5 47t-85.5 17t-90 -17t-77.5 -47t-57.5 -71t-30 -90q-7 -48 4.5 -89t37.5 -71t64.5 -47t85.5 -17zM363 111q-54 0 -99 20t-76 55t-45.5 82.5t-6.5 103.5q8 57 36 105t68.5 83t91 54.5t104.5 19.5
t99 -19.5t76 -54.5t45 -83t6 -105q-8 -56 -35.5 -103.5t-68 -82.5t-91 -55t-104.5 -20zM362 395h41q42 0 59.5 19t19.5 37q3 21 -15 37t-47 16h-42zM297 210l47 331h78q16 0 35 -5t34.5 -16t24.5 -28t6 -41q-5 -35 -26.5 -59t-56.5 -32l25 -75l25 -75h-43l-24 73.5l-25 74.5
h-8h-32l-21 -148h-39z" />
    <glyph glyph-name="macron" unicode="&#xaf;" horiz-adv-x="399" 
d="M81 478l7 53h230l-7 -53h-230z" />
    <glyph glyph-name="degree" unicode="&#xb0;" horiz-adv-x="282" 
d="M131 511q20 0 36.5 14t18.5 34q3 20 -9.5 34.5t-32.5 14.5t-36 -14.5t-19 -34.5q-2 -20 10 -34t32 -14zM36 560q3 21 13 39t26 31.5t36 21.5t41 8q42 0 66.5 -29t19.5 -71q-3 -21 -13.5 -39.5t-26.5 -32t-35 -21t-40 -7.5q-43 0 -68 29t-19 71z" />
    <glyph glyph-name="plusminus" unicode="&#xb1;" horiz-adv-x="524" 
d="M206 211l20 139h-138l11 81h138l20 140h84l-20 -140h138l-11 -81h-138l-20 -139h-84zM412 100h-360l12 81h360z" />
    <glyph glyph-name="twosuperior" unicode="&#xb2;" horiz-adv-x="398" 
d="M185.55 415.006h119.883l-5.91992 -40.0059h-218.553l67.3418 59.5146q32.8076 28.8926 58.709 55.8105q25.9004 26.917 42.9209 52.3525t20.4736 48.6484q2.4668 18.2744 -1.72656 31.1162q-4.19336 12.8408 -12.0869 21.2373t-18.0068 12.3477
q-10.1143 3.95117 -18.9941 3.95117q-18.7471 0 -31.5742 -6.4209t-20.9678 -15.8047q-8.13965 -9.38379 -12.333 -19.7559t-5.18066 -18.2744q-4.43945 -31.6094 12.334 -51.3652l-14.3076 -12.5938l-14.3066 -12.5947q-7.40039 5.43262 -12.8271 14.5703
q-5.42676 9.13672 -8.63379 19.7559q-3.20605 10.6182 -4.19336 21.7314q-0.986328 11.1123 0.493164 20.4961q2.96094 19.7559 12.0879 38.0303t24.4199 32.1035q15.2939 13.8291 35.5215 21.9785q20.2266 8.14941 45.3877 8.14941q22.6943 0 40.208 -8.39648
t28.8604 -22.4727q11.3477 -14.0762 16.2803 -32.5967q4.93359 -18.5215 1.97363 -39.2646q-3.45312 -24.6953 -15.2939 -47.6611q-11.8398 -22.9668 -29.1074 -45.6855q-17.2666 -22.7197 -38.7275 -44.6982z" />
    <glyph glyph-name="threesuperior" unicode="&#xb3;" horiz-adv-x="419" 
d="M120.646 540.533l42.7354 59.584l42.2441 59.584h-93.3301l5.89453 40.3789h161.608l-43.4727 -58.5986l-43.4717 -58.5996q15.2275 -5.90918 27.2627 -15.5117q12.0342 -9.60254 20.1387 -22.4053q8.10547 -12.8037 11.2988 -28.5615
q3.19238 -15.7578 0.736328 -33.4854q-2.94727 -22.1592 -14.4902 -41.6104q-11.5439 -19.4512 -28.2451 -33.9775q-16.7012 -14.5273 -37.332 -22.8984t-42.7354 -8.37109q-23.5781 0 -42.2441 9.60254t-31.4375 25.3604l16.9473 14.0342l16.9463 14.0342
q7.36816 -10.834 19.1572 -16.9893t26.5254 -6.15527q13.7539 0 26.5254 5.41699t23.0869 14.5264q10.3154 9.11035 17.4385 21.1748q7.12207 12.0645 9.08691 25.8525t-1.71973 25.8525q-3.68359 12.0654 -11.543 20.9287t-19.1572 14.0342t-25.0518 5.1709
q-17.6836 0 -33.4023 -8.37109z" />
    <glyph glyph-name="acute" unicode="&#xb4;" horiz-adv-x="274" 
d="M90 479l54.5 66.5l54.5 66.5h84l-67 -66.5l-67 -66.5h-59z" />
    <glyph glyph-name="mu" unicode="&#xb5;" horiz-adv-x="545" 
d="M440 -9h-83l8 60l10 45q-28 -48 -74.5 -75.5t-103.5 -29.5q-26 0 -45 6l-28 -198h-83l81 576h83l-33 -234q-2 -27 13 -46.5t53 -21.5q26 0 51 9t45 25t34 38t17 48l26 182h83z" />
    <glyph glyph-name="paragraph" unicode="&#xb6;" horiz-adv-x="547" 
d="M231 0h-83l59 423q-34 0 -62 12.5t-47 34.5t-27.5 52t-3.5 64t22 64t42 52t56.5 35t65.5 13h246l-105 -750h-83l94 669h-80z" />
    <glyph glyph-name="periodcentered" unicode="&#xb7;" horiz-adv-x="168" 
d="M33 282q4 23 22 38t38 15q19 0 33 -15t10 -38q-3 -23 -21 -37.5t-37 -14.5q-20 0 -34 14.5t-11 37.5z" />
    <glyph glyph-name="cedilla" unicode="&#xb8;" horiz-adv-x="452" 
d="M201 0h51l-1 -7q-2 -14 1 -22.5t8.5 -14t12 -9t12.5 -8.5q20 -16 25.5 -36t1.5 -45q-3 -21 -12.5 -40.5t-24.5 -34.5t-36 -24t-47 -9q-34 0 -60 18.5t-34 56.5l25.5 12l24.5 12q3 -16 14.5 -26.5t31.5 -10.5q24 0 39 16t19 40q3 20 -6.5 31.5t-21 20.5t-21 19t-7.5 27z
" />
    <glyph glyph-name="onesuperior" unicode="&#xb9;" horiz-adv-x="273" 
d="M73.3145 662.753l5.06543 37.2617h69.998l-41.9062 -299.015h-38.6826l36.8398 261.753h-31.3145z" />
    <glyph glyph-name="ordmasculine" unicode="&#xba;" 
d="M109.718 441.596q4.32715 33.8984 19.1133 60.2246q14.7852 26.3252 36.7832 44.3564q21.999 18.0312 49.7666 27.4082q27.7686 9.37598 58.0615 9.37598q30.292 0 55.5361 -11.1797q25.2441 -11.1787 41.832 -30.292q16.5889 -19.1133 24.5234 -45.0791
q7.93359 -25.9648 3.60547 -54.8145q-4.32715 -31.7354 -19.1123 -57.7002q-14.7861 -25.9658 -37.1445 -44.7178q-22.3594 -18.7529 -50.4883 -29.2109t-58.4209 -10.458q-30.293 0 -54.8154 11.1797q-24.5225 11.1787 -41.4717 30.6533q-16.9502 19.4736 -24.5234 45.0781
q-7.57227 25.6045 -3.24512 55.1758zM169.582 440.874q-2.16406 -17.3096 2.16309 -32.4561q4.32812 -15.1465 14.0645 -26.3262q9.7373 -11.1787 23.8018 -17.6699q14.0645 -6.49219 31.374 -6.49219q17.3105 0 33.5381 6.49219q16.2285 6.49121 29.2109 17.6699
q12.9824 11.1797 21.6377 26.3262t10.8193 32.4561q2.16309 17.3105 -2.16406 32.4561q-4.32812 15.1465 -14.0645 26.6865q-9.7373 11.54 -24.1621 18.0312t-31.7354 6.49121q-17.3096 0 -33.1777 -6.49121q-15.8672 -6.49121 -28.8496 -18.0312t-21.6377 -26.6865
q-8.65527 -15.1455 -10.8184 -32.4561z" />
    <glyph glyph-name="guillemotright" unicode="&#xbb;" horiz-adv-x="601" 
d="M107 172l37 33.5l38 33.5l-28 33.5l-28 33.5l13 94l74.5 -80.5l74.5 -80.5l-194 -162zM278 172l37 33.5l38 33.5l-28 33l-28 33l13 95l74.5 -80.5l74.5 -80.5l-194 -162z" />
    <glyph glyph-name="onequarter" unicode="&#xbc;" horiz-adv-x="968" 
d="M203 -19l192 377.5l192 377.5h84l-192.5 -377.5l-192.5 -377.5h-83zM719.184 307.557l-50.1514 -55.4795l-50.1514 -55.4795h84.7002zM485.888 136.278l160.855 176.864l160.855 176.863l-41.6074 -293.408h72.0693l-8.17285 -60.3193h-72.0693l-19.3174 -136.278
h-62.4102l19.3174 136.278h-209.521zM145.273 637.829l7.80859 57.4873h107.905l-64.6016 -461.316h-59.6318l56.793 403.829h-48.2734z" />
    <glyph glyph-name="onehalf" unicode="&#xbd;" horiz-adv-x="1069" 
d="M145.273 637.829l7.80859 57.4873h107.905l-64.6016 -461.316h-59.6318l56.793 403.829h-48.2734zM664.412 57.4873h172.12l-8.5 -57.4873h-313.782l96.6846 85.5205t84.2891 80.1982t61.623 75.2305q24.4375 36.5498 29.3955 69.9062q3.54102 26.2598 -2.47949 44.7129
q-6.02051 18.4521 -17.3535 30.5176t-25.8535 17.7432t-27.2695 5.67773q-26.916 0 -45.332 -9.22656t-30.1035 -22.7109t-17.708 -28.3887t-7.4375 -26.2598q-6.375 -45.4219 17.708 -73.8105l-20.541 -18.0977l-20.541 -18.0977q-10.625 7.80664 -18.416 20.9365
q-7.79199 13.1299 -12.3955 28.3887q-4.60449 15.2588 -6.02051 31.2275q-1.41699 15.9688 0.708008 29.4531q4.25 28.3887 17.3535 54.6484t35.0615 46.1318t50.999 31.582q29.041 11.7109 65.1641 11.7109q32.583 0 57.7275 -12.0654q25.1455 -12.0654 41.4365 -32.292
q16.291 -20.2275 23.375 -46.8418q7.08301 -26.6143 2.83301 -56.4219q-4.95801 -35.4863 -21.958 -68.4883q-16.999 -33.002 -41.79 -65.6484q-24.791 -32.6475 -55.6025 -64.2295zM203 -19l192 377.5l192 377.5h84l-192.5 -377.5l-192.5 -377.5h-83z" />
    <glyph glyph-name="threequarters" unicode="&#xbe;" horiz-adv-x="1276" 
d="M212.053 457.181l67.2578 93.6006l66.4834 93.6006h-146.883l9.27637 63.4316h254.341l-68.417 -92.0537l-68.417 -92.0527q23.9658 -9.2832 42.9053 -24.3672q18.9404 -15.085 31.6963 -35.1973t17.7803 -44.8662q5.02539 -24.7539 1.16016 -52.6025
q-4.63867 -34.8105 -22.8057 -65.3652q-18.167 -30.5557 -44.4521 -53.376q-26.2842 -22.8203 -58.7529 -35.9707t-67.2568 -13.1504q-37.1074 0 -66.4844 15.084q-29.377 15.085 -49.4766 39.8389l26.6709 22.0459l26.6709 22.0469q11.5957 -17.0186 30.1494 -26.6875
q18.5537 -9.66992 41.7461 -9.66992q21.6455 0 41.7461 8.50879q20.0996 8.50977 36.334 22.8203t27.4443 33.2637q11.209 18.9521 14.3018 40.6113q3.0918 21.6602 -2.70605 40.6123t-18.167 32.876t-30.1494 22.0469q-17.7812 8.12207 -39.4268 8.12207
q-27.8311 0 -52.5693 -13.1504zM393 -19l192 377.5l192 377.5h84l-192.5 -377.5l-192.5 -377.5h-83zM918.184 307.557l-50.1514 -55.4795l-50.1514 -55.4795h84.7002zM684.888 136.278l160.855 176.864l160.855 176.863l-41.6074 -293.408h72.0693l-8.17285 -60.3193
h-72.0693l-19.3174 -136.278h-62.4102l19.3174 136.278h-209.521z" />
    <glyph glyph-name="questiondown" unicode="&#xbf;" horiz-adv-x="452" 
d="M328.009 -12.9668q16.999 -6.99902 34.998 -13.499q17.998 -6.49902 34.9971 -13.499q-9.99902 -21.998 -26.998 -48.4971q-16.999 -26.498 -43.4971 -49.4971q-26.499 -22.998 -63.4961 -38.9971q-36.998 -15.999 -87.9951 -15.999q-40.9971 0 -74.9951 15.499
t-56.4971 41.9971q-22.498 26.498 -32.9971 61.9961q-10.5 35.498 -4.5 75.4961q7.99902 55.9961 39.9971 97.4932q31.998 41.498 82.9951 75.4961q14.999 9.99902 32.498 20.498q17.499 10.5 33.498 23.999t27.498 31.998q11.5 18.499 15.499 45.4971l11 77.9951h83.9941
l-13.999 -96.9941q-3.99902 -31.998 -17.499 -51.9961q-13.499 -19.999 -31.998 -35.498q-18.498 -15.499 -41.9971 -28.998q-23.499 -13.5 -48.4971 -31.498q-39.998 -26.999 -61.4961 -58.9971q-21.499 -31.998 -26.498 -68.9951q-7 -48.9971 18.998 -81.4951
q25.999 -32.498 75.9961 -32.498q55.9961 0 87.4941 24.998q31.498 24.999 53.4971 73.9951zM316.01 539q19.998 0 33.9971 -14.499t11 -37.498q-4 -22.998 -21.999 -37.9971t-37.998 -14.999q-18.998 0 -32.998 14.999q-13.999 14.999 -9.99902 37.9971
q3 22.999 20.999 37.498t36.998 14.499z" />
    <glyph glyph-name="Agrave" unicode="&#xc0;" horiz-adv-x="740" 
d="M400 515q-1 8 -1.5 16.5t-2.5 16.5q0 -2 -2 -6.5l-4.5 -10l-5 -10.5t-3.5 -6l-23 -42.5l-21.5 -38l-21 -37.5l-22.5 -41h152l-22.5 79.5zM629 0h-83l-39 138.5l-39 138.5h-220l-78 -138.5l-78 -138.5h-83l206.5 366l206.5 366zM382 883l35.5 -66.5l35.5 -66.5h-59
l-47.5 66.5l-47.5 66.5h83z" />
    <glyph glyph-name="Aacute" unicode="&#xc1;" horiz-adv-x="740" 
d="M400 515q-1 8 -1.5 16.5t-2.5 16.5q0 -2 -2 -6.5l-4.5 -10l-5 -10.5t-3.5 -6l-23 -42.5l-21.5 -38l-21 -37.5l-22.5 -41h152l-22.5 79.5zM629 0h-83l-39 138.5l-39 138.5h-220l-78 -138.5l-78 -138.5h-83l206.5 366l206.5 366zM391 750l54.5 66.5l54.5 66.5h84l-67 -66.5
l-67 -66.5h-59z" />
    <glyph glyph-name="Acircumflex" unicode="&#xc2;" horiz-adv-x="740" 
d="M400 515q-1 8 -1.5 16.5t-2.5 16.5q0 -2 -2 -6.5l-4.5 -10l-5 -10.5t-3.5 -6l-23 -42.5l-21.5 -38l-21 -37.5l-22.5 -41h152l-22.5 79.5zM629 0h-83l-39 138.5l-39 138.5h-220l-78 -138.5l-78 -138.5h-83l206.5 366l206.5 366zM448 931l47.5 -90.5l47.5 -90.5h-59l-51 72
l-35.5 -36l-35.5 -36h-59l72.5 90.5z" />
    <glyph glyph-name="Atilde" unicode="&#xc3;" horiz-adv-x="740" 
d="M400 515q-1 8 -1.5 16.5t-2.5 16.5q0 -2 -2 -6.5l-4.5 -10l-5 -10.5t-3.5 -6l-23 -42.5l-21.5 -38l-21 -37.5l-22.5 -41h152l-22.5 79.5zM629 0h-83l-39 138.5l-39 138.5h-220l-78 -138.5l-78 -138.5h-83l206.5 366l206.5 366zM418 785q-13 16 -24 21t-25 5t-33 -9
t-26 -37l-45 3q4 20 15 36.5t26 28t31.5 17.5t31.5 6q23 0 40.5 -9t31.5 -24q13 -16 23.5 -21t24.5 -5q7 0 16 2t17.5 7t16 14t10.5 23q11 -1 22 -1.5t22 -1.5q-4 -20 -15 -36.5t-25.5 -27.5t-31 -17t-31.5 -6q-23 0 -40.5 9t-31.5 23z" />
    <glyph glyph-name="Adieresis" unicode="&#xc4;" horiz-adv-x="740" 
d="M400 515q-1 8 -1.5 16.5t-2.5 16.5q0 -2 -2 -6.5l-4.5 -10l-5 -10.5t-3.5 -6l-23 -42.5l-21.5 -38l-21 -37.5l-22.5 -41h152l-22.5 79.5zM629 0h-83l-39 138.5l-39 138.5h-220l-78 -138.5l-78 -138.5h-83l206.5 366l206.5 366zM467 810q4 23 22 38t38 15q19 0 33 -15
t10 -38q-3 -23 -21 -37.5t-37 -14.5q-20 0 -34 14.5t-11 37.5zM301 810q4 23 22 38t38 15q19 0 33 -15t10 -38q-3 -23 -21 -37.5t-37 -14.5q-20 0 -34 14.5t-11 37.5z" />
    <glyph glyph-name="Aring" unicode="&#xc5;" horiz-adv-x="740" 
d="M407 837q-2 -14 6 -23t22 -9t24.5 9t12.5 23t-6 23.5t-22 9.5t-24.5 -9.5t-12.5 -23.5zM353 838q2 18 11.5 33.5t23 27.5t30 19t34.5 7t32.5 -7t25 -19t15 -27.5t2.5 -33.5q-3 -18 -12 -33.5t-23 -27.5t-30.5 -19t-34.5 -7t-32.5 7t-24.5 19t-15 27.5t-2 33.5zM400 515
q-1 8 -1.5 16.5t-2.5 16.5q0 -2 -2 -6.5l-4.5 -10l-5 -10.5t-3.5 -6l-23 -42.5l-21.5 -38l-21 -37.5l-22.5 -41h152l-22.5 79.5zM629 0h-83l-39 138.5l-39 138.5h-220l-78 -138.5l-78 -138.5h-83l206.5 366l206.5 366z" />
    <glyph glyph-name="AE" unicode="&#xc6;" horiz-adv-x="800" 
d="M369 343l28 205q-21 -52 -51.5 -103l-58.5 -102h82zM10 0l197.5 350l197.5 350h350l-11 -79h-253l-33 -229h214l-11 -79h-214l-33 -234h267l-11 -79h-350l37 264h-115l-74 -132l-75 -132h-83z" />
    <glyph glyph-name="Ccedilla" unicode="&#xc7;" horiz-adv-x="670" 
d="M538 108l36 -66q-41 -22 -84.5 -35t-90.5 -15q-2 -14 1 -22.5t9 -14t12.5 -9t12.5 -7.5q19 -16 24.5 -36t1.5 -45q-3 -21 -12.5 -40.5t-24.5 -34.5t-36 -24t-47 -9q-34 0 -59.5 18.5t-33.5 56.5l24.5 12l24.5 12q3 -16 14.5 -26.5t31.5 -10.5q24 0 39 16t19 40
q3 20 -6.5 31.5t-21 20.5t-21 19t-6.5 27l3 28q-66 7 -120.5 37t-91 77.5t-52.5 109.5t-6 131q10 74 47.5 139.5t93 114t124.5 77t143 28.5q51 0 94.5 -13t81.5 -37l-28 -33.5l-28 -33.5q-28 18 -60.5 28t-70.5 10q-57 0 -110 -22t-95.5 -60.5t-71.5 -89.5t-37 -108
t6.5 -108t46.5 -88.5t78.5 -59.5t103.5 -22q74 0 142 37z" />
    <glyph glyph-name="Egrave" unicode="&#xc8;" horiz-adv-x="601" 
d="M19 0l99 700h431l-11 -79h-348l-33 -229h309l-11 -79h-309l-33 -234h362l-11 -79h-445zM298 883l35.5 -66.5l35.5 -66.5h-59l-47.5 66.5l-47.5 66.5h83z" />
    <glyph glyph-name="Eacute" unicode="&#xc9;" horiz-adv-x="601" 
d="M19 0l99 700h431l-11 -79h-348l-33 -229h309l-11 -79h-309l-33 -234h362l-11 -79h-445zM298 750l54.5 66.5l54.5 66.5h84l-67 -66.5l-67 -66.5h-59z" />
    <glyph glyph-name="Ecircumflex" unicode="&#xca;" horiz-adv-x="601" 
d="M19 0l99 700h431l-11 -79h-348l-33 -229h309l-11 -79h-309l-33 -234h362l-11 -79h-445zM388 931l47.5 -90.5l47.5 -90.5h-59l-51 72l-35.5 -36l-35.5 -36h-59l72.5 90.5z" />
    <glyph glyph-name="Edieresis" unicode="&#xcb;" horiz-adv-x="601" 
d="M19 0l99 700h431l-11 -79h-348l-33 -229h309l-11 -79h-309l-33 -234h362l-11 -79h-445zM393 810q4 23 22 38t38 15q19 0 33 -15t10 -38q-3 -23 -21 -37.5t-37 -14.5q-20 0 -34 14.5t-11 37.5zM227 810q4 23 22 38t38 15q19 0 33 -15t10 -38q-3 -23 -21 -37.5t-37 -14.5
q-20 0 -34 14.5t-11 37.5z" />
    <glyph glyph-name="Igrave" unicode="&#xcc;" horiz-adv-x="236" 
d="M148 700h83l-99 -700h-83zM142 883l35.5 -66.5l35.5 -66.5h-59l-47.5 66.5l-47.5 66.5h83z" />
    <glyph glyph-name="Iacute" unicode="&#xcd;" horiz-adv-x="236" 
d="M148 700h83l-99 -700h-83zM156 750l54.5 66.5l54.5 66.5h84l-67 -66.5l-67 -66.5h-59z" />
    <glyph glyph-name="Icircumflex" unicode="&#xce;" horiz-adv-x="286" 
d="M148 700h83l-99 -700h-83zM229 931l47.5 -90.5l47.5 -90.5h-59l-51 72l-35.5 -36l-35.5 -36h-59l72.5 90.5z" />
    <glyph glyph-name="Idieresis" unicode="&#xcf;" horiz-adv-x="236" 
d="M148 700h83l-99 -700h-83zM221 810q4 23 22 38t38 15q19 0 33 -15t10 -38q-3 -23 -21 -37.5t-37 -14.5q-20 0 -34 14.5t-11 37.5zM55 810q4 23 22 38t38 15q19 0 33 -15t10 -38q-3 -23 -21 -37.5t-37 -14.5q-20 0 -34 14.5t-11 37.5z" />
    <glyph glyph-name="Eth" unicode="&#xd0;" horiz-adv-x="646" 
d="M137 309l-33 -230h75q66 0 124.5 18.5t103.5 53t74.5 85t38.5 114.5q9 62 -7.5 112.5t-52 86t-88 54.5t-116.5 19h-75l-33 -232h181l-11 -81h-181zM65 390l44 310h152q79 0 147 -24.5t115 -70t69 -110.5t11 -145q-9 -63 -39.5 -125.5t-88 -112.5t-144.5 -81t-208 -31
h-113l44 309h-38l11 81h38z" />
    <glyph glyph-name="Ntilde" unicode="&#xd1;" horiz-adv-x="813" 
d="M760 700l-103 -732l-218 272l-218 272q-3 7 -7 13t-8 13q-1 -8 -1 -16t-1 -16l-71 -506h-83l103 732l217 -277.5l217 -277.5q4 -7 8 -13t8 -13v16t1 16l73 517h83zM466 773q-13 16 -24 21t-25 5t-33 -9t-26 -37l-45 3q4 20 15 36.5t26 28t31.5 17.5t31.5 6q23 0 40.5 -9
t31.5 -24q13 -16 23.5 -21t24.5 -5q7 0 16 2t17.5 7t16 14t10.5 23q11 -1 22 -1.5t22 -1.5q-4 -20 -15 -36.5t-25.5 -27.5t-31 -17t-31.5 -6q-23 0 -40.5 9t-31.5 23z" />
    <glyph glyph-name="Ograve" unicode="&#xd2;" horiz-adv-x="839" 
d="M59 349q10 73 47.5 138.5t93 114.5t124.5 77.5t143 28.5q73 0 134.5 -28.5t103.5 -77.5t61 -114.5t9 -138.5q-10 -74 -47.5 -139t-93.5 -113.5t-125.5 -76.5t-142.5 -28q-74 0 -135 28t-102.5 76.5t-60.5 113.5t-9 139zM142 349q-8 -58 6.5 -108.5t46.5 -88t79 -59.5
t104 -22t110 22t95.5 59.5t71.5 88t37 108.5t-6.5 108.5t-46.5 88.5t-78.5 60t-103.5 22t-110.5 -22t-96 -60t-71.5 -88.5t-37 -108.5zM428 883l35.5 -66.5l35.5 -66.5h-59l-47.5 66.5l-47.5 66.5h83z" />
    <glyph glyph-name="Oacute" unicode="&#xd3;" horiz-adv-x="840" 
d="M59 349q10 73 47.5 138.5t93 114.5t124.5 77.5t143 28.5q73 0 134.5 -28.5t103.5 -77.5t61 -114.5t9 -138.5q-10 -74 -47.5 -139t-93.5 -113.5t-125.5 -76.5t-142.5 -28q-74 0 -135 28t-102.5 76.5t-60.5 113.5t-9 139zM142 349q-8 -58 6.5 -108.5t46.5 -88t79 -59.5
t104 -22t110 22t95.5 59.5t71.5 88t37 108.5t-6.5 108.5t-46.5 88.5t-78.5 60t-103.5 22t-110.5 -22t-96 -60t-71.5 -88.5t-37 -108.5zM447 750l54.5 66.5l54.5 66.5h84l-67 -66.5l-67 -66.5h-59z" />
    <glyph glyph-name="Ocircumflex" unicode="&#xd4;" horiz-adv-x="839" 
d="M59 349q10 73 47.5 138.5t93 114.5t124.5 77.5t143 28.5q73 0 134.5 -28.5t103.5 -77.5t61 -114.5t9 -138.5q-10 -74 -47.5 -139t-93.5 -113.5t-125.5 -76.5t-142.5 -28q-74 0 -135 28t-102.5 76.5t-60.5 113.5t-9 139zM142 349q-8 -58 6.5 -108.5t46.5 -88t79 -59.5
t104 -22t110 22t95.5 59.5t71.5 88t37 108.5t-6.5 108.5t-46.5 88.5t-78.5 60t-103.5 22t-110.5 -22t-96 -60t-71.5 -88.5t-37 -108.5zM503 931l47.5 -90.5l47.5 -90.5h-59l-51 72l-35.5 -36l-35.5 -36h-59l72.5 90.5z" />
    <glyph glyph-name="Otilde" unicode="&#xd5;" horiz-adv-x="839" 
d="M59 349q10 73 47.5 138.5t93 114.5t124.5 77.5t143 28.5q73 0 134.5 -28.5t103.5 -77.5t61 -114.5t9 -138.5q-10 -74 -47.5 -139t-93.5 -113.5t-125.5 -76.5t-142.5 -28q-74 0 -135 28t-102.5 76.5t-60.5 113.5t-9 139zM142 349q-8 -58 6.5 -108.5t46.5 -88t79 -59.5
t104 -22t110 22t95.5 59.5t71.5 88t37 108.5t-6.5 108.5t-46.5 88.5t-78.5 60t-103.5 22t-110.5 -22t-96 -60t-71.5 -88.5t-37 -108.5zM460 808q-13 16 -24 21t-25 5t-33 -9t-26 -37l-45 3q4 20 15 36.5t26 28t31.5 17.5t31.5 6q23 0 40.5 -9t31.5 -24q13 -16 23.5 -21
t24.5 -5q7 0 16 2t17.5 7t16 14t10.5 23q11 -1 22 -1.5t22 -1.5q-4 -20 -15 -36.5t-25.5 -27.5t-31 -17t-31.5 -6q-23 0 -40.5 9t-31.5 23z" />
    <glyph glyph-name="Odieresis" unicode="&#xd6;" horiz-adv-x="839" 
d="M59 349q10 73 47.5 138.5t93 114.5t124.5 77.5t143 28.5q73 0 134.5 -28.5t103.5 -77.5t61 -114.5t9 -138.5q-10 -74 -47.5 -139t-93.5 -113.5t-125.5 -76.5t-142.5 -28q-74 0 -135 28t-102.5 76.5t-60.5 113.5t-9 139zM142 349q-8 -58 6.5 -108.5t46.5 -88t79 -59.5
t104 -22t110 22t95.5 59.5t71.5 88t37 108.5t-6.5 108.5t-46.5 88.5t-78.5 60t-103.5 22t-110.5 -22t-96 -60t-71.5 -88.5t-37 -108.5zM502 810q4 23 22 38t38 15q19 0 33 -15t10 -38q-3 -23 -21 -37.5t-37 -14.5q-20 0 -34 14.5t-11 37.5zM336 810q4 23 22 38t38 15
q19 0 33 -15t10 -38q-3 -23 -21 -37.5t-37 -14.5q-20 0 -34 14.5t-11 37.5z" />
    <glyph glyph-name="multiply" unicode="&#xd7;" horiz-adv-x="500" 
d="M341 0l-42 49l-43 49l-55 -48.5l-55 -48.5l-25.5 28.5l-24.5 28.5l55.5 49l55.5 49l-85 99l68 59l85 -99l55.5 49l55.5 49q13 -14 25 -29l24 -29l-55 -48.5l-55 -48.5l41.5 -49.5l42.5 -49.5z" />
    <glyph glyph-name="Oslash" unicode="&#xd8;" horiz-adv-x="840" 
d="M144 349q-8 -53 3.5 -99.5t38.5 -83.5l416 416q-30 22 -66 34.5t-78 12.5q-57 0 -110 -22t-95.5 -60.5t-71.5 -89.5t-37 -108zM379 71q57 0 110 22t96 59.5t72 88.5t37 108q8 52 -4 98.5t-38 83.5l-207.5 -208l-207.5 -208q29 -21 64.5 -32.5t77.5 -11.5zM61 349
q10 74 47.5 139.5t93 114t124.5 77t143 28.5q57 0 106 -17t89 -47l37 37.5l37 37.5l51 -51q-18 -19 -37 -37t-37 -37q38 -48 55 -111t7 -134q-10 -74 -47.5 -139t-93 -113.5t-125 -76.5t-143.5 -28q-57 0 -105.5 16t-86.5 45l-35.5 -35l-34.5 -35l-51 51l34 34.5l35 34.5
q-38 48 -55.5 111t-7.5 135z" />
    <glyph glyph-name="Ugrave" unicode="&#xd9;" horiz-adv-x="652" 
d="M278 -8q-54 0 -98 15t-73.5 44.5t-42.5 73.5t-5 101l66 474h83l-66 -471q-5 -38 3.5 -67.5t28 -49.5t49 -30.5t66.5 -10.5q74 0 127.5 40.5t64.5 117.5l66 471h83l-66 -474q-8 -57 -33.5 -101t-64 -73.5t-86.5 -44.5t-102 -15zM329 883l35.5 -66.5l35.5 -66.5h-59
l-47.5 66.5l-47.5 66.5h83z" />
    <glyph glyph-name="Uacute" unicode="&#xda;" horiz-adv-x="652" 
d="M278 -8q-54 0 -98 15t-73.5 44.5t-42.5 73.5t-5 101l66 474h83l-66 -471q-5 -38 3.5 -67.5t28 -49.5t49 -30.5t66.5 -10.5q74 0 127.5 40.5t64.5 117.5l66 471h83l-66 -474q-8 -57 -33.5 -101t-64 -73.5t-86.5 -44.5t-102 -15zM352 750l54.5 66.5l54.5 66.5h84l-67 -66.5
l-67 -66.5h-59z" />
    <glyph glyph-name="Ucircumflex" unicode="&#xdb;" horiz-adv-x="652" 
d="M278 -8q-54 0 -98 15t-73.5 44.5t-42.5 73.5t-5 101l66 474h83l-66 -471q-5 -38 3.5 -67.5t28 -49.5t49 -30.5t66.5 -10.5q74 0 127.5 40.5t64.5 117.5l66 471h83l-66 -474q-8 -57 -33.5 -101t-64 -73.5t-86.5 -44.5t-102 -15zM411 932l47.5 -90.5l47.5 -90.5h-59l-51 72
l-35.5 -36l-35.5 -36h-59l72.5 90.5z" />
    <glyph glyph-name="Udieresis" unicode="&#xdc;" horiz-adv-x="652" 
d="M278 -8q-54 0 -98 15t-73.5 44.5t-42.5 73.5t-5 101l66 474h83l-66 -471q-5 -38 3.5 -67.5t28 -49.5t49 -30.5t66.5 -10.5q74 0 127.5 40.5t64.5 117.5l66 471h83l-66 -474q-8 -57 -33.5 -101t-64 -73.5t-86.5 -44.5t-102 -15zM427 810q4 23 22 38t38 15q19 0 33 -15
t10 -38q-3 -23 -21 -37.5t-37 -14.5q-20 0 -34 14.5t-11 37.5zM261 810q4 23 22 38t38 15q19 0 33 -15t10 -38q-3 -23 -21 -37.5t-37 -14.5q-20 0 -34 14.5t-11 37.5z" />
    <glyph glyph-name="Yacute" unicode="&#xdd;" horiz-adv-x="638" 
d="M357 269l-38 -269h-102l38 270l-97 215l-97 215h102l73 -161.5l73 -161.5q2 -8 3.5 -15.5t3.5 -15.5h1l8 15.5l8 15.5l118.5 161.5l118.5 161.5h102l-158 -215.5zM341 750l54.5 66.5l54.5 66.5h84l-67 -66.5l-67 -66.5h-59z" />
    <glyph glyph-name="Thorn" unicode="&#xde;" horiz-adv-x="501" 
d="M165 227h87q44 0 74.5 11.5t50 28.5t29 38t12.5 40q3 22 -5.5 42.5t-26 36t-43.5 24.5t-57 9h-88zM133 0h-83l99 700h83l-23 -165h82q34 0 74 -10.5t72.5 -33.5t51.5 -59t12 -87q-13 -91 -74.5 -144.5t-163.5 -53.5h-109z" />
    <glyph glyph-name="germandbls" unicode="&#xdf;" horiz-adv-x="573" 
d="M152 9q11 19 22.5 37t22.5 37q24 -11 50 -11q28 0 54 11t47.5 29.5t35.5 43t18 52.5t-3.5 52.5t-23.5 42.5t-39.5 28.5t-51.5 10.5h-1q2 10 2.5 19.5t2.5 20.5l5 41q34 0 60 19.5t31 54.5q2 16 -1.5 30.5t-12.5 25.5t-22 17t-29 6q-57 -3 -98.5 -43.5t-51.5 -114.5
l-59 -418h-83l47 334h-64l11 81h64l1 8q8 54 31.5 97.5t56.5 74t73.5 46.5t81.5 16q33 0 60.5 -12.5t46 -34.5t27 -51t4.5 -62q-5 -32 -20.5 -59.5t-38.5 -47.5q42 -29 63.5 -76.5t13.5 -105.5q-6 -45 -29 -84.5t-57 -69t-76 -46.5t-87 -17q-47 0 -84 18z" />
    <glyph glyph-name="agrave" unicode="&#xe0;" horiz-adv-x="551" 
d="M159 188q-7 -49 21 -82.5t80 -33.5q26 0 48.5 9t40.5 24.5t29.5 37t14.5 45.5q7 50 -21 82.5t-80 32.5q-26 0 -48.5 -8.5t-40.5 -24t-29.5 -36.5t-14.5 -46zM75 187q6 43 26 79t51 62t70 41t81 15q27 0 49 -8t37.5 -17.5t24.5 -18.5t9 -12q2 11 5 23t5 24h69l-52 -375
h-73l4 32q0 2 0.5 4.5t0.5 4.5q-1 -3 -10.5 -11t-27 -16.5t-42 -15.5t-54.5 -7q-42 0 -76.5 15.5t-58 42.5t-34 62.5t-4.5 75.5zM269 612l35.5 -66.5l35.5 -66.5h-59l-47.5 66.5l-47.5 66.5h83z" />
    <glyph glyph-name="aacute" unicode="&#xe1;" horiz-adv-x="551" 
d="M159 188q-7 -49 21 -82.5t80 -33.5q26 0 48.5 9t40.5 24.5t29.5 37t14.5 45.5q7 50 -21 82.5t-80 32.5q-26 0 -48.5 -8.5t-40.5 -24t-29.5 -36.5t-14.5 -46zM75 187q6 43 26 79t51 62t70 41t81 15q27 0 49 -8t37.5 -17.5t24.5 -18.5t9 -12q2 11 5 23t5 24h69l-52 -375
h-73l4 32q0 2 0.5 4.5t0.5 4.5q-1 -3 -10.5 -11t-27 -16.5t-42 -15.5t-54.5 -7q-42 0 -76.5 15.5t-58 42.5t-34 62.5t-4.5 75.5zM299 479l54.5 66.5l54.5 66.5h84l-67 -66.5l-67 -66.5h-59z" />
    <glyph glyph-name="acircumflex" unicode="&#xe2;" horiz-adv-x="551" 
d="M159 188q-7 -49 21 -82.5t80 -33.5q26 0 48.5 9t40.5 24.5t29.5 37t14.5 45.5q7 50 -21 82.5t-80 32.5q-26 0 -48.5 -8.5t-40.5 -24t-29.5 -36.5t-14.5 -46zM75 187q6 43 26 79t51 62t70 41t81 15q27 0 49 -8t37.5 -17.5t24.5 -18.5t9 -12q2 11 5 23t5 24h69l-52 -375
h-73l4 32q0 2 0.5 4.5t0.5 4.5q-1 -3 -10.5 -11t-27 -16.5t-42 -15.5t-54.5 -7q-42 0 -76.5 15.5t-58 42.5t-34 62.5t-4.5 75.5zM350 660l47.5 -90.5l47.5 -90.5h-59l-51 72l-35.5 -36l-35.5 -36h-59l72.5 90.5z" />
    <glyph glyph-name="atilde" unicode="&#xe3;" horiz-adv-x="551" 
d="M159 188q-7 -49 21 -82.5t80 -33.5q26 0 48.5 9t40.5 24.5t29.5 37t14.5 45.5q7 50 -21 82.5t-80 32.5q-26 0 -48.5 -8.5t-40.5 -24t-29.5 -36.5t-14.5 -46zM75 187q6 43 26 79t51 62t70 41t81 15q27 0 49 -8t37.5 -17.5t24.5 -18.5t9 -12q2 11 5 23t5 24h69l-52 -375
h-73l4 32q0 2 0.5 4.5t0.5 4.5q-1 -3 -10.5 -11t-27 -16.5t-42 -15.5t-54.5 -7q-42 0 -76.5 15.5t-58 42.5t-34 62.5t-4.5 75.5zM314 481q-13 16 -24 21t-25 5t-33 -9t-26 -37l-45 3q4 20 15 36.5t26 28t31.5 17.5t31.5 6q23 0 40.5 -9t31.5 -24q13 -16 23.5 -21t24.5 -5
q7 0 16 2t17.5 7t16 14t10.5 23q11 -1 22 -1.5t22 -1.5q-4 -20 -15 -36.5t-25.5 -27.5t-31 -17t-31.5 -6q-23 0 -40.5 9t-31.5 23z" />
    <glyph glyph-name="adieresis" unicode="&#xe4;" horiz-adv-x="551" 
d="M159 188q-7 -49 21 -82.5t80 -33.5q26 0 48.5 9t40.5 24.5t29.5 37t14.5 45.5q7 50 -21 82.5t-80 32.5q-26 0 -48.5 -8.5t-40.5 -24t-29.5 -36.5t-14.5 -46zM75 187q6 43 26 79t51 62t70 41t81 15q27 0 49 -8t37.5 -17.5t24.5 -18.5t9 -12q2 11 5 23t5 24h69l-52 -375
h-73l4 32q0 2 0.5 4.5t0.5 4.5q-1 -3 -10.5 -11t-27 -16.5t-42 -15.5t-54.5 -7q-42 0 -76.5 15.5t-58 42.5t-34 62.5t-4.5 75.5zM356 520q4 23 22 38t38 15q19 0 33 -15t10 -38q-3 -23 -21 -37.5t-37 -14.5q-20 0 -34 14.5t-11 37.5zM190 520q4 23 22 38t38 15q19 0 33 -15
t10 -38q-3 -23 -21 -37.5t-37 -14.5q-20 0 -34 14.5t-11 37.5z" />
    <glyph glyph-name="aring" unicode="&#xe5;" horiz-adv-x="551" 
d="M293 539q-2 -14 6 -23t22 -9t24.5 9t12.5 23t-6 23.5t-22 9.5t-24.5 -9.5t-12.5 -23.5zM238 540q3 18 12 33.5t23 27.5t30.5 19t34.5 7t32.5 -7t24.5 -19t15 -27.5t2 -33.5q-2 -18 -11.5 -33.5t-23 -27.5t-30 -19t-34.5 -7t-32.5 7t-25 19t-15 27.5t-2.5 33.5zM159 188
q-7 -49 21 -82.5t80 -33.5q26 0 48.5 9t40.5 24.5t29.5 37t14.5 45.5q7 50 -21 82.5t-80 32.5q-26 0 -48.5 -8.5t-40.5 -24t-29.5 -36.5t-14.5 -46zM75 187q6 43 26 79t51 62t70 41t81 15q27 0 49 -8t37.5 -17.5t24.5 -18.5t9 -12q2 11 5 23t5 24h69l-52 -375h-73l4 32
q0 2 0.5 4.5t0.5 4.5q-1 -3 -10.5 -11t-27 -16.5t-42 -15.5t-54.5 -7q-42 0 -76.5 15.5t-58 42.5t-34 62.5t-4.5 75.5z" />
    <glyph glyph-name="ae" unicode="&#xe6;" horiz-adv-x="629" 
d="M367 244l-3 -22l63 22l63 22q-11 17 -27 27.5t-37 10.5q-30 0 -55 -11q0 -11 -1 -23t-3 -26zM268 136h-56q-14 0 -30.5 -1t-31 -4t-24.5 -8.5t-11 -14.5q-2 -11 4 -17.5t16 -10.5t23 -5.5t27 -1.5q11 0 24 0.5t24.5 3.5t20 10.5t10.5 22.5zM114 276l-18.5 26.5
l-18.5 26.5q13 11 31.5 21.5t39.5 18t43 12t41 4.5q78 0 109 -22q47 22 96 22q31 0 57.5 -12.5t46.5 -34.5t32.5 -52.5t16.5 -66.5l-119 -42l-119 -42l-1 -4q-3 -24 -11 -47q21 -11 53 -11q23 0 43.5 8.5t37.5 23.5l42 -60q-28 -25 -62 -39t-72 -14q-53 0 -95 25
q-40 -25 -112 -25q-36 0 -64.5 5.5t-47.5 19.5t-27.5 37t-3.5 58q4 31 19.5 52.5t37 34t48.5 18t54 5.5h89l4 24q4 29 -7 43.5t-57 14.5q-26 0 -57.5 -8.5t-48.5 -19.5z" />
    <glyph glyph-name="ccedilla" unicode="&#xe7;" horiz-adv-x="395" 
d="M315 97q11 -16 20.5 -31.5t20.5 -31.5q-29 -20 -62.5 -31.5t-69.5 -11.5q-2 -14 1.5 -22t9 -13.5t12 -9t12.5 -7.5q19 -16 24.5 -36t1.5 -45q-5 -34 -26 -62.5t-56 -39.5q-18 -6 -38 -6q-34 0 -60 18.5t-34 56.5l25.5 12l24.5 12q3 -16 14.5 -26.5t31.5 -10.5q24 0 39 16
t19 40q3 20 -6.5 31.5t-21 20.5t-21 19t-7.5 27l5 32q-31 8 -55.5 26t-41 43t-23 56t-1.5 65q6 40 26.5 76t51 62.5t69 42t80.5 15.5q37 0 67.5 -11.5t53.5 -31.5l-30.5 -31l-30.5 -31q-29 24 -71 24q-26 0 -48.5 -8.5t-40.5 -24t-29.5 -36.5t-14.5 -46q-4 -24 1.5 -45.5
t19 -37t33.5 -24.5t46 -9q43 0 79 25z" />
    <glyph glyph-name="egrave" unicode="&#xe8;" horiz-adv-x="451" 
d="M278 303q-40 0 -71.5 -20t-48.5 -52q-5 -8 -7.5 -17t-4.5 -18l98.5 34.5l98.5 34.5q-11 17 -27.5 27.5t-37.5 10.5zM442 218l-142 -50l-143 -50q12 -21 35 -33.5t54 -12.5q23 0 43 8.5t37 23.5l21.5 -30l21.5 -30q-29 -25 -63 -39t-72 -14q-42 0 -76 15.5t-57.5 42.5
t-34 62.5t-4.5 76.5q6 46 26 82.5t50.5 61.5t69 38.5t81.5 13.5q31 0 57.5 -12.5t46.5 -34.5t32.5 -52.5t16.5 -66.5zM238 612l35.5 -66.5l35.5 -66.5h-59l-47.5 66.5l-47.5 66.5h83z" />
    <glyph glyph-name="eacute" unicode="&#xe9;" horiz-adv-x="451" 
d="M278 303q-40 0 -71.5 -20t-48.5 -52q-5 -8 -7.5 -17t-4.5 -18l98.5 34.5l98.5 34.5q-11 17 -27.5 27.5t-37.5 10.5zM442 218l-142 -50l-143 -50q12 -21 35 -33.5t54 -12.5q23 0 43 8.5t37 23.5l21.5 -30l21.5 -30q-29 -25 -63 -39t-72 -14q-42 0 -76 15.5t-57.5 42.5
t-34 62.5t-4.5 76.5q6 46 26 82.5t50.5 61.5t69 38.5t81.5 13.5q31 0 57.5 -12.5t46.5 -34.5t32.5 -52.5t16.5 -66.5zM263 479l54.5 66.5l54.5 66.5h84l-67 -66.5l-67 -66.5h-59z" />
    <glyph glyph-name="ecircumflex" unicode="&#xea;" horiz-adv-x="451" 
d="M278 303q-40 0 -71.5 -20t-48.5 -52q-5 -8 -7.5 -17t-4.5 -18l98.5 34.5l98.5 34.5q-11 17 -27.5 27.5t-37.5 10.5zM442 218l-142 -50l-143 -50q12 -21 35 -33.5t54 -12.5q23 0 43 8.5t37 23.5l21.5 -30l21.5 -30q-29 -25 -63 -39t-72 -14q-42 0 -76 15.5t-57.5 42.5
t-34 62.5t-4.5 76.5q6 46 26 82.5t50.5 61.5t69 38.5t81.5 13.5q31 0 57.5 -12.5t46.5 -34.5t32.5 -52.5t16.5 -66.5zM324 660l47.5 -90.5l47.5 -90.5h-59l-51 72l-35.5 -36l-35.5 -36h-59l72.5 90.5z" />
    <glyph glyph-name="edieresis" unicode="&#xeb;" horiz-adv-x="451" 
d="M278 303q-40 0 -71.5 -20t-48.5 -52q-5 -8 -7.5 -17t-4.5 -18l98.5 34.5l98.5 34.5q-11 17 -27.5 27.5t-37.5 10.5zM442 218l-142 -50l-143 -50q12 -21 35 -33.5t54 -12.5q23 0 43 8.5t37 23.5l21.5 -30l21.5 -30q-29 -25 -63 -39t-72 -14q-42 0 -76 15.5t-57.5 42.5
t-34 62.5t-4.5 76.5q6 46 26 82.5t50.5 61.5t69 38.5t81.5 13.5q31 0 57.5 -12.5t46.5 -34.5t32.5 -52.5t16.5 -66.5zM325 520q4 23 22 38t38 15q19 0 33 -15t10 -38q-3 -23 -21 -37.5t-37 -14.5q-20 0 -34 14.5t-11 37.5zM159 520q4 23 22 38t38 15q19 0 33 -15t10 -38
q-3 -23 -21 -37.5t-37 -14.5q-20 0 -34 14.5t-11 37.5z" />
    <glyph glyph-name="igrave" unicode="&#xec;" horiz-adv-x="174" 
d="M141 0h-83l52 375h83zM118 612l35.5 -66.5l35.5 -66.5h-59l-47.5 66.5l-47.5 66.5h83z" />
    <glyph glyph-name="iacute" unicode="&#xed;" horiz-adv-x="194" 
d="M141 0h-83l52 375h83zM137 479l54.5 66.5l54.5 66.5h84l-67 -66.5l-67 -66.5h-59z" />
    <glyph glyph-name="icircumflex" unicode="&#xee;" horiz-adv-x="239" 
d="M158 0h-83l52 375h83zM201 660l47.5 -90.5l47.5 -90.5h-59l-51 72l-35.5 -36l-35.5 -36h-59l72.5 90.5z" />
    <glyph glyph-name="idieresis" unicode="&#xef;" horiz-adv-x="271" 
d="M182 0h-83l52 375h83zM236 520q4 23 22 38t38 15q19 0 33 -15t10 -38q-3 -23 -21 -37.5t-37 -14.5q-20 0 -34 14.5t-11 37.5zM70 520q4 23 22 38t38 15q19 0 33 -15t10 -38q-3 -23 -21 -37.5t-37 -14.5q-20 0 -34 14.5t-11 37.5z" />
    <glyph glyph-name="eth" unicode="&#xf0;" horiz-adv-x="493" 
d="M111 188q-3 -25 3 -46t20 -36t34.5 -23.5t46.5 -7.5t48.5 10.5t40 25.5t28.5 37.5t14 45.5q4 50 -24.5 81.5t-80.5 30.5q-53 -2 -89 -35t-41 -83zM154 531l32.5 30l31.5 30q-35 50 -79 92l34.5 27.5l34.5 27.5q41 -35 78 -83l26.5 25l25.5 25l26 -25.5t25 -25.5
l-31 -29.5l-31 -29.5q25 -41 46.5 -90t36 -101t20.5 -105t-1 -102q-4 -41 -23 -77t-48 -63.5t-67 -44.5t-80 -18t-76.5 13.5t-59 40.5t-36.5 61t-8 76q4 40 24 76.5t50.5 63.5t69 43.5t80.5 17.5q32 1 62 -8q-7 40 -22 77.5t-36 72.5q-13 -13 -27 -25l-28 -25
q-12 14 -25 26.5t-25 26.5z" />
    <glyph glyph-name="ntilde" unicode="&#xf1;" horiz-adv-x="523" 
d="M134 375h73l-1 -9q-2 -24 -2.5 -43.5t-2.5 -43.5q27 48 75 76.5t102 28.5q59 0 89 -31t25 -81l-38 -272h-83l32 234q2 27 -12.5 46.5t-52.5 21.5q-26 0 -51 -9t-45 -25t-34 -38t-18 -48l-25 -182h-83zM338 475q-13 16 -24 21t-25 5t-33 -9t-26 -37l-45 3q4 20 15 36.5
t26 28t31.5 17.5t31.5 6q23 0 40.5 -9t31.5 -24q13 -16 23.5 -21t24.5 -5q7 0 16 2t17.5 7t16 14t10.5 23q11 -1 22 -1.5t22 -1.5q-4 -20 -15 -36.5t-25.5 -27.5t-31 -17t-31.5 -6q-23 0 -40.5 9t-31.5 23z" />
    <glyph glyph-name="ograve" unicode="&#xf2;" 
d="M62 188q6 47 26.5 83.5t51 61.5t69 38t80.5 13t77 -15.5t58 -42t34 -62.5t5 -76q-6 -44 -26.5 -80t-51.5 -62t-70 -40.5t-81 -14.5t-76 15.5t-57.5 42.5t-34 62.5t-4.5 76.5zM145 187q-3 -24 3 -45t19.5 -36.5t33 -24.5t43.5 -9t46.5 9t40.5 24.5t30 36.5t15 45t-3 45
t-19.5 37t-33.5 25t-44 9t-46 -9t-40 -25t-30 -37t-15 -45zM254 612l35.5 -66.5l35.5 -66.5h-59l-47.5 66.5l-47.5 66.5h83z" />
    <glyph glyph-name="oacute" unicode="&#xf3;" 
d="M62 188q6 47 26.5 83.5t51 61.5t69 38t80.5 13t77 -15.5t58 -42t34 -62.5t5 -76q-6 -44 -26.5 -80t-51.5 -62t-70 -40.5t-81 -14.5t-76 15.5t-57.5 42.5t-34 62.5t-4.5 76.5zM145 187q-3 -24 3 -45t19.5 -36.5t33 -24.5t43.5 -9t46.5 9t40.5 24.5t30 36.5t15 45t-3 45
t-19.5 37t-33.5 25t-44 9t-46 -9t-40 -25t-30 -37t-15 -45zM294 479l54.5 66.5l54.5 66.5h84l-67 -66.5l-67 -66.5h-59z" />
    <glyph glyph-name="ocircumflex" unicode="&#xf4;" 
d="M62 188q6 47 26.5 83.5t51 61.5t69 38t80.5 13t77 -15.5t58 -42t34 -62.5t5 -76q-6 -44 -26.5 -80t-51.5 -62t-70 -40.5t-81 -14.5t-76 15.5t-57.5 42.5t-34 62.5t-4.5 76.5zM145 187q-3 -24 3 -45t19.5 -36.5t33 -24.5t43.5 -9t46.5 9t40.5 24.5t30 36.5t15 45t-3 45
t-19.5 37t-33.5 25t-44 9t-46 -9t-40 -25t-30 -37t-15 -45zM319 660l47.5 -90.5l47.5 -90.5h-59l-51 72l-35.5 -36l-35.5 -36h-59l72.5 90.5z" />
    <glyph glyph-name="otilde" unicode="&#xf5;" 
d="M62 188q6 47 26.5 83.5t51 61.5t69 38t80.5 13t77 -15.5t58 -42t34 -62.5t5 -76q-6 -44 -26.5 -80t-51.5 -62t-70 -40.5t-81 -14.5t-76 15.5t-57.5 42.5t-34 62.5t-4.5 76.5zM145 187q-3 -24 3 -45t19.5 -36.5t33 -24.5t43.5 -9t46.5 9t40.5 24.5t30 36.5t15 45t-3 45
t-19.5 37t-33.5 25t-44 9t-46 -9t-40 -25t-30 -37t-15 -45zM283 481q-13 16 -24 21t-25 5t-33 -9t-26 -37l-45 3q4 20 15 36.5t26 28t31.5 17.5t31.5 6q23 0 40.5 -9t31.5 -24q13 -16 23.5 -21t24.5 -5q7 0 16 2t17.5 7t16 14t10.5 23q11 -1 22 -1.5t22 -1.5
q-4 -20 -15 -36.5t-25.5 -27.5t-31 -17t-31.5 -6q-23 0 -40.5 9t-31.5 23z" />
    <glyph glyph-name="odieresis" unicode="&#xf6;" 
d="M62 188q6 47 26.5 83.5t51 61.5t69 38t80.5 13t77 -15.5t58 -42t34 -62.5t5 -76q-6 -44 -26.5 -80t-51.5 -62t-70 -40.5t-81 -14.5t-76 15.5t-57.5 42.5t-34 62.5t-4.5 76.5zM145 187q-3 -24 3 -45t19.5 -36.5t33 -24.5t43.5 -9t46.5 9t40.5 24.5t30 36.5t15 45t-3 45
t-19.5 37t-33.5 25t-44 9t-46 -9t-40 -25t-30 -37t-15 -45zM325 520q4 23 22 38t38 15q19 0 33 -15t10 -38q-3 -23 -21 -37.5t-37 -14.5q-20 0 -34 14.5t-11 37.5zM159 520q4 23 22 38t38 15q19 0 33 -15t10 -38q-3 -23 -21 -37.5t-37 -14.5q-20 0 -34 14.5t-11 37.5z" />
    <glyph glyph-name="divide" unicode="&#xf7;" horiz-adv-x="501" 
d="M422 206h-360l11 81h360zM216 373q3 23 21 38t38 15q19 0 33 -15t11 -38t-21 -37.5t-37 -14.5q-20 0 -34 14.5t-11 37.5zM181 123q3 23 21 38t38 15q19 0 33 -15t11 -38t-21 -37.5t-37 -14.5q-20 0 -34 14.5t-11 37.5z" />
    <glyph glyph-name="oslash" unicode="&#xf8;" 
d="M119 188q-6 -35 8 -63l170 170q-22 8 -45 8q-26 0 -48.5 -8.5t-40.5 -24t-29.5 -36.5t-14.5 -46zM219 72q26 0 48.5 9t40.5 24.5t29.5 37t15.5 45.5q5 41 -13 71l-88 -87l-87 -87q24 -13 54 -13zM36 188q6 40 26.5 76t51 62.5t69 42t80.5 15.5q56 0 96 -26l22 21.5
l22 21.5l19.5 -20l19.5 -20l-40 -40q21 -26 30.5 -60.5t4.5 -72.5q-6 -41 -26.5 -76.5t-51.5 -62.5t-70 -42.5t-81 -15.5q-31 0 -57 8.5t-48 23.5l-24 -24.5t-25 -24.5q-10 10 -20 19t-20 19q12 13 24.5 25l25.5 25q-18 26 -25.5 58t-2.5 68z" />
    <glyph glyph-name="ugrave" unicode="&#xf9;" horiz-adv-x="529" 
d="M452 -9h-83l9 60l9 45q-27 -48 -75.5 -76.5t-102.5 -28.5q-59 0 -88.5 31t-24.5 81l38 272h83l-33 -234q-2 -27 13 -46.5t53 -21.5q26 0 51 9t45 25t34 38t18 48l25 182h83zM277 612l35.5 -66.5l35.5 -66.5h-59l-47.5 66.5l-47.5 66.5h83z" />
    <glyph glyph-name="uacute" unicode="&#xfa;" horiz-adv-x="529" 
d="M452 -9h-83l9 60l9 45q-27 -48 -75.5 -76.5t-102.5 -28.5q-59 0 -88.5 31t-24.5 81l38 272h83l-33 -234q-2 -27 13 -46.5t53 -21.5q26 0 51 9t45 25t34 38t18 48l25 182h83zM294 479l54.5 66.5l54.5 66.5h84l-67 -66.5l-67 -66.5h-59z" />
    <glyph glyph-name="ucircumflex" unicode="&#xfb;" horiz-adv-x="529" 
d="M452 -9h-83l9 60l9 45q-27 -48 -75.5 -76.5t-102.5 -28.5q-59 0 -88.5 31t-24.5 81l38 272h83l-33 -234q-2 -27 13 -46.5t53 -21.5q26 0 51 9t45 25t34 38t18 48l25 182h83zM350 660l47.5 -90.5l47.5 -90.5h-59l-51 72l-35.5 -36l-35.5 -36h-59l72.5 90.5z" />
    <glyph glyph-name="udieresis" unicode="&#xfc;" horiz-adv-x="529" 
d="M452 -9h-83l9 60l9 45q-27 -48 -75.5 -76.5t-102.5 -28.5q-59 0 -88.5 31t-24.5 81l38 272h83l-33 -234q-2 -27 13 -46.5t53 -21.5q26 0 51 9t45 25t34 38t18 48l25 182h83zM360 520q4 23 22 38t38 15q19 0 33 -15t10 -38q-3 -23 -21 -37.5t-37 -14.5q-20 0 -34 14.5
t-11 37.5zM194 520q4 23 22 38t38 15q19 0 33 -15t10 -38q-3 -23 -21 -37.5t-37 -14.5q-20 0 -34 14.5t-11 37.5z" />
    <glyph glyph-name="yacute" unicode="&#xfd;" horiz-adv-x="488" 
d="M136 -250h-83l81 125l81 125l-68.5 187.5l-68.5 187.5h83q-1 1 3.5 -11.5l12 -33.5l17 -48.5l19.5 -55.5l54 -152q0 -1 14 22l35.5 57l46 73.5l46 73l35 55.5t12.5 20h83l-201 -312.5zM294 479l54.5 66.5l54.5 66.5h84l-67 -66.5l-67 -66.5h-59z" />
    <glyph glyph-name="thorn" unicode="&#xfe;" horiz-adv-x="557" 
d="M375 188q7 50 -21 82.5t-80 32.5q-26 0 -48.5 -8.5t-40.5 -24t-29.5 -36.5t-14.5 -46q-7 -49 20.5 -82.5t79.5 -33.5q26 0 49 9t40.5 24.5t29.5 37t15 45.5zM459 187q-6 -40 -26.5 -75.5t-51.5 -62.5t-70 -42.5t-81 -15.5q-30 0 -52.5 7t-37.5 15.5t-22.5 16.5t-7.5 11
q2 -5 3.5 -11t3.5 -11l-38 -269h-82l140 1000h83l-55 -390q-4 -8 -7.5 -16t-7.5 -16q1 3 12 11.5t29.5 18t42.5 17t51 7.5q42 0 76.5 -15.5t58 -42.5t34 -62.5t5.5 -74.5z" />
    <glyph glyph-name="ydieresis" unicode="&#xff;" horiz-adv-x="488" 
d="M136 -250h-83l81 125l81 125l-68.5 187.5l-68.5 187.5h83q-1 1 3.5 -11.5l12 -33.5l17 -48.5l19.5 -55.5l54 -152q0 -1 14 22l35.5 57l46 73.5l46 73l35 55.5t12.5 20h83l-201 -312.5zM356 520q4 23 22 38t38 15q19 0 33 -15t10 -38q-3 -23 -21 -37.5t-37 -14.5
q-20 0 -34 14.5t-11 37.5zM190 520q4 23 22 38t38 15q19 0 33 -15t10 -38q-3 -23 -21 -37.5t-37 -14.5q-20 0 -34 14.5t-11 37.5z" />
    <glyph glyph-name="endash" unicode="&#x2013;" horiz-adv-x="509" 
d="M94 174l11 81h301l-11 -81h-301z" />
    <glyph glyph-name="emdash" unicode="&#x2014;" horiz-adv-x="700" 
d="M93 174l11 81h502l-11 -81h-502z" />
    <glyph glyph-name="quoteleft" unicode="&#x2018;" horiz-adv-x="164" 
d="M109 590l-45 -24q-23 28 -30 65.5t7 79.5q12 -2 25 -3.5t26 -3.5q-12 -35 -7 -64.5t24 -49.5z" />
    <glyph glyph-name="quoteright" unicode="&#x2019;" horiz-adv-x="164" 
d="M65 566q-10 6 -18.5 12t-18.5 12q23 20 37 49.5t12 64.5q13 2 26 3.5t27 3.5q2 -42 -15.5 -79.5t-49.5 -65.5z" />
    <glyph glyph-name="quotesinglbase" unicode="&#x201a;" horiz-adv-x="146" 
d="M49 -53q-10 6 -18.5 12t-18.5 12q23 20 37 49.5t12 64.5q13 2 26 3.5t27 3.5q2 -42 -15.5 -79.5t-49.5 -65.5z" />
    <glyph glyph-name="quotedblleft" unicode="&#x201c;" horiz-adv-x="249" 
d="M213 590l-45 -24q-23 28 -30 65.5t7 79.5q12 -2 25 -3.5t26 -3.5q-12 -35 -7 -64.5t24 -49.5zM109 590l-45 -24q-23 28 -30 65.5t7 79.5q12 -2 25 -3.5t26 -3.5q-12 -35 -7 -64.5t24 -49.5z" />
    <glyph glyph-name="quotedblright" unicode="&#x201d;" horiz-adv-x="248" 
d="M41 566q-10 6 -18.5 12t-18.5 12q23 20 37 49.5t12 64.5q13 2 26 3.5t27 3.5q2 -42 -15.5 -79.5t-49.5 -65.5zM145 566q-10 6 -18.5 12t-18.5 12q23 20 37 49.5t12 64.5q13 2 26 3.5t27 3.5q2 -42 -15.5 -79.5t-49.5 -65.5z" />
    <glyph glyph-name="quotedblbase" unicode="&#x201e;" horiz-adv-x="341" 
d="M49 -53q-10 6 -18.5 12t-18.5 12q23 20 37 49.5t12 64.5q13 2 26 3.5t27 3.5q2 -42 -15.5 -79.5t-49.5 -65.5zM153 -53q-10 6 -18.5 12t-18.5 12q23 20 37 49.5t12 64.5q13 2 26 3.5t27 3.5q2 -42 -15.5 -79.5t-49.5 -65.5z" />
    <glyph glyph-name="bullet" unicode="&#x2022;" horiz-adv-x="479" 
d="M112 300q4 27 17 50t32.5 40.5t44 27.5t50.5 10q27 0 48.5 -10t36.5 -27.5t22 -40.5t3 -50t-17 -50t-32.5 -40t-44 -26.5t-51.5 -9.5q-26 0 -48 9.5t-36.5 26.5t-21.5 40t-3 50z" />
    <glyph glyph-name="guilsinglleft" unicode="&#x2039;" horiz-adv-x="392" 
d="M265 77l-148 162l96.5 80.5l96.5 80.5l-13 -95l-37 -33l-37 -33l27.5 -33.5l27.5 -33.5z" />
    <glyph glyph-name="guilsinglright" unicode="&#x203a;" horiz-adv-x="392" 
d="M107 172l37 33.5l38 33.5l-28 33l-28 33l13 95l74.5 -80.5l74.5 -80.5l-194 -162z" />
    </font>
</defs>
</svg>
