<?xml version="1.0" standalone="no"?>
<!DOCTYPE svg PUBLIC "-//W3C//DTD SVG 1.1//EN" "http://www.w3.org/Graphics/SVG/1.1/DTD/svg11.dtd" >
<svg>
<metadata>
Created by FontForge 20090622 at Sun Feb 16 05:31:32 2020
 By deploy user
Copyright (c) 2010 by Typemade. All rights reserved.
</metadata>
<defs>
<font id="JosefinSans-Bold" horiz-adv-x="522" >
  <font-face 
    font-family="Josefin Sans"
    font-weight="700"
    font-stretch="normal"
    units-per-em="1000"
    panose-1="0 0 0 0 0 0 0 0 0 0"
    ascent="750"
    descent="-250"
    x-height="425"
    cap-height="729"
    bbox="-61 -261 1027 979"
    underline-thickness="50"
    underline-position="-50"
    unicode-range="U+000D-U+FB02"
  />
<missing-glyph horiz-adv-x="300" 
 />
    <glyph glyph-name=".notdef" horiz-adv-x="300" 
 />
    <glyph glyph-name=".null" horiz-adv-x="0" 
 />
    <glyph glyph-name=".null" horiz-adv-x="0" 
 />
    <glyph glyph-name="nonmarkingreturn" unicode="&#xd;" horiz-adv-x="300" 
 />
    <glyph glyph-name="space" unicode=" " horiz-adv-x="228" 
 />
    <glyph glyph-name="t" unicode="t" horiz-adv-x="316" 
d="M98 611h95v-186h111v-86h-111v-339h-95v339h-72v86h72v186z" />
    <glyph glyph-name="b" unicode="b" horiz-adv-x="548" 
d="M514 211q0 -48 -16 -88.5t-45.5 -70.5t-70.5 -46.5t-90 -16.5t-86.5 18.5t-51.5 39.5q0 -4 0.5 -7.5t0.5 -8.5v-31h-96v781h96v-410q8 10 20.5 21.5t30.5 21t40.5 16t49.5 6.5q49 0 89 -15.5t68.5 -45t44.5 -71t16 -93.5zM410 213q0 56 -32.5 92.5t-90.5 36.5
q-29 0 -53 -9.5t-41.5 -27t-27.5 -41t-10 -50.5q0 -28 10 -52t27.5 -41.5t41.5 -27.5t53 -10t52 10t38.5 28t24 41.5t8.5 50.5z" />
    <glyph glyph-name="l" unicode="l" horiz-adv-x="213" 
d="M154 0h-95v781h95v-781z" />
    <glyph glyph-name="m" unicode="m" horiz-adv-x="819" 
d="M59 425h85q1 -18 2 -32t2 -26.5l2 -24.5t2 -26q24 54 60.5 86.5t100.5 33.5q63 0 100.5 -31.5t44.5 -82.5q12 25 27 46t33.5 36t42.5 23.5t56 8.5q66 0 105 -35.5t41 -92.5v-308h-96v263q-2 31 -21 53.5t-63 24.5q-59 0 -91.5 -38.5t-32.5 -98.5v-204h-96v263
q-2 31 -21.5 53.5t-62.5 24.5q-59 0 -91.5 -38.5t-32.5 -97.5v-205h-96v425z" />
    <glyph glyph-name="i" unicode="i" horiz-adv-x="214" 
d="M48 590q0 26 19 43t41 17t40.5 -17t18.5 -43q0 -27 -18.5 -43.5t-40.5 -16.5t-41 16.5t-19 43.5zM155 0h-96v425h96v-425z" />
    <glyph glyph-name="h" unicode="h" 
d="M59 781h96v-459q22 51 62 82t103 32q66 0 105 -35t41 -93v-308h-95v263q-2 31 -22 53.5t-62 24.5q-29 0 -53.5 -10.5t-42 -28.5t-27 -43t-9.5 -54v-205h-96v781z" />
    <glyph glyph-name="c" unicode="c" horiz-adv-x="425" 
d="M343 111l29 -36.5l29 -35.5q-29 -23 -65 -36.5t-77 -13.5q-47 0 -88.5 17.5t-72 48t-48.5 71.5t-18 87t18 86.5t48.5 71t72 48t88.5 17.5q42 0 78.5 -13.5t66.5 -36.5l-61 -71q-35 27 -84 27q-29 0 -53 -10t-41.5 -27t-27 -40.5t-9.5 -51.5q0 -27 9.5 -50.5t27 -41.5
t41.5 -28t53 -10q50 0 84 28z" />
    <glyph glyph-name="q" unicode="q" horiz-adv-x="547" 
d="M129 214q0 -28 9.5 -52t27 -41.5t41.5 -27.5t53 -10t53.5 10t42 28t27 42t9.5 51t-9.5 50.5t-27 40.5t-42 27t-53.5 10t-53 -9.5t-41.5 -27t-27 -41t-9.5 -50.5zM33 212q0 50 16.5 91t46 70.5t69 46t86.5 16.5q32 0 56 -7t41 -17t27.5 -21.5t16.5 -19.5q0 12 2 26t2 28
h92v-629h-96v232q0 5 1 11t1 9q-9 -9 -22 -19.5t-31 -19.5t-40.5 -14.5t-51.5 -5.5q-51 0 -91.5 17.5t-68 48t-42 71t-14.5 86.5z" />
    <glyph glyph-name="u" unicode="u" 
d="M463 -10h-80l-12 118q-23 -51 -63.5 -84.5t-106.5 -33.5t-104.5 34.5t-40.5 91.5v309h96v-264q2 -31 21.5 -52.5t62.5 -23.5q29 0 53 10t41.5 28t27.5 43t10 54v205h95v-435z" />
    <glyph glyph-name="r" unicode="r" horiz-adv-x="324" 
d="M297 312q-28 0 -53.5 -7t-45 -21.5t-31.5 -36t-12 -50.5v-197h-96v425h84q2 -36 4.5 -58.5t4.5 -50.5q13 28 35 50t45.5 37.5t46.5 24t39 8.5z" />
    <glyph glyph-name="e" unicode="e" horiz-adv-x="474" 
d="M424 49q-31 -28 -75 -44t-90 -16q-47 0 -88.5 17.5t-72 48t-48.5 71t-18 86.5t18 86.5t48.5 71t71 48t85.5 17.5q72 0 126.5 -43.5t77.5 -114.5l-69.5 -26.5l-82.5 -32.5l-86 -34.5l-79 -31.5q17 -31 47 -50t68 -19q26 0 52.5 9.5t43.5 25.5zM340 299q-12 22 -36 32.5
t-47 10.5q-27 0 -51 -10.5t-41 -28t-27 -40t-10 -46.5v-4l53.5 21.5l57 23.5l54.5 22.5z" />
    <glyph glyph-name="p" unicode="p" horiz-adv-x="547" 
d="M410 213q0 56 -32.5 92.5t-90.5 36.5q-29 0 -53 -9.5t-41.5 -27t-27.5 -41t-10 -50.5q0 -28 10 -52t27.5 -41.5t41.5 -27.5t53 -10t52 10t38.5 28t24 41.5t8.5 50.5zM514 211q0 -48 -16 -88.5t-45.5 -70.5t-70.5 -46.5t-90 -16.5t-86.5 18.5t-51.5 39.5q0 -4 0.5 -7.5
t0.5 -8.5v-235h-96v629h92q0 -14 2 -28t2 -26q8 10 20.5 21.5t30.5 21t40.5 16t49.5 6.5q49 0 89 -15.5t68.5 -45t44.5 -71t16 -93.5z" />
    <glyph glyph-name="aacute" unicode="&#xe1;" horiz-adv-x="546" 
d="M31 208q0 46 18 87.5t48.5 72.5t71 49.5t85.5 18.5q30 0 54 -7.5t41.5 -17.5t27.5 -20.5t13 -16.5l4 51h93v-425h-97v28q0 5 0.5 9.5t0.5 6.5q-4 -5 -14 -14.5t-27 -18.5t-40.5 -15.5t-54.5 -6.5q-49 0 -90 18t-71 48t-46.5 69.5t-16.5 83.5zM128 214q0 -28 9.5 -52
t27 -41.5t41.5 -27.5t53 -10t53 10t41.5 28t27 42t9.5 51t-9.5 50.5t-27 40.5t-41.5 27t-53 10t-53 -9.5t-41.5 -27t-27 -41t-9.5 -50.5zM211 487l45.5 67l45.5 68h103l-61 -68l-62 -67h-71z" />
    <glyph glyph-name="eacute" unicode="&#xe9;" horiz-adv-x="473" 
d="M424 49q-31 -28 -75 -44t-90 -16q-47 0 -88.5 17.5t-72 48t-48.5 71t-18 86.5t18 86.5t48.5 71t71 48t85.5 17.5q72 0 126.5 -43.5t77.5 -114.5l-69.5 -26.5l-82.5 -32.5l-86 -34.5l-79 -31.5q17 -31 47 -50t68 -19q26 0 52.5 9.5t43.5 25.5zM340 299q-12 22 -36 32.5
t-47 10.5q-27 0 -51 -10.5t-41 -28t-27 -40t-10 -46.5v-4l53.5 21.5l57 23.5l54.5 22.5zM187 487l45.5 67l45.5 68h103l-61 -68l-62 -67h-71z" />
    <glyph glyph-name="iacute" unicode="&#xed;" horiz-adv-x="214" 
d="M155 0h-96v425h96v-425zM61 487l45.5 67l45.5 68h103l-61 -68l-62 -67h-71z" />
    <glyph glyph-name="oacute" unicode="&#xf3;" horiz-adv-x="514" 
d="M32 213q0 46 17.5 86.5t48.5 70.5t72.5 47.5t88.5 17.5q48 0 89 -17.5t70.5 -47.5t46.5 -70.5t17 -86.5t-16.5 -87t-46.5 -71.5t-71 -48t-90 -17.5q-47 0 -88 16t-71.5 45.5t-48.5 71t-18 91.5zM127 212q0 -27 10 -50.5t27.5 -41t41 -27.5t50.5 -10t50.5 10t41 27.5
t28 41t10.5 50.5t-10.5 50.5t-28 41t-41 28t-50.5 10.5t-50.5 -10.5t-41 -28t-27.5 -41t-10 -50.5zM256 487l45.5 67l45.5 68h103l-61 -68l-62 -67h-71z" />
    <glyph glyph-name="uacute" unicode="&#xfa;" horiz-adv-x="523" 
d="M463 -10h-80l-12 118q-23 -51 -63.5 -84.5t-106.5 -33.5t-104.5 34.5t-40.5 91.5v309h96v-264q2 -31 21.5 -52.5t62.5 -23.5q29 0 53 10t41.5 28t27.5 43t10 54v205h95v-435zM199 487l45.5 67l45.5 68h103l-61 -68l-62 -67h-71z" />
    <glyph glyph-name="adieresis" unicode="&#xe4;" horiz-adv-x="546" 
d="M31 208q0 46 18 87.5t48.5 72.5t71 49.5t85.5 18.5q30 0 54 -7.5t41.5 -17.5t27.5 -20.5t13 -16.5l4 51h93v-425h-97v28q0 5 0.5 9.5t0.5 6.5q-4 -5 -14 -14.5t-27 -18.5t-40.5 -15.5t-54.5 -6.5q-49 0 -90 18t-71 48t-46.5 69.5t-16.5 83.5zM128 214q0 -28 9.5 -52
t27 -41.5t41.5 -27.5t53 -10t53 10t41.5 28t27 42t9.5 51t-9.5 50.5t-27 40.5t-41.5 27t-53 10t-53 -9.5t-41.5 -27t-27 -41t-9.5 -50.5zM290 534q0 26 19.5 44t42.5 18q21 0 40.5 -18t19.5 -44q0 -28 -19.5 -45t-40.5 -17q-23 0 -42.5 17t-19.5 45zM97 534q0 26 19.5 44
t42.5 18q21 0 40.5 -18t19.5 -44q0 -28 -19.5 -45t-40.5 -17q-23 0 -42.5 17t-19.5 45z" />
    <glyph glyph-name="edieresis" unicode="&#xeb;" horiz-adv-x="473" 
d="M424 49q-31 -28 -75 -44t-90 -16q-47 0 -88.5 17.5t-72 48t-48.5 71t-18 86.5t18 86.5t48.5 71t71 48t85.5 17.5q72 0 126.5 -43.5t77.5 -114.5l-69.5 -26.5l-82.5 -32.5l-86 -34.5l-79 -31.5q17 -31 47 -50t68 -19q26 0 52.5 9.5t43.5 25.5zM340 299q-12 22 -36 32.5
t-47 10.5q-27 0 -51 -10.5t-41 -28t-27 -40t-10 -46.5v-4l53.5 21.5l57 23.5l54.5 22.5zM271 534q0 26 19.5 44t42.5 18q21 0 40.5 -18t19.5 -44q0 -28 -19.5 -45t-40.5 -17q-23 0 -42.5 17t-19.5 45zM78 534q0 26 19.5 44t42.5 18q21 0 40.5 -18t19.5 -44q0 -28 -19.5 -45
t-40.5 -17q-23 0 -42.5 17t-19.5 45z" />
    <glyph glyph-name="odieresis" unicode="&#xf6;" horiz-adv-x="514" 
d="M32 213q0 46 17.5 86.5t48.5 70.5t72.5 47.5t88.5 17.5q48 0 89 -17.5t70.5 -47.5t46.5 -70.5t17 -86.5t-16.5 -87t-46.5 -71.5t-71 -48t-90 -17.5q-47 0 -88 16t-71.5 45.5t-48.5 71t-18 91.5zM127 212q0 -27 10 -50.5t27.5 -41t41 -27.5t50.5 -10t50.5 10t41 27.5
t28 41t10.5 50.5t-10.5 50.5t-28 41t-41 28t-50.5 10.5t-50.5 -10.5t-41 -28t-27.5 -41t-10 -50.5zM309 534q0 26 19.5 44t42.5 18q21 0 40.5 -18t19.5 -44q0 -28 -19.5 -45t-40.5 -17q-23 0 -42.5 17t-19.5 45zM116 534q0 26 19.5 44t42.5 18q21 0 40.5 -18t19.5 -44
q0 -28 -19.5 -45t-40.5 -17q-23 0 -42.5 17t-19.5 45z" />
    <glyph glyph-name="udieresis" unicode="&#xfc;" horiz-adv-x="523" 
d="M463 -10h-80l-12 118q-23 -51 -63.5 -84.5t-106.5 -33.5t-104.5 34.5t-40.5 91.5v309h96v-264q2 -31 21.5 -52.5t62.5 -23.5q29 0 53 10t41.5 28t27.5 43t10 54v205h95v-435zM275 534q0 26 19.5 44t42.5 18q21 0 40.5 -18t19.5 -44q0 -28 -19.5 -45t-40.5 -17
q-23 0 -42.5 17t-19.5 45zM82 534q0 26 19.5 44t42.5 18q21 0 40.5 -18t19.5 -44q0 -28 -19.5 -45t-40.5 -17q-23 0 -42.5 17t-19.5 45z" />
    <glyph glyph-name="agrave" unicode="&#xe0;" horiz-adv-x="546" 
d="M31 208q0 46 18 87.5t48.5 72.5t71 49.5t85.5 18.5q30 0 54 -7.5t41.5 -17.5t27.5 -20.5t13 -16.5l4 51h93v-425h-97v28q0 5 0.5 9.5t0.5 6.5q-4 -5 -14 -14.5t-27 -18.5t-40.5 -15.5t-54.5 -6.5q-49 0 -90 18t-71 48t-46.5 69.5t-16.5 83.5zM128 214q0 -28 9.5 -52
t27 -41.5t41.5 -27.5t53 -10t53 10t41.5 28t27 42t9.5 51t-9.5 50.5t-27 40.5t-41.5 27t-53 10t-53 -9.5t-41.5 -27t-27 -41t-9.5 -50.5zM187 622l46 -68l46 -67h-72l-62 67l-61 68h103z" />
    <glyph glyph-name="egrave" unicode="&#xe8;" horiz-adv-x="473" 
d="M424 49q-31 -28 -75 -44t-90 -16q-47 0 -88.5 17.5t-72 48t-48.5 71t-18 86.5t18 86.5t48.5 71t71 48t85.5 17.5q72 0 126.5 -43.5t77.5 -114.5l-69.5 -26.5l-82.5 -32.5l-86 -34.5l-79 -31.5q17 -31 47 -50t68 -19q26 0 52.5 9.5t43.5 25.5zM340 299q-12 22 -36 32.5
t-47 10.5q-27 0 -51 -10.5t-41 -28t-27 -40t-10 -46.5v-4l53.5 21.5l57 23.5l54.5 22.5zM174 622l46 -68l46 -67h-72l-62 67l-61 68h103z" />
    <glyph glyph-name="igrave" unicode="&#xec;" horiz-adv-x="214" 
d="M155 0h-96v425h96v-425zM59 622l46 -68l46 -67h-72l-62 67l-61 68h103z" />
    <glyph glyph-name="ograve" unicode="&#xf2;" horiz-adv-x="514" 
d="M32 213q0 46 17.5 86.5t48.5 70.5t72.5 47.5t88.5 17.5q48 0 89 -17.5t70.5 -47.5t46.5 -70.5t17 -86.5t-16.5 -87t-46.5 -71.5t-71 -48t-90 -17.5q-47 0 -88 16t-71.5 45.5t-48.5 71t-18 91.5zM127 212q0 -27 10 -50.5t27.5 -41t41 -27.5t50.5 -10t50.5 10t41 27.5
t28 41t10.5 50.5t-10.5 50.5t-28 41t-41 28t-50.5 10.5t-50.5 -10.5t-41 -28t-27.5 -41t-10 -50.5zM189 622l46 -68l46 -67h-72l-62 67l-61 68h103z" />
    <glyph glyph-name="ugrave" unicode="&#xf9;" horiz-adv-x="523" 
d="M463 -10h-80l-12 118q-23 -51 -63.5 -84.5t-106.5 -33.5t-104.5 34.5t-40.5 91.5v309h96v-264q2 -31 21.5 -52.5t62.5 -23.5q29 0 53 10t41.5 28t27.5 43t10 54v205h95v-435zM198 622l46 -68l46 -67h-72l-62 67l-61 68h103z" />
    <glyph glyph-name="comma" unicode="," horiz-adv-x="249" 
d="M185 88l-88 -210h-92l39 104.5l39 105.5h102z" />
    <glyph glyph-name="period" unicode="." horiz-adv-x="226" 
d="M52 62q0 26 19.5 44t42.5 18q21 0 40.5 -18t19.5 -44q0 -29 -19.5 -45.5t-40.5 -16.5q-23 0 -42.5 16.5t-19.5 45.5z" />
    <glyph glyph-name="f" unicode="f" horiz-adv-x="339" 
d="M26 332v94h73v90q0 134 62 197.5t180 67.5v-91q-78 -5 -112 -50t-34 -128v-86h132v-94h-132v-332h-96v332h-73z" />
    <glyph glyph-name="aring" unicode="&#xe5;" horiz-adv-x="546" 
d="M31 208q0 46 18 87.5t48.5 72.5t71 49.5t85.5 18.5q30 0 54 -7.5t41.5 -17.5t27.5 -20.5t13 -16.5l4 51h93v-425h-97v28q0 5 0.5 9.5t0.5 6.5q-4 -5 -14 -14.5t-27 -18.5t-40.5 -15.5t-54.5 -6.5q-49 0 -90 18t-71 48t-46.5 69.5t-16.5 83.5zM128 214q0 -28 9.5 -52
t27 -41.5t41.5 -27.5t53 -10t53 10t41.5 28t27 42t9.5 51t-9.5 50.5t-27 40.5t-41.5 27t-53 10t-53 -9.5t-41.5 -27t-27 -41t-9.5 -50.5zM174 555q0 18 7 33.5t19 27.5t28 19t34 7t34 -7t28 -19t19 -27.5t7 -33.5t-7 -34t-19 -28.5t-28 -19.5t-34 -7t-34 7t-28 19.5
t-19 28.5t-7 34zM229 553q0 -14 9.5 -23t23.5 -9t23.5 9t9.5 23q0 15 -9.5 24.5t-23.5 9.5t-23.5 -9.5t-9.5 -24.5z" />
    <glyph glyph-name="v" unicode="v" horiz-adv-x="457" 
d="M229 -25l-114 224.5l-111 225.5h104l59.5 -119t33.5 -73t17.5 -44.5t10.5 -34.5l11.5 34.5t17.5 44.5t33.5 73l59.5 119h103l-112 -225.5z" />
    <glyph glyph-name="j" unicode="j" horiz-adv-x="214" 
d="M64 -205l-33.5 36t-32.5 36q29 23 45 56.5t16 80.5v421h96v-425q0 -69 -24.5 -120t-66.5 -85zM51 590q0 26 18.5 43t41.5 17q22 0 40 -17t18 -43q0 -27 -18 -43.5t-40 -16.5q-23 0 -41.5 16.5t-18.5 43.5z" />
    <glyph glyph-name="s" unicode="s" horiz-adv-x="350" 
d="M301 387q-6 -9 -14.5 -20.5l-16.5 -21.5t-13.5 -17.5l-5.5 -7.5l-5 3.5t-14.5 7.5t-22 7.5t-25.5 3.5q-14 0 -29.5 -6.5t-15.5 -26.5q0 -17 13.5 -28.5t33 -21t43 -19.5t43 -25t33 -37.5t13.5 -55.5q0 -29 -10.5 -53t-30 -41t-46.5 -27t-61 -10q-41 0 -79.5 14t-60.5 40
l17 20l19 23l15.5 18.5l6.5 7.5q0 1 6.5 -3.5t17.5 -10.5t26 -11t31 -5q25 0 38.5 11t13.5 27t-13.5 26t-33 18.5l-43 18.5t-43 25t-33 38.5t-13.5 59.5t13 60t33.5 39t44.5 21.5t47 6.5q31 0 64.5 -12.5t56.5 -35.5z" />
    <glyph glyph-name="k" unicode="k" horiz-adv-x="458" 
d="M365 435l57 -56l-72.5 -68.5l-72.5 -68.5l88 -121l88 -121h-110l-67 89.5l-66 89.5l-55 -50v-129h-96v781h96v-541l105 97.5z" />
    <glyph glyph-name="y" unicode="y" horiz-adv-x="490" 
d="M181 -204h-96l28 57.5l26 56l27 58.5l31 65l-47.5 95l-49.5 101l-49.5 101l-46.5 95h104l62 -124t39 -84t23 -55.5t13 -39.5q6 18 14 39.5t23 55.5t39 84l62 124h103z" />
    <glyph glyph-name="oslash" unicode="&#xf8;" horiz-adv-x="514" 
d="M32 213q0 46 17.5 86.5t48.5 70.5t72.5 47.5t88.5 17.5q32 0 61 -8.5t54 -22.5l43 50l50 -40l-43 -50q27 -30 42.5 -68.5t15.5 -82.5q0 -46 -16.5 -87t-46.5 -71.5t-71 -48t-90 -17.5q-37 0 -69.5 10t-60.5 28l-29.5 -34l-19.5 -23l-48 43l49 57q-23 28 -35.5 64
t-12.5 79zM191 100q29 -17 65 -17q27 0 50.5 10t41 27.5t28 41t10.5 50.5q0 43 -27 78zM127 212q0 -36 19 -68l163 186q-24 12 -53 12q-27 0 -50.5 -10.5t-41 -28t-27.5 -41t-10 -50.5z" />
    <glyph glyph-name="w" unicode="w" horiz-adv-x="662" 
d="M288 363l-29 62h83l50 -111l33 -77.5l20.5 -51t11.5 -31.5q4 27 10.5 49t18.5 50l30.5 68t45.5 104h96l-201 -450q-19 38 -34 74.5l-30 72.5l-30.5 72.5t-34.5 74.5l-64.5 -147l-63.5 -147l-191 450h96l44 -105t27 -68t15 -49.5t9 -48.5q3 9 7.5 21l13.5 34.5t25 59z" />
    <glyph glyph-name="x" unicode="x" horiz-adv-x="450" 
d="M165 226q-34 50 -72 99.5l-73 99.5h118l22.5 -34.5t21 -29.5l22 -29t23.5 -33l23 33l22 29t22 29.5l23 33.5h107q-19 -29 -36 -52.5l-33.5 -46.5l-34 -48l-37.5 -55l38 -53.5l43 -57.5l42.5 -57.5l37.5 -53.5h-123q-27 38 -53.5 69.5t-52.5 68.5q-26 -38 -49.5 -68.5
t-49.5 -69.5h-107l78.5 113t77.5 113z" />
    <glyph glyph-name="z" unicode="z" horiz-adv-x="454" 
d="M424 0h-410l238 343h-131q-35 0 -59.5 20.5t-24.5 52.5v49h86v-13q0 -19 8 -23t26 -4h271l-230 -331h226v-94z" />
    <glyph glyph-name="o" unicode="o" horiz-adv-x="514" 
d="M32 213q0 46 17.5 86.5t48.5 70.5t72.5 47.5t88.5 17.5q48 0 89 -17.5t70.5 -47.5t46.5 -70.5t17 -86.5t-16.5 -87t-46.5 -71.5t-71 -48t-90 -17.5q-47 0 -88 16t-71.5 45.5t-48.5 71t-18 91.5zM127 212q0 -27 10 -50.5t27.5 -41t41 -27.5t50.5 -10t50.5 10t41 27.5
t28 41t10.5 50.5t-10.5 50.5t-28 41t-41 28t-50.5 10.5t-50.5 -10.5t-41 -28t-27.5 -41t-10 -50.5z" />
    <glyph glyph-name="ae" unicode="&#xe6;" horiz-adv-x="710" 
d="M661 49q-31 -28 -75 -44t-90 -16q-45 0 -84.5 16t-69.5 44q-28 -28 -70 -43t-93 -15q-42 0 -71 10.5t-46.5 28t-25.5 40t-8 46.5q0 33 13 56.5t33.5 38.5t45.5 22.5t49 7.5h102q4 36 22 71q-11 16 -32 22.5t-50 6.5q-39 0 -70 -8.5t-54 -21.5l-39 74q35 24 80 37.5
t95 13.5q44 0 78 -13t54 -36q29 23 64 35.5t73 12.5q72 0 126.5 -43.5t77.5 -114.5l-69.5 -26.5l-82.5 -32.5l-86 -34.5l-79 -31.5q17 -31 47 -50t68 -19q26 0 52.5 9.5t43.5 25.5zM577 299q-12 22 -36 32.5t-47 10.5q-27 0 -51 -10.5t-41 -28t-27 -40t-10 -46.5v-4
l53.5 21.5l57 23.5l54.5 22.5zM115 125q0 -26 22 -34t48 -8q35 0 63.5 8t41.5 27q-13 25 -17 53h-52q-61 0 -83.5 -13t-22.5 -33z" />
    <glyph glyph-name="A" unicode="A" horiz-adv-x="653" 
d="M532 0l-10.5 25l-18.5 44l-24 57.5l-27 65.5h-251l-80 -192h-121l19 44.5l37.5 88l50 117l56.5 131.5l56.5 131.5l50 117l37.5 88l19 44.5l19.5 -44.5l38 -88l50 -117l56.5 -131.5l56.5 -131.5l50 -117l37.5 -88l19 -44.5h-121zM243 295h166l-72 174q-1 1 -5 13.5
t-6 22.5q-2 -10 -6 -22.5t-4 -13.5z" />
    <glyph glyph-name="idieresis" unicode="&#xef;" horiz-adv-x="214" 
d="M155 0h-96v425h96v-425zM146 534q0 26 19.5 44t42.5 18q21 0 40.5 -18t19.5 -44q0 -28 -19.5 -45t-40.5 -17q-23 0 -42.5 17t-19.5 45zM-47 534q0 26 19.5 44t42.5 18q21 0 40.5 -18t19.5 -44q0 -28 -19.5 -45t-40.5 -17q-23 0 -42.5 17t-19.5 45z" />
    <glyph glyph-name="yacute" unicode="&#xfd;" horiz-adv-x="490" 
d="M181 -204h-96l28 57.5l26 56l27 58.5l31 65l-47.5 95l-49.5 101l-49.5 101l-46.5 95h104l62 -124t39 -84t23 -55.5t13 -39.5q6 18 14 39.5t23 55.5t39 84l62 124h103zM204 487l45.5 67l45.5 68h103l-61 -68l-62 -67h-71z" />
    <glyph glyph-name="ydieresis" unicode="&#xff;" horiz-adv-x="490" 
d="M181 -204h-96l28 57.5l26 56l27 58.5l31 65l-47.5 95l-49.5 101l-49.5 101l-46.5 95h104l62 -124t39 -84t23 -55.5t13 -39.5q6 18 14 39.5t23 55.5t39 84l62 124h103zM266 534q0 26 19.5 44t42.5 18q21 0 40.5 -18t19.5 -44q0 -28 -19.5 -45t-40.5 -17q-23 0 -42.5 17
t-19.5 45zM73 534q0 26 19.5 44t42.5 18q21 0 40.5 -18t19.5 -44q0 -28 -19.5 -45t-40.5 -17q-23 0 -42.5 17t-19.5 45z" />
    <glyph glyph-name="B" unicode="B" horiz-adv-x="595" 
d="M206 618v-198h92q51 0 75.5 30t24.5 72q0 49 -30 72.5t-81 23.5h-81zM206 316v-205h96q27 0 51 6.5t42 19t28 32t10 45.5q0 29 -12 48.5t-32 31.5t-45.5 17t-52.5 5h-85zM84 0v729h199q54 0 98 -10.5t75 -33t47.5 -59t16.5 -87.5q0 -28 -5.5 -54.5t-18 -49t-32.5 -39.5
t-50 -26q25 -5 50.5 -17t45.5 -32.5t32.5 -51t12.5 -71.5q0 -53 -20.5 -90.5t-54 -61.5t-77.5 -35t-91 -11h-228z" />
    <glyph glyph-name="D" unicode="D" horiz-adv-x="713" 
d="M84 729h189q110 0 186.5 -33.5t124.5 -86.5t69.5 -120.5t21.5 -134.5q0 -82 -29.5 -147.5t-79.5 -111.5t-116.5 -70.5t-140.5 -24.5h-225v729zM290 116q57 0 105 16t83 47.5t54.5 77t19.5 105.5q0 68 -23.5 115.5t-59.5 77t-80 43t-84 13.5h-98v-495h83z" />
    <glyph glyph-name="E" unicode="E" horiz-adv-x="619" 
d="M84 0v729h484v-111h-362v-196h322v-114h-322v-194h376v-114h-498z" />
    <glyph glyph-name="H" unicode="H" horiz-adv-x="763" 
d="M84 0v729h123v-304h348v304h124v-67v-132.5t-0.5 -165t-0.5 -165v-132.5v-67h-123v308h-348v-308h-123z" />
    <glyph glyph-name="I" unicode="I" horiz-adv-x="291" 
d="M84 729h123v-729h-123v729z" />
    <glyph glyph-name="J" unicode="J" horiz-adv-x="342" 
d="M-20 -151v116q34 2 63 13t50 32.5t32.5 55t11.5 79.5v584h124v-587q0 -69 -21.5 -122.5t-59 -91t-89 -57.5t-111.5 -22z" />
    <glyph glyph-name="K" unicode="K" horiz-adv-x="655" 
d="M511 0l-65 83l-60 79.5l-60.5 80l-64.5 84.5q-11 -12 -21 -21.5l-21 -19.5v-286h-135v729h135v-262q0 -8 -1 -17l-2 -18q5 7 10.5 12.5t10.5 13.5q68 65 130.5 135t130.5 136h155l-149 -160l-148 -159l79.5 -105l74.5 -100.5l74.5 -100l78.5 -104.5h-152z" />
    <glyph glyph-name="M" unicode="M" horiz-adv-x="905" 
d="M84 761l22 -31.5l42.5 -60l57 -78.5l64 -87.5l63.5 -87l56 -77.5l42.5 -58.5t21.5 -29.5q2 3 18 25.5l40.5 56.5l55.5 77.5l64 88.5l64.5 89l58 80l44.5 61l23 32v-761h-131v372q0 8 2 17t2 11l-241 -347q-5 6 -24.5 33l-46.5 64l-57 79.5l-56.5 79l-45 62t-20.5 29.5
q0 -2 2 -11t2 -17v-372h-123v761z" />
    <glyph glyph-name="N" unicode="N" horiz-adv-x="812" 
d="M728 729v-763q-7 9 -31 33l-59 57.5l-77.5 74l-86.5 82l-86 81.5l-76.5 73.5l-58 57t-30.5 32.5q-1 2 -8 10.5t-12 15.5l3 -32v-451h-122v762q7 -9 31 -32.5l59 -56.5l77.5 -72l86.5 -79.5l86 -80l77 -72l58.5 -55.5t30.5 -32l19 -28l-3 34v441h122z" />
    <glyph glyph-name="P" unicode="P" horiz-adv-x="583" 
d="M206 366h98q38 0 63 13t40 32.5t21 41t6 38.5q0 16 -5.5 37.5t-20 40.5t-39.5 32t-64 13h-99v-248zM84 0v729h206q60 0 109.5 -16t84 -46t53.5 -74t19 -99q0 -44 -13 -87.5t-42.5 -78t-76.5 -56t-116 -21.5h-102v-251h-122z" />
    <glyph glyph-name="R" unicode="R" horiz-adv-x="636" 
d="M84 0v729h206q60 0 109.5 -16t84 -46t53.5 -74t19 -99q0 -30 -6 -60t-19 -58t-34 -51.5t-50 -40.5l43 -68.5l42.5 -67.5l44.5 -70l50 -78h-147l-85 132.5l-77 118.5h-10h-102v-251h-122zM206 366h98q38 0 63 13t40 31.5t21 40t6 39.5q0 17 -5.5 38.5t-20 40.5t-39.5 32
t-64 13h-99v-248z" />
    <glyph glyph-name="U" unicode="U" horiz-adv-x="720" 
d="M359 -8q-59 0 -110.5 19.5t-89.5 54.5t-60 84.5t-22 109.5v469h122v-466q0 -32 12.5 -60t34 -49t50.5 -33.5t63 -12.5t63.5 12.5t51.5 33.5t34.5 49t12.5 60v466h122v-469q0 -60 -22 -109.5t-60.5 -84.5t-90.5 -54.5t-111 -19.5z" />
    <glyph glyph-name="Y" unicode="Y" horiz-adv-x="669" 
d="M396 236v-236h-123v236q-5 7 -25 44.5l-49 90l-61 112l-61 112l-49 90t-25 44.5h139l15.5 -28.5l27.5 -52l35 -67l38 -73l36 -70l30 -58.5l11 -34q4 8 7 17.5t6 16.5l30 58.5l35.5 70l37 73l34 67l26.5 52t15 28.5h139z" />
    <glyph glyph-name="asciitilde" unicode="~" horiz-adv-x="471" 
d="M228 485q-16 14 -27 19.5t-25 5.5q-7 0 -15 -1.5t-15.5 -6.5t-13.5 -13.5t-7 -22.5l-54 2q1 21 10 38.5t22.5 30t30 19.5t32.5 7q25 0 44 -8t36 -24q16 -15 27 -20t25 -5q7 0 15 1.5t15.5 6.5t13 13.5t7.5 22.5l54 -2q-1 -21 -10 -38.5t-22.5 -30t-30 -19.5t-32.5 -7
q-24 0 -43.5 8.5t-36.5 23.5z" />
    <glyph glyph-name="ntilde" unicode="&#xf1;" 
d="M59 425h84q2 -36 4.5 -58.5t4.5 -50.5q23 54 65 87t105 33q65 0 103.5 -35.5t40.5 -92.5v-308h-95v263q-2 31 -22 53.5t-62 24.5q-29 0 -53.5 -10.5t-42 -28.5t-27 -43t-9.5 -54v-205h-96v425zM279 513q-16 14 -27 19.5t-25 5.5q-7 0 -15 -1.5t-15.5 -6.5t-13.5 -13.5
t-7 -22.5l-54 2q1 21 10 38.5t22.5 30t30 19.5t32.5 7q25 0 44 -8t36 -24q16 -15 27 -20t25 -5q7 0 15 1.5t15.5 6.5t13 13.5t7.5 22.5l54 -2q-1 -21 -10 -38.5t-22.5 -30t-30 -19.5t-32.5 -7q-24 0 -43.5 8.5t-36.5 23.5z" />
    <glyph glyph-name="F" unicode="F" horiz-adv-x="559" 
d="M84 0v729h443v-113h-321v-204h279v-114h-279v-298h-122z" />
    <glyph glyph-name="L" unicode="L" horiz-adv-x="575" 
d="M84 0v729h122v-613h354v-116h-476z" />
    <glyph glyph-name="C" unicode="C" horiz-adv-x="640" 
d="M633 54q-12 -8 -33.5 -19t-51 -20.5t-66.5 -16t-79 -6.5q-86 0 -154 29.5t-115 79.5t-72 117t-25 141q0 82 30 151.5t81.5 120t120 78.5t146.5 28q30 0 60.5 -4.5t57.5 -11.5t47.5 -16t29.5 -19q-9 -14 -14 -23l-10.5 -18.5l-12 -21.5l-18.5 -33q-12 8 -29 14t-35.5 9.5
t-37.5 5.5t-34 2q-56 0 -103.5 -21t-82 -55.5t-54 -80.5t-19.5 -95q0 -48 18.5 -93.5t52 -80.5t79.5 -56.5t102 -21.5q32 0 62 6.5t53 14.5t37.5 16t15.5 11z" />
    <glyph glyph-name="Q" unicode="Q" horiz-adv-x="822" 
d="M36 363q0 76 29 144t79.5 119t118 81t144.5 30q76 0 144 -30t119 -81t80.5 -119t29.5 -144q0 -71 -21 -134.5t-62 -121.5l107 9v-116h-319q-20 -4 -39 -6t-39 -2q-77 0 -144.5 29t-118 79.5t-79.5 118t-29 144.5zM158 363q0 -53 20 -99.5t54 -81t80 -54.5t98 -20t97 20
t78.5 54.5t53 81t19.5 99.5t-19.5 99.5t-53.5 81.5t-79.5 55t-97.5 20t-97.5 -20t-79.5 -55t-53.5 -81.5t-19.5 -99.5z" />
    <glyph glyph-name="T" unicode="T" horiz-adv-x="563" 
d="M521 729v-117h-180v-612h-123v612h-176v117h479z" />
    <glyph glyph-name="guilsinglleft" unicode="&#x2039;" horiz-adv-x="283" 
d="M212 47l-173 196q3 3 16 17.5l31.5 35.5l39 45l39 44.5l31.5 35t16 17.5v-117q-3 -3 -12 -14.5l-18.5 -24l-18.5 -24l-12 -15.5l12 -15.5l18.5 -24.5l18.5 -24.5l12 -15.5v-116z" />
    <glyph glyph-name="greater" unicode="&#x3e;" horiz-adv-x="530" 
d="M61 -14v141l200 115l-200 115v140l222 -127l222 -128l-222 -128.5z" />
    <glyph glyph-name="less" unicode="&#x3c;" horiz-adv-x="530" 
d="M469 127v-141l-222 127.5l-222 128.5l222 128l222 127v-140l-199 -115z" />
    <glyph glyph-name="equal" unicode="=" horiz-adv-x="630" 
d="M572 204v-100h-514v100h514zM572 401v-100h-514v100h514z" />
    <glyph glyph-name="at" unicode="@" horiz-adv-x="952" 
d="M233 208q0 46 18 87.5t48.5 72.5t71 49.5t85.5 18.5q30 0 54 -7.5t41.5 -17.5t27.5 -20.5t13 -16.5l4 51h93v-335h22q12 0 28.5 7.5t32 26.5t26.5 50.5t11 78.5q0 55 -19.5 108t-59 95t-99.5 67.5t-141 25.5q-97 0 -165 -33t-111 -83.5t-63 -111.5t-20 -117
q0 -69 26.5 -130.5t73 -107.5t109 -72.5t133.5 -26.5q58 0 111.5 17.5t98.5 49.5l55 -66q-26 -23 -59 -40t-68.5 -28t-72 -16.5t-70.5 -5.5q-88 0 -166 34t-136.5 92t-93 136t-34.5 167q0 79 29 156t86 138.5t142 99.5t198 38q102 0 179 -33t128.5 -87.5t77.5 -123.5
t26 -141q0 -58 -14.5 -105t-40.5 -80t-61 -51t-77 -18h-119v28q0 5 0.5 9.5t0.5 6.5q-4 -5 -14 -14.5t-27 -18.5t-40.5 -15.5t-54.5 -6.5q-49 0 -90 18t-71 48t-46.5 69.5t-16.5 83.5zM330 214q0 -28 9.5 -52t27 -41.5t41.5 -27.5t53 -10t53 10t41.5 28t27 42t9.5 51
t-9.5 50.5t-27 40.5t-41.5 27t-53 10t-53 -9.5t-41.5 -27t-27 -41t-9.5 -50.5z" />
    <glyph glyph-name="question" unicode="?" horiz-adv-x="475" 
d="M122 550l-44.5 16.5l-44.5 16.5q6 20 18 48t35 53t60 42.5t94 17.5q42 0 78.5 -16t63 -43t42 -63t15.5 -76q0 -57 -26.5 -100t-72.5 -78l-29 -20t-30.5 -25.5t-24.5 -33t-10 -43.5v-80h-104v99q0 33 10 54t26.5 36.5t37.5 29t44 30.5q74 56 74 131q0 42 -25.5 70
t-68.5 28q-28 0 -47 -6t-32.5 -17.5t-22.5 -29t-16 -41.5zM193 -6q-23 0 -42.5 16.5t-19.5 44.5q0 26 19.5 44t42.5 18q22 0 41 -18t19 -44q0 -28 -19 -44.5t-41 -16.5z" />
    <glyph glyph-name="exclam" unicode="!" horiz-adv-x="273" 
d="M85 762h103v-594h-103v594zM137 -10q-24 0 -43 18t-19 45t19 44t43 17q22 0 41 -17t19 -44t-19 -45t-41 -18z" />
    <glyph glyph-name="two" unicode="2" horiz-adv-x="551" 
d="M297 100h216v-100h-462l120 121.5t103 113.5t72.5 107t27.5 100q0 32 -11.5 56t-28.5 39.5t-37 23.5t-37 8q-35 0 -57.5 -12.5t-36 -29.5t-18.5 -36t-5 -32q0 -33 10.5 -58.5t29.5 -44.5l-61 -63q-20 10 -35 30.5t-25.5 44.5t-16 48t-5.5 43q0 40 14.5 78t42.5 67
t69 46.5t94 17.5q49 0 89.5 -17.5t69 -47t44 -68.5t15.5 -81q0 -48 -14.5 -93t-39 -88.5t-57.5 -86.5t-70 -86z" />
    <glyph glyph-name="one" unicode="1" horiz-adv-x="310" 
d="M51 561v99h161v-660h-104v561h-57z" />
    <glyph glyph-name="three" unicode="3" horiz-adv-x="468" 
d="M124 322q30 60 69 118.5t69 118.5h-191v101h352q-33 -60 -69 -119t-69 -119q60 -31 96 -84t36 -122q0 -46 -18 -87t-49 -71.5t-72.5 -48t-87.5 -17.5q-48 0 -91 20t-74 53l75 70q35 -43 91 -43q25 0 47.5 10t39 26.5t26.5 39t10 48.5q0 25 -10 47.5t-26.5 39t-39 26
t-47.5 9.5q-38 0 -67 -16z" />
    <glyph glyph-name="four" unicode="4" horiz-adv-x="527" 
d="M291 390l-21 -26.5l-26.5 -34.5l-26.5 -35t-20 -27h94v123zM-2 168l96.5 123l101.5 127l101.5 127l96.5 123v-401h99v-99h-99v-168h-103v168h-293z" />
    <glyph glyph-name="five" unicode="5" horiz-adv-x="457" 
d="M79 299v361h292v-99h-203v-127q5 2 9.5 3t13.5 1q51 0 93 -17.5t71 -47.5t45 -69.5t16 -83.5q0 -48 -18 -90t-49 -72.5t-72 -48t-87 -17.5q-45 0 -84.5 16.5t-70.5 46.5l38 35l37 34q16 -14 36.5 -23t45.5 -9t47 10t38.5 26.5t26.5 39t10 48.5q0 25 -10 47.5t-26.5 39.5
t-39 26.5t-47.5 9.5q-26 0 -56 -6.5t-56 -33.5z" />
    <glyph glyph-name="six" unicode="6" horiz-adv-x="533" 
d="M41 216q0 54 17 102t44.5 89.5t63 77t72 65.5t71 54.5l60.5 43.5q17 -19 32.5 -39l31.5 -39l-52.5 -35l-58.5 -40t-53 -38.5t-36 -31.5q13 13 32 13q46 0 87.5 -17t72.5 -47t49 -70.5t18 -86.5q0 -47 -18 -87.5t-49 -71.5t-72 -48.5t-87 -17.5q-37 0 -76.5 13t-72.5 40
t-54.5 69.5t-21.5 101.5zM148 216q0 -25 9 -47.5t25 -39.5t37.5 -27t46.5 -10t47.5 10t39 27t26.5 39.5t10 47.5t-10 47.5t-27 39.5t-39 26.5t-47 9.5t-46.5 -9.5t-37.5 -26.5t-25 -39.5t-9 -47.5zM230 422l3 3z" />
    <glyph glyph-name="seven" unicode="7" horiz-adv-x="460" 
d="M31 559v101h423l-130.5 -334.5l-125.5 -325.5h-118l103.5 272l110.5 287h-263z" />
    <glyph glyph-name="eight" unicode="8" horiz-adv-x="533" 
d="M202 501q0 -26 20.5 -44.5t46.5 -18.5t46 18.5t20 44.5q0 27 -20 47.5t-46 20.5q-13 0 -25 -5.5t-21.5 -15t-15 -22t-5.5 -25.5zM147 216q0 -26 9.5 -48.5t25.5 -39t37.5 -26.5t46.5 -10t47.5 10t39 26.5t26.5 39t10 48.5q0 25 -9 47t-25 38.5t-37.5 26.5t-46.5 11
q-25 0 -47.5 -9t-39.5 -25.5t-27 -39.5t-10 -49zM41 211q0 37 9 67t24 53.5t34 40t40 26.5q-26 21 -35.5 47.5t-9.5 49.5q0 38 13 70t35 55t52 35.5t64 12.5t64.5 -13t53 -35.5t35.5 -54t13 -68.5q0 -24 -10.5 -50.5t-37.5 -48.5q21 -11 40 -28t34 -40t24 -53t9 -66
q0 -43 -16 -82.5t-45.5 -70t-71 -48.5t-93.5 -18t-93.5 18t-71 48.5t-45 70t-15.5 82.5z" />
    <glyph glyph-name="colon" unicode=":" horiz-adv-x="232" 
d="M55 340q0 26 19.5 44t42.5 18q21 0 40.5 -18t19.5 -44q0 -29 -19.5 -45.5t-40.5 -16.5q-23 0 -42.5 16.5t-19.5 45.5zM55 62q0 26 19.5 44t42.5 18q21 0 40.5 -18t19.5 -44q0 -29 -19.5 -45.5t-40.5 -16.5q-23 0 -42.5 16.5t-19.5 45.5z" />
    <glyph glyph-name="semicolon" unicode=";" horiz-adv-x="259" 
d="M182 88l-88 -210h-92l39 104.5l39 105.5h102zM79 316q0 26 19 44t42 18q22 0 41 -18t19 -44q0 -29 -19 -45.5t-41 -16.5q-23 0 -42 16.5t-19 45.5z" />
    <glyph glyph-name="quotedbl" unicode="&#x22;" horiz-adv-x="359" 
d="M198 479v252h101l-4 -252h-97zM63 479v252h101l-4 -252h-97z" />
    <glyph glyph-name="numbersign" unicode="#" horiz-adv-x="585" 
d="M292 0q5 46 10.5 90.5t10.5 90.5h-83q-5 -46 -10.5 -90.5t-10.5 -90.5h-104q5 46 10.5 90.5t10.5 90.5h-87q3 26 6.5 50.5t5.5 49.5h87l11 87h-87l11 99h86q7 48 12.5 93.5l11.5 92.5h104l-24 -186h84q5 48 11 93.5l12 92.5h104l-24 -186h95q-3 -25 -5 -49.5t-5 -49.5
h-96l-10 -87h95q-3 -25 -6.5 -49.5t-5.5 -50.5h-95l-22 -181h-103zM252 368q-2 -22 -4.5 -43.5t-5.5 -43.5h83l10 87h-83z" />
    <glyph glyph-name="percent" unicode="%" horiz-adv-x="733" 
d="M159 0l303 508h113l-303 -508h-113zM562 -22q-28 0 -52.5 10.5t-43 28.5t-29 42.5t-10.5 52.5t10.5 52t29 42t43 28.5t52.5 10.5q27 0 51.5 -10.5t43 -28.5t29.5 -42t11 -52t-11 -52.5t-29.5 -42.5t-43 -28.5t-51.5 -10.5zM173 262q-27 0 -51.5 10.5t-43 28.5t-29.5 42
t-11 52t11 52t29.5 42t43 28.5t51.5 10.5t51.5 -10.5t43 -28.5t29.5 -42t11 -52t-11 -52t-29.5 -42t-43 -28.5t-51.5 -10.5zM142 395q0 -14 8 -24t23 -10t23 10t8 24q0 15 -8 24t-23 9t-23 -9t-8 -24zM531 113q0 -15 8 -24.5t23 -9.5q16 0 23.5 9.5t7.5 24.5q0 14 -7.5 23
t-23.5 9q-15 0 -23 -9t-8 -23z" />
    <glyph glyph-name="quoteright" unicode="&#x2019;" horiz-adv-x="184" 
d="M91 574l-25 12t-26 14q22 20 31.5 50t2.5 65l62 7q8 -42 -4 -80.5t-41 -67.5z" />
    <glyph glyph-name="parenleft" unicode="(" horiz-adv-x="304" 
d="M35 295q0 76 14 145t37.5 128.5t53.5 107.5t62 81q23 -6 46.5 -11.5t46.5 -11.5q-29 -33 -57.5 -79t-50.5 -101.5t-35.5 -121t-13.5 -137.5t13.5 -137t35.5 -121t50.5 -101.5t57.5 -78.5q-23 -7 -46.5 -12.5t-46.5 -11.5q-32 34 -62 82t-53.5 107t-37.5 128t-14 145z" />
    <glyph glyph-name="parenright" unicode=")" horiz-adv-x="305" 
d="M270 291q0 -76 -14 -145t-37.5 -128t-53.5 -107t-62 -82l-93 21q30 33 58 79t50 101.5t35.5 121t13.5 137.5t-13.5 137t-35.5 121t-50 101.5t-58 79.5l46.5 12.5l46.5 13.5q32 -34 62 -82t53.5 -107t37.5 -128.5t14 -145.5z" />
    <glyph glyph-name="asterisk" unicode="*" horiz-adv-x="374" 
d="M254 575l73 -42l-35 -61l-72 43q0 -20 -0.5 -40.5t-0.5 -40.5h-67v81l-71 -40l-35 61l35.5 20l36.5 20l-71 43l16 28.5l16 28.5l73 -42v86h71q0 -22 -0.5 -43t-0.5 -43q18 11 36.5 21l37.5 20l16.5 -28.5l16.5 -28.5l-37 -21.5z" />
    <glyph glyph-name="plus" unicode="+" horiz-adv-x="447" 
d="M171 52v132h-130v100h130v133h105v-133h130v-100h-130v-132h-105z" />
    <glyph glyph-name="nine" unicode="9" horiz-adv-x="533" 
d="M385 424q0 25 -9 47.5t-25 40t-37.5 27.5t-46.5 10t-47 -10t-39 -27.5t-27 -40t-10 -47.5q0 -26 10 -48t27 -38.5t39 -26t47 -9.5t46.5 9.5t37.5 26t25 38.5t9 48zM492 424q0 -54 -17 -101.5t-44.5 -89t-62.5 -77.5t-71.5 -66t-71.5 -54.5l-61 -43.5l-32.5 39.5
l-31.5 39.5l54.5 36.5l60.5 41t54 39t35 30.5q-14 -16 -36 -16q-46 0 -87.5 17t-72.5 47t-49 70t-18 87q0 46 18 87t49 72t72 48.5t87 17.5q37 0 76.5 -13t72.5 -40t54.5 -69.5t21.5 -101.5z" />
    <glyph glyph-name="bar" unicode="|" horiz-adv-x="272" 
d="M84 -236v947h104v-947h-104z" />
    <glyph glyph-name="braceleft" unicode="{" horiz-adv-x="339" 
d="M27 252v97q25 1 40.5 15t24.5 34t12 44t3 45v151q0 48 10 72.5t27.5 35t41 11.5t50.5 1h70v-100h-41q-15 0 -25.5 -3.5t-16.5 -14t-8.5 -31t-2.5 -53.5v-126q0 -27 -7 -47.5t-17 -36.5t-21 -26.5t-20 -17.5q9 -6 20 -16.5t21 -26.5t17 -36.5t7 -46.5v-125
q0 -33 2.5 -53.5t8.5 -31.5t16.5 -14.5t25.5 -3.5h41v-100h-70q-25 0 -48 0.5t-41 10.5t-29 33t-11 67v155q0 21 -3 45t-12 44t-24.5 34t-40.5 15z" />
    <glyph glyph-name="braceright" unicode="}" horiz-adv-x="340" 
d="M313 349v-97q-23 -1 -38 -13t-25 -30t-14 -40.5t-4 -44.5v-156q0 -47 -10 -72t-27.5 -35.5t-40.5 -11.5t-50 -1h-71v100h41q16 0 26 3.5t16 14.5t8.5 31.5t2.5 53.5v116q0 30 7 52.5t17 39t21.5 27t20.5 16.5q-9 7 -20.5 17.5t-21.5 26.5t-17 36.5t-7 47.5v126
q0 33 -2.5 53.5t-8.5 31t-16 14t-26 3.5h-41v100h71q25 0 48.5 -1t41 -11.5t28 -35t10.5 -72.5v-161q0 -21 4 -43.5t14 -41t25 -30.5t38 -13z" />
    <glyph glyph-name="zero" unicode="0" horiz-adv-x="636" 
d="M46 333q0 84 22 147t59.5 105t87 62.5t104.5 20.5q60 0 110 -23.5t86 -67.5t56 -107t19 -142q-1 -80 -22 -143t-57.5 -106t-86.5 -65.5t-108 -22.5q-56 0 -105.5 22.5t-86 65.5t-57.5 107t-21 147zM149 330q0 -48 12.5 -91t35 -75.5t53.5 -52t66 -19.5t66 19t54 51.5
t36.5 76t13.5 91.5q0 32 -7.5 73.5t-26 78t-51 62t-81.5 25.5q-52 0 -85 -27t-52 -64.5t-26.5 -78.5t-7.5 -69z" />
    <glyph glyph-name="hyphen" unicode="-" horiz-adv-x="298" 
d="M55 171v101h187v-101h-187z" />
    <glyph glyph-name="slash" unicode="/" horiz-adv-x="445" 
d="M29 -19l141.5 383.5l141.5 383.5h103l-282 -767h-104z" />
    <glyph glyph-name="backslash" unicode="\" horiz-adv-x="456" 
d="M145 748l141 -383.5l142 -383.5h-117l-141 383.5l-142 383.5h117z" />
    <glyph glyph-name="G" unicode="G" horiz-adv-x="688" 
d="M635 354v-310q-42 -25 -101.5 -38.5t-121.5 -13.5q-86 0 -155.5 27t-118.5 74t-75 112t-26 142q0 87 31 158.5t83.5 123t122 80t146.5 28.5q26 0 54.5 -3.5t56.5 -10.5t54 -16.5t47 -22.5l-60 -100q-14 9 -33.5 15.5t-40.5 11.5t-41.5 7.5t-38.5 2.5q-51 0 -97.5 -20.5
t-82.5 -55.5t-57.5 -83.5t-21.5 -103.5q0 -50 19 -95t53 -79.5t81 -55t103 -20.5q20 0 50 3.5t57 12.5v124h-136v106h249z" />
    <glyph glyph-name="V" unicode="V" horiz-adv-x="653" 
d="M121 729l195 -469q0 -1 4 -13.5t6 -23.5q2 11 6 23.5t5 13.5l195 469h121q-4 -9 -19 -45l-37.5 -88.5l-50 -117l-56.5 -131l-56.5 -131.5l-50 -117.5l-38 -88l-19.5 -44.5l-19 44.5l-37.5 88l-50 117.5l-56.5 131.5l-56.5 131l-50 117l-37.5 88.5t-19 45h121z" />
    <glyph glyph-name="S" unicode="S" horiz-adv-x="571" 
d="M514 688l-44 -100q-42 15 -83 24t-76 9q-61 0 -96.5 -24t-35.5 -61q0 -32 26.5 -52t66.5 -36t86.5 -32.5t86.5 -42.5t66.5 -66t26.5 -102q0 -48 -17.5 -87t-52.5 -67t-88.5 -43.5t-125.5 -15.5q-44 0 -80 6t-64.5 15t-50.5 19.5t-38 20.5l53 107q42 -23 90 -35.5
t85 -12.5q18 0 46.5 4t55.5 15t46.5 30t19.5 49q0 35 -26.5 57.5t-66.5 40t-86.5 34.5t-86.5 40.5t-66.5 58t-26.5 87.5q0 38 15 74.5t45.5 65.5t76 47t107.5 18q39 0 75.5 -6.5t65.5 -14.5t48 -15.5t23 -8.5z" />
    <glyph glyph-name="Z" unicode="Z" horiz-adv-x="640" 
d="M188 729h422l-396 -611h402v-118h-616l25.5 39l47.5 73.5l62 97l68.5 108.5l68.5 108l62 96l47.5 73t25.5 38h-271q-16 0 -32 4.5t-28.5 13.5t-20.5 21.5t-8 27.5v65h109v-13q0 -20 7 -21.5t25 -1.5z" />
    <glyph glyph-name="W" unicode="W" horiz-adv-x="953" 
d="M947 725l-75 -196.5l-77.5 -201l-74 -191.5l-63.5 -168l-164 406q-4 9 -5 12t-3 12q-1 -4 -1.5 -8t-1.5 -7q-1 -4 -3 -8l-69 -154l-29.5 -66.5l-30.5 -68l-29 -64.5l-25 -56l-145 379.5l-145 379.5h139l86.5 -239t64.5 -199q2 -8 4 -18t4 -18q0 6 4.5 17.5t6.5 17.5
q1 5 7 18.5l14 31.5l18 39.5l20 43.5l52 112l-26 80l-21.5 64.5t-15.5 49.5h118l78 -203l30 -77.5l27 -71l20.5 -55.5l11.5 -31q4 -9 5 -17.5t3 -17.5q2 9 3.5 18t3.5 17q10 45 27.5 96.5t38.5 107.5l44.5 115l45.5 119h128z" />
    <glyph glyph-name="X" unicode="X" horiz-adv-x="646" 
d="M243 373q-4 5 -21.5 32l-41.5 65l-52 81l-52 80.5l-41.5 64.5t-20.5 33h151l14 -23l26 -42.5l31.5 -52l31.5 -52l25.5 -42.5t14.5 -23q1 -1 7 -14l10 -22l10 22t7 14l13.5 23l25 42.5l30.5 52l30.5 52l25 42.5l13.5 23h151l-227 -363l236 -366h-153l-143 233q-1 1 -4.5 7
l-7.5 13l-8 14t-5 10q-4 -10 -9.5 -21t-5.5 -12q-4 -6 -15 -24.5l-26 -43.5l-32 -54l-32 -54l-26 -44t-15 -24h-154l22 34.5l43 67.5l54 84.5l54.5 84.5l43.5 67.5z" />
    <glyph glyph-name="AE" unicode="&#xc6;" horiz-adv-x="743" 
d="M313 0v192h-111l-80 -192h-121l18.5 43.5l36 84.5l47.5 111.5l53.5 125l54 125l48 111.5l36 84.5l18.5 43.5h380v-111h-265v-196h225v-114h-225v-194h279v-114h-394zM313 460l-29 -68.5l-43 -104.5h72v173z" />
    <glyph glyph-name="Ntilde" unicode="&#xd1;" horiz-adv-x="812" 
d="M728 729v-763q-7 9 -31 33l-59 57.5l-77.5 74l-86.5 82l-86 81.5l-76.5 73.5l-58 57t-30.5 32.5q-1 2 -8 10.5t-12 15.5l3 -32v-451h-122v762q7 -9 31 -32.5l59 -56.5l77.5 -72l86.5 -79.5l86 -80l77 -72l58.5 -55.5t30.5 -32l19 -28l-3 34v441h122zM393 789
q-16 14 -27 19.5t-25 5.5q-7 0 -15 -1.5t-15.5 -6.5t-13.5 -13.5t-7 -22.5l-54 2q1 21 10 38.5t22.5 30t30 19.5t32.5 7q25 0 44 -8t36 -24q16 -15 27 -20t25 -5q7 0 15 1.5t15.5 6.5t13 13.5t7.5 22.5l54 -2q-1 -21 -10 -38.5t-22.5 -30t-30 -19.5t-32.5 -7
q-24 0 -43.5 8.5t-36.5 23.5z" />
    <glyph glyph-name="Aring" unicode="&#xc5;" horiz-adv-x="653" 
d="M532 0l-10.5 25l-18.5 44l-24 57.5l-27 65.5h-251l-80 -192h-121l19 44.5l37.5 88l50 117l56.5 131.5l56.5 131.5l50 117l37.5 88l19 44.5l19.5 -44.5l38 -88l50 -117l56.5 -131.5l56.5 -131.5l50 -117l37.5 -88l19 -44.5h-121zM239 852q0 18 7 33.5t19 27.5t28 19t34 7
t34 -7t28 -19t19 -27.5t7 -33.5t-7 -34t-19 -28.5t-28 -19.5t-34 -7t-34 7t-28 19.5t-19 28.5t-7 34zM243 295h166l-72 174q-1 1 -5 13.5t-6 22.5q-2 -10 -6 -22.5t-4 -13.5zM294 850q0 -14 9.5 -23t23.5 -9t23.5 9t9.5 23q0 15 -9.5 24.5t-23.5 9.5t-23.5 -9.5t-9.5 -24.5z
" />
    <glyph glyph-name="Aacute" unicode="&#xc1;" horiz-adv-x="653" 
d="M653 0l-19 44.5l-37.5 88l-50 117l-56.5 131.5l-56.5 131.5l-50 117l-38 88l-19.5 44.5l-19 -44.5l-37.5 -88l-50 -117l-56.5 -131.5l-56.5 -131.5l-50 -117l-37.5 -88l-19 -44.5h121l80 192h251l27 -65.5l24 -57.5l18.5 -44l10.5 -25h121zM316 469q0 1 4 13.5t6 22.5
q2 -10 6 -22.5t5 -13.5l72 -174h-166zM275 770l45.5 67l45.5 68h103l-61 -68l-62 -67h-71z" />
    <glyph glyph-name="Eacute" unicode="&#xc9;" horiz-adv-x="619" 
d="M84 0v729h484v-111h-362v-196h322v-114h-322v-194h376v-114h-498zM269 770l45.5 67l45.5 68h103l-61 -68l-62 -67h-71z" />
    <glyph glyph-name="Iacute" unicode="&#xcd;" horiz-adv-x="291" 
d="M84 729h123v-729h-123v729zM94 770l45.5 67l45.5 68h103l-61 -68l-62 -67h-71z" />
    <glyph glyph-name="Oacute" unicode="&#xd3;" horiz-adv-x="817" 
d="M36 363q0 76 29.5 144t80 119t118 81t144.5 30q76 0 144 -30t119 -81t80.5 -119t29.5 -144q0 -77 -29.5 -144.5t-80.5 -118t-119 -79.5t-144 -29q-77 0 -144.5 29t-118 79.5t-80 118t-29.5 144.5zM159 363q0 -53 19.5 -99.5t54 -81t80 -54.5t98.5 -20q51 0 96.5 20
t79 54.5t53 81t19.5 99.5t-20 99.5t-54 81.5t-79.5 55t-97.5 20t-97.5 -20t-79 -55t-53 -81.5t-19.5 -99.5zM350 770l45.5 67l45.5 68h103l-61 -68l-62 -67h-71z" />
    <glyph glyph-name="Uacute" unicode="&#xda;" horiz-adv-x="720" 
d="M359 -8q-59 0 -110.5 19.5t-89.5 54.5t-60 84.5t-22 109.5v469h122v-466q0 -32 12.5 -60t34 -49t50.5 -33.5t63 -12.5t63.5 12.5t51.5 33.5t34.5 49t12.5 60v466h122v-469q0 -60 -22 -109.5t-60.5 -84.5t-90.5 -54.5t-111 -19.5zM306 770l45.5 67l45.5 68h103l-61 -68
l-62 -67h-71z" />
    <glyph glyph-name="Adieresis" unicode="&#xc4;" horiz-adv-x="653" 
d="M653 0l-19 44.5l-37.5 88l-50 117l-56.5 131.5l-56.5 131.5l-50 117l-38 88l-19.5 44.5l-19 -44.5l-37.5 -88l-50 -117l-56.5 -131.5l-56.5 -131.5l-50 -117l-37.5 -88l-19 -44.5h121l80 192h251l27 -65.5l24 -57.5l18.5 -44l10.5 -25h121zM316 469q0 1 4 13.5t6 22.5
q2 -10 6 -22.5t5 -13.5l72 -174h-166zM361 837q0 26 19.5 44t42.5 18q21 0 40.5 -18t19.5 -44q0 -28 -19.5 -45t-40.5 -17q-23 0 -42.5 17t-19.5 45zM168 837q0 26 19.5 44t42.5 18q21 0 40.5 -18t19.5 -44q0 -28 -19.5 -45t-40.5 -17q-23 0 -42.5 17t-19.5 45z" />
    <glyph glyph-name="Edieresis" unicode="&#xcb;" horiz-adv-x="619" 
d="M84 0v729h484v-111h-362v-196h322v-114h-322v-194h376v-114h-498zM375 837q0 26 19.5 44t42.5 18q21 0 40.5 -18t19.5 -44q0 -28 -19.5 -45t-40.5 -17q-23 0 -42.5 17t-19.5 45zM182 837q0 26 19.5 44t42.5 18q21 0 40.5 -18t19.5 -44q0 -28 -19.5 -45t-40.5 -17
q-23 0 -42.5 17t-19.5 45z" />
    <glyph glyph-name="Idieresis" unicode="&#xcf;" horiz-adv-x="291" 
d="M84 729h123v-729h-123v729zM184 837q0 26 19.5 44t42.5 18q21 0 40.5 -18t19.5 -44q0 -28 -19.5 -45t-40.5 -17q-23 0 -42.5 17t-19.5 45zM-9 837q0 26 19.5 44t42.5 18q21 0 40.5 -18t19.5 -44q0 -28 -19.5 -45t-40.5 -17q-23 0 -42.5 17t-19.5 45z" />
    <glyph glyph-name="Odieresis" unicode="&#xd6;" horiz-adv-x="817" 
d="M36 363q0 76 29.5 144t80 119t118 81t144.5 30q76 0 144 -30t119 -81t80.5 -119t29.5 -144q0 -77 -29.5 -144.5t-80.5 -118t-119 -79.5t-144 -29q-77 0 -144.5 29t-118 79.5t-80 118t-29.5 144.5zM159 363q0 -53 19.5 -99.5t54 -81t80 -54.5t98.5 -20q51 0 96.5 20
t79 54.5t53 81t19.5 99.5t-20 99.5t-54 81.5t-79.5 55t-97.5 20t-97.5 -20t-79 -55t-53 -81.5t-19.5 -99.5zM449 837q0 26 19.5 44t42.5 18q21 0 40.5 -18t19.5 -44q0 -28 -19.5 -45t-40.5 -17q-23 0 -42.5 17t-19.5 45zM256 837q0 26 19.5 44t42.5 18q21 0 40.5 -18
t19.5 -44q0 -28 -19.5 -45t-40.5 -17q-23 0 -42.5 17t-19.5 45z" />
    <glyph glyph-name="Udieresis" unicode="&#xdc;" horiz-adv-x="720" 
d="M359 -8q-59 0 -110.5 19.5t-89.5 54.5t-60 84.5t-22 109.5v469h122v-466q0 -32 12.5 -60t34 -49t50.5 -33.5t63 -12.5t63.5 12.5t51.5 33.5t34.5 49t12.5 60v466h122v-469q0 -60 -22 -109.5t-60.5 -84.5t-90.5 -54.5t-111 -19.5zM405 837q0 26 19.5 44t42.5 18
q21 0 40.5 -18t19.5 -44q0 -28 -19.5 -45t-40.5 -17q-23 0 -42.5 17t-19.5 45zM212 837q0 26 19.5 44t42.5 18q21 0 40.5 -18t19.5 -44q0 -28 -19.5 -45t-40.5 -17q-23 0 -42.5 17t-19.5 45z" />
    <glyph glyph-name="Agrave" unicode="&#xc0;" horiz-adv-x="653" 
d="M653 0l-19 44.5l-37.5 88l-50 117l-56.5 131.5l-56.5 131.5l-50 117l-38 88l-19.5 44.5l-19 -44.5l-37.5 -88l-50 -117l-56.5 -131.5l-56.5 -131.5l-50 -117l-37.5 -88l-19 -44.5h121l80 192h251l27 -65.5l24 -57.5l18.5 -44l10.5 -25h121zM316 469q0 1 4 13.5t6 22.5
q2 -10 6 -22.5t5 -13.5l72 -174h-166zM291 905l46 -68l46 -67h-72l-62 67l-61 68h103z" />
    <glyph glyph-name="Egrave" unicode="&#xc8;" horiz-adv-x="619" 
d="M84 0v729h484v-111h-362v-196h322v-114h-322v-194h376v-114h-498zM314 905l46 -68l46 -67h-72l-62 67l-61 68h103z" />
    <glyph glyph-name="Igrave" unicode="&#xcc;" horiz-adv-x="291" 
d="M84 729h123v-729h-123v729zM109 905l46 -68l46 -67h-72l-62 67l-61 68h103z" />
    <glyph glyph-name="Ograve" unicode="&#xd2;" horiz-adv-x="817" 
d="M36 363q0 76 29.5 144t80 119t118 81t144.5 30q76 0 144 -30t119 -81t80.5 -119t29.5 -144q0 -77 -29.5 -144.5t-80.5 -118t-119 -79.5t-144 -29q-77 0 -144.5 29t-118 79.5t-80 118t-29.5 144.5zM159 363q0 -53 19.5 -99.5t54 -81t80 -54.5t98.5 -20q51 0 96.5 20
t79 54.5t53 81t19.5 99.5t-20 99.5t-54 81.5t-79.5 55t-97.5 20t-97.5 -20t-79 -55t-53 -81.5t-19.5 -99.5zM396 905l46 -68l46 -67h-72l-62 67l-61 68h103z" />
    <glyph glyph-name="Ugrave" unicode="&#xd9;" horiz-adv-x="720" 
d="M359 -8q-59 0 -110.5 19.5t-89.5 54.5t-60 84.5t-22 109.5v469h122v-466q0 -32 12.5 -60t34 -49t50.5 -33.5t63 -12.5t63.5 12.5t51.5 33.5t34.5 49t12.5 60v466h122v-469q0 -60 -22 -109.5t-60.5 -84.5t-90.5 -54.5t-111 -19.5zM340 905l46 -68l46 -67h-72l-62 67
l-61 68h103z" />
    <glyph glyph-name="Yacute" unicode="&#xdd;" horiz-adv-x="669" 
d="M396 236v-236h-123v236q-5 7 -25 44.5l-49 90l-61 112l-61 112l-49 90t-25 44.5h139l15.5 -28.5l27.5 -52l35 -67l38 -73l36 -70l30 -58.5l11 -34q4 8 7 17.5t6 16.5l30 58.5l35.5 70l37 73l34 67l26.5 52t15 28.5h139zM283 770l45.5 67l45.5 68h103l-61 -68l-62 -67h-71
z" />
    <glyph glyph-name="exclamdown" unicode="&#xa1;" horiz-adv-x="273" 
d="M85 381h103v-594h-103v594zM137 559q22 0 41 -18t19 -45t-19 -44t-41 -17q-24 0 -43 17t-19 44t19 45t43 18z" />
    <glyph glyph-name="Oslash" unicode="&#xd8;" horiz-adv-x="817" 
d="M36 363q0 76 29.5 144t80 119t118 81t144.5 30q59 0 113 -18.5t99 -50.5l57 66l57 -52l-56 -65q48 -51 75.5 -116t27.5 -138q0 -77 -29.5 -144.5t-80.5 -118t-119 -79.5t-144 -29q-59 0 -112 17t-98 48l-65 -75l-59 52l64 74q-48 50 -75 115t-27 140zM159 363
q0 -47 15 -89t43 -75l326 379q-29 20 -63.5 30.5t-71.5 10.5q-52 0 -97.5 -20t-79 -55t-53 -81.5t-19.5 -99.5zM275 147q29 -19 63.5 -29t72.5 -10q51 0 96.5 20t79 54.5t53 81t19.5 99.5q0 47 -15.5 88.5t-43.5 74.5z" />
    <glyph glyph-name="questiondown" unicode="&#xbf;" horiz-adv-x="475" 
d="M353 -11l44.5 -16.5l44.5 -16.5q-6 -20 -18 -48t-35 -53t-60 -42.5t-94 -17.5q-42 0 -78.5 15.5t-63 42.5t-42 63t-15.5 77q0 57 26.5 100t72.5 78l29 20t30.5 25t24.5 33t10 44v80h104v-99q0 -33 -10 -54t-26.5 -36.5t-38 -29t-43.5 -30.5q-74 -56 -74 -131
q0 -42 25.5 -70t68.5 -28q28 0 47 6t32.5 17.5t22 29t16.5 41.5zM282 545q23 0 42.5 -16.5t19.5 -44.5q0 -26 -19.5 -44t-42.5 -18q-22 0 -41 18t-19 44q0 28 19 44.5t41 16.5z" />
    <glyph glyph-name="Atilde" unicode="&#xc3;" horiz-adv-x="653" 
d="M653 0l-19 44.5l-37.5 88l-50 117l-56.5 131.5l-56.5 131.5l-50 117l-38 88l-19.5 44.5l-19 -44.5l-37.5 -88l-50 -117l-56.5 -131.5l-56.5 -131.5l-50 -117l-37.5 -88l-19 -44.5h121l80 192h251l27 -65.5l24 -57.5l18.5 -44l10.5 -25h121zM318 800q-16 14 -27 19.5
t-25 5.5q-7 0 -15 -1.5t-15.5 -6.5t-13.5 -13.5t-7 -22.5l-54 2q1 21 10 38.5t22.5 30t30 19.5t32.5 7q25 0 44 -8t36 -24q16 -15 27 -20t25 -5q7 0 15 1.5t15.5 6.5t13 13.5t7.5 22.5l54 -2q-1 -21 -10 -38.5t-22.5 -30t-30 -19.5t-32.5 -7q-24 0 -43.5 8.5t-36.5 23.5z
M316 469q0 1 4 13.5t6 22.5q2 -10 6 -22.5t5 -13.5l72 -174h-166z" />
    <glyph glyph-name="Otilde" unicode="&#xd5;" horiz-adv-x="817" 
d="M36 363q0 76 29.5 144t80 119t118 81t144.5 30q76 0 144 -30t119 -81t80.5 -119t29.5 -144q0 -77 -29.5 -144.5t-80.5 -118t-119 -79.5t-144 -29q-77 0 -144.5 29t-118 79.5t-80 118t-29.5 144.5zM159 363q0 -53 19.5 -99.5t54 -81t80 -54.5t98.5 -20q51 0 96.5 20
t79 54.5t53 81t19.5 99.5t-20 99.5t-54 81.5t-79.5 55t-97.5 20t-97.5 -20t-79 -55t-53 -81.5t-19.5 -99.5zM400 823q-16 14 -27 19.5t-25 5.5q-7 0 -15 -1.5t-15.5 -6.5t-13.5 -13.5t-7 -22.5l-54 2q1 21 10 38.5t22.5 30t30 19.5t32.5 7q25 0 44 -8t36 -24q16 -15 27 -20
t25 -5q7 0 15 1.5t15.5 6.5t13 13.5t7.5 22.5l54 -2q-1 -21 -10 -38.5t-22.5 -30t-30 -19.5t-32.5 -7q-24 0 -43.5 8.5t-36.5 23.5z" />
    <glyph glyph-name="acircumflex" unicode="&#xe2;" horiz-adv-x="546" 
d="M31 208q0 46 18 87.5t48.5 72.5t71 49.5t85.5 18.5q30 0 54 -7.5t41.5 -17.5t27.5 -20.5t13 -16.5l4 51h93v-425h-97v28q0 5 0.5 9.5t0.5 6.5q-4 -5 -14 -14.5t-27 -18.5t-40.5 -15.5t-54.5 -6.5q-49 0 -90 18t-71 48t-46.5 69.5t-16.5 83.5zM128 214q0 -28 9.5 -52
t27 -41.5t41.5 -27.5t53 -10t53 10t41.5 28t27 42t9.5 51t-9.5 50.5t-27 40.5t-41.5 27t-53 10t-53 -9.5t-41.5 -27t-27 -41t-9.5 -50.5zM257 669l61.5 -91l61.5 -92h-72l-51 67l-50 -67h-71z" />
    <glyph glyph-name="ecircumflex" unicode="&#xea;" horiz-adv-x="473" 
d="M424 49q-31 -28 -75 -44t-90 -16q-47 0 -88.5 17.5t-72 48t-48.5 71t-18 86.5t18 86.5t48.5 71t71 48t85.5 17.5q72 0 126.5 -43.5t77.5 -114.5l-69.5 -26.5l-82.5 -32.5l-86 -34.5l-79 -31.5q17 -31 47 -50t68 -19q26 0 52.5 9.5t43.5 25.5zM227 670l61.5 -91l61.5 -92
h-72l-51 67l-50 -67h-71zM340 299q-12 22 -36 32.5t-47 10.5q-27 0 -51 -10.5t-41 -28t-27 -40t-10 -46.5v-4l53.5 21.5l57 23.5l54.5 22.5z" />
    <glyph glyph-name="icircumflex" unicode="&#xee;" horiz-adv-x="214" 
d="M155 0h-96v425h96v-425zM108 670l61.5 -91l61.5 -92h-72l-51 67l-50 -67h-71z" />
    <glyph glyph-name="ocircumflex" unicode="&#xf4;" horiz-adv-x="514" 
d="M32 213q0 46 17.5 86.5t48.5 70.5t72.5 47.5t88.5 17.5q48 0 89 -17.5t70.5 -47.5t46.5 -70.5t17 -86.5t-16.5 -87t-46.5 -71.5t-71 -48t-90 -17.5q-47 0 -88 16t-71.5 45.5t-48.5 71t-18 91.5zM127 212q0 -27 10 -50.5t27.5 -41t41 -27.5t50.5 -10t50.5 10t41 27.5
t28 41t10.5 50.5t-10.5 50.5t-28 41t-41 28t-50.5 10.5t-50.5 -10.5t-41 -28t-27.5 -41t-10 -50.5zM258 670l61.5 -91l61.5 -92h-72l-51 67l-50 -67h-71z" />
    <glyph glyph-name="ucircumflex" unicode="&#xfb;" horiz-adv-x="523" 
d="M463 -10h-80l-12 118q-23 -51 -63.5 -84.5t-106.5 -33.5t-104.5 34.5t-40.5 91.5v309h96v-264q2 -31 21.5 -52.5t62.5 -23.5q29 0 53 10t41.5 28t27.5 43t10 54v205h95v-435zM235 670l61.5 -91l61.5 -92h-72l-51 67l-50 -67h-71z" />
    <glyph glyph-name="atilde" unicode="&#xe3;" horiz-adv-x="546" 
d="M31 208q0 46 18 87.5t48.5 72.5t71 49.5t85.5 18.5q30 0 54 -7.5t41.5 -17.5t27.5 -20.5t13 -16.5l4 51h93v-425h-97v28q0 5 0.5 9.5t0.5 6.5q-4 -5 -14 -14.5t-27 -18.5t-40.5 -15.5t-54.5 -6.5q-49 0 -90 18t-71 48t-46.5 69.5t-16.5 83.5zM128 214q0 -28 9.5 -52
t27 -41.5t41.5 -27.5t53 -10t53 10t41.5 28t27 42t9.5 51t-9.5 50.5t-27 40.5t-41.5 27t-53 10t-53 -9.5t-41.5 -27t-27 -41t-9.5 -50.5zM248 485q-16 14 -27 19.5t-25 5.5q-7 0 -15 -1.5t-15.5 -6.5t-13.5 -13.5t-7 -22.5l-54 2q1 21 10 38.5t22.5 30t30 19.5t32.5 7
q25 0 44 -8t36 -24q16 -15 27 -20t25 -5q7 0 15 1.5t15.5 6.5t13 13.5t7.5 22.5l54 -2q-1 -21 -10 -38.5t-22.5 -30t-30 -19.5t-32.5 -7q-24 0 -43.5 8.5t-36.5 23.5z" />
    <glyph glyph-name="grave" unicode="`" horiz-adv-x="204" 
d="M42 622l46 -68l46 -67h-72l-62 67l-61 68h103z" />
    <glyph glyph-name="asciicircum" unicode="^" horiz-adv-x="356" 
d="M177 670l61.5 -91l61.5 -92h-72l-51 67l-50 -67h-71z" />
    <glyph glyph-name="otilde" unicode="&#xf5;" horiz-adv-x="514" 
d="M32 213q0 46 17.5 86.5t48.5 70.5t72.5 47.5t88.5 17.5q48 0 89 -17.5t70.5 -47.5t46.5 -70.5t17 -86.5t-16.5 -87t-46.5 -71.5t-71 -48t-90 -17.5q-47 0 -88 16t-71.5 45.5t-48.5 71t-18 91.5zM127 212q0 -27 10 -50.5t27.5 -41t41 -27.5t50.5 -10t50.5 10t41 27.5
t28 41t10.5 50.5t-10.5 50.5t-28 41t-41 28t-50.5 10.5t-50.5 -10.5t-41 -28t-27.5 -41t-10 -50.5zM259 485q-16 14 -27 19.5t-25 5.5q-7 0 -15 -1.5t-15.5 -6.5t-13.5 -13.5t-7 -22.5l-54 2q1 21 10 38.5t22.5 30t30 19.5t32.5 7q25 0 44 -8t36 -24q16 -15 27 -20t25 -5
q7 0 15 1.5t15.5 6.5t13 13.5t7.5 22.5l54 -2q-1 -21 -10 -38.5t-22.5 -30t-30 -19.5t-32.5 -7q-24 0 -43.5 8.5t-36.5 23.5z" />
    <glyph glyph-name="quotesingle" unicode="'" horiz-adv-x="227" 
d="M63 479v252h103l-4 -252h-99z" />
    <glyph glyph-name="underscore" unicode="_" horiz-adv-x="516" 
d="M461 0h-406v100h406v-100z" />
    <glyph glyph-name="bracketleft" unicode="[" horiz-adv-x="320" 
d="M85 -151v909h203v-100h-101v-710h101v-99h-203z" />
    <glyph glyph-name="bracketright" unicode="]" horiz-adv-x="320" 
d="M235 758v-909h-203v99h101v710h-101v100h203z" />
    <glyph glyph-name="degree" unicode="&#xb0;" horiz-adv-x="304" 
d="M153 523q20 0 33 13t13 32t-13 32.5t-33 13.5q-19 0 -32 -13.5t-13 -32.5t13 -32t32 -13zM43 569q0 22 8.5 42t23.5 34.5t35 23t43 8.5q22 0 41.5 -8.5t34.5 -23t23.5 -34.5t8.5 -42q0 -23 -8.5 -42.5t-23.5 -34t-34.5 -23t-41.5 -8.5q-23 0 -43 8.5t-35 23t-23.5 34
t-8.5 42.5z" />
    <glyph glyph-name="ccedilla" unicode="&#xe7;" horiz-adv-x="425" 
d="M343 111l29 -36.5l29 -35.5q-28 -23 -63 -36t-74 -14q0 -14 4.5 -21.5t11 -12.5t14 -8.5t13.5 -8.5q20 -16 29 -37t9 -50q0 -20 -7 -40t-21 -36t-35 -26t-50 -10q-36 0 -66.5 19.5t-44.5 61.5q13 8 27 15l28 14q5 -15 17 -25t30 -10q23 0 34.5 15t11.5 38
q0 19 -10.5 28.5t-23 19t-23 23t-10.5 39.5v19q-37 9 -68 29.5t-53.5 49t-35.5 64t-13 74.5q0 46 18 86.5t48.5 71t72 48t88.5 17.5q42 0 78.5 -13.5t66.5 -36.5l-61 -71q-35 27 -84 27q-29 0 -53 -10t-41.5 -27t-27 -40.5t-9.5 -51.5q0 -27 9.5 -50.5t27 -41.5t41.5 -28
t53 -10q50 0 84 28z" />
    <glyph glyph-name="Ccedilla" unicode="&#xc7;" horiz-adv-x="640" 
d="M633 54q-11 -8 -30.5 -18t-46.5 -19t-60.5 -16t-71.5 -8v-1q0 -15 4.5 -23t11 -13.5t14 -9t13.5 -8.5q20 -16 29 -37t9 -50q0 -20 -7 -40t-21 -36t-35 -26t-50 -10q-36 0 -66.5 19.5t-44.5 61.5q13 8 27 15l28 14q5 -15 17 -25t30 -10q23 0 34.5 15t11.5 38
q0 19 -10.5 28.5t-23 19t-23 23t-10.5 39.5v17q-77 7 -137 39t-102 81t-64 112t-22 133q0 82 30 151.5t81.5 120t120 78.5t146.5 28q30 0 60.5 -4.5t57.5 -11.5t47.5 -16t29.5 -19q-9 -14 -14 -23l-10.5 -18.5l-12 -21.5l-18.5 -33q-12 8 -29 14t-35.5 9.5t-37.5 5.5t-34 2
q-56 0 -103.5 -21t-82 -55.5t-54 -80.5t-19.5 -95q0 -48 18.5 -93.5t52 -80.5t79.5 -56.5t102 -21.5q32 0 62 6.5t53 14.5t37.5 16t15.5 11z" />
    <glyph glyph-name="endash" unicode="&#x2013;" horiz-adv-x="419" 
d="M57 168v99h305v-99h-305z" />
    <glyph glyph-name="emdash" unicode="&#x2014;" horiz-adv-x="624" 
d="M57 168v99h510v-99h-510z" />
    <glyph glyph-name="cedilla" unicode="&#xb8;" horiz-adv-x="459" 
d="M184 0h62v-8q0 -15 4.5 -23t11 -13.5t14 -9t13.5 -8.5q20 -16 29 -37t9 -50q0 -20 -7 -40t-21 -36t-35 -26t-50 -10q-36 0 -66.5 19.5t-44.5 61.5q13 8 27 15l28 14q5 -15 17 -25t30 -10q23 0 34.5 15t11.5 38q0 19 -10.5 29.5t-23 19.5t-23 18.5t-10.5 26.5v39z" />
    <glyph glyph-name="acute" unicode="&#xb4;" horiz-adv-x="293" 
d="M102 487l45.5 67l45.5 68h103l-61 -68l-62 -67h-71z" />
    <glyph glyph-name="dieresis" unicode="&#xa8;" horiz-adv-x="376" 
d="M234 534q0 26 19.5 44t42.5 18q21 0 40.5 -18t19.5 -44q0 -28 -19.5 -45t-40.5 -17q-23 0 -42.5 17t-19.5 45zM41 534q0 26 19.5 44t42.5 18q21 0 40.5 -18t19.5 -44q0 -28 -19.5 -45t-40.5 -17q-23 0 -42.5 17t-19.5 45z" />
    <glyph glyph-name="Eth" unicode="&#xd0;" horiz-adv-x="719" 
d="M18 396h72v333h189q110 0 186.5 -33.5t124.5 -86.5t69.5 -120.5t21.5 -134.5q0 -82 -29.5 -147.5t-79.5 -111.5t-116.5 -70.5t-140.5 -24.5h-225v314h-72v82zM296 116q57 0 105 16t83 47.5t54.5 77t19.5 105.5q0 68 -23.5 115.5t-59.5 77t-80 43t-84 13.5h-98v-215h108
v-82h-108v-198h83z" />
    <glyph glyph-name="thorn" unicode="&#xfe;" horiz-adv-x="547" 
d="M514 211q0 -48 -16 -88.5t-45.5 -70.5t-70.5 -46.5t-90 -16.5t-86.5 18.5t-51.5 39.5q0 -4 0.5 -7.5t0.5 -8.5v-235h-96v985h96v-410q8 10 20.5 21.5t30.5 21t40.5 16t49.5 6.5q49 0 89 -15.5t68.5 -45t44.5 -71t16 -93.5zM410 213q0 56 -32.5 92.5t-90.5 36.5
q-29 0 -53 -9.5t-41.5 -27t-27.5 -41t-10 -50.5q0 -28 10 -52t27.5 -41.5t41.5 -27.5t53 -10t52 10t38.5 28t24 41.5t8.5 50.5z" />
    <glyph glyph-name="eth" unicode="&#xf0;" horiz-adv-x="519" 
d="M33 213q0 46 17.5 86.5t48.5 70.5t72.5 47.5t88.5 17.5q21 0 41 -4t39 -11q-29 92 -100 189q-14 -17 -28.5 -31.5t-28.5 -30.5l-55 50q31 36 66 72q-25 28 -50.5 53.5t-53.5 48.5l58 53q27 -20 52 -43.5t50 -49.5l28 29.5t28 31.5l55 -50l-31.5 -34l-31.5 -35
q36 -47 69.5 -103t59 -115.5t41 -120t15.5 -115.5v-6q0 -46 -16.5 -87t-46.5 -71.5t-71 -48t-90 -17.5q-47 0 -88 16t-71.5 45.5t-48.5 71t-18 91.5zM128 212q0 -27 10 -50.5t27.5 -41t41 -27.5t50.5 -10t50.5 10t41 27.5t28 41t10.5 50.5t-10.5 50.5t-28 41t-41 28
t-50.5 10.5t-50.5 -10.5t-41 -28t-27.5 -41t-10 -50.5z" />
    <glyph glyph-name="Thorn" unicode="&#xde;" horiz-adv-x="578" 
d="M84 0v711h122v-111h84q60 0 109.5 -16t84 -46t53.5 -74t19 -99q0 -44 -13 -87.5t-42.5 -78t-76.5 -56t-116 -21.5h-102v-122h-122zM206 237h98q38 0 63 13t40 32.5t21 41t6 38.5q0 16 -5.5 37.5t-20 40.5t-39.5 32t-64 13h-99v-248z" />
    <glyph glyph-name="Acircumflex" unicode="&#xc2;" horiz-adv-x="653" 
d="M653 0l-19 44.5l-37.5 88l-50 117l-56.5 131.5l-56.5 131.5l-50 117l-38 88l-19.5 44.5l-19 -44.5l-37.5 -88l-50 -117l-56.5 -131.5l-56.5 -131.5l-50 -117l-37.5 -88l-19 -44.5h121l80 192h251l27 -65.5l24 -57.5l18.5 -44l10.5 -25h121zM335 954l61.5 -91l61.5 -92
h-72l-51 67l-50 -67h-71zM316 469q0 1 4 13.5t6 22.5q2 -10 6 -22.5t5 -13.5l72 -174h-166z" />
    <glyph glyph-name="Ecircumflex" unicode="&#xca;" horiz-adv-x="619" 
d="M84 0v729h484v-111h-362v-196h322v-114h-322v-194h376v-114h-498zM339 954l61.5 -91l61.5 -92h-72l-51 67l-50 -67h-71z" />
    <glyph glyph-name="Icircumflex" unicode="&#xce;" horiz-adv-x="291" 
d="M84 729h123v-729h-123v729zM146 954l61.5 -91l61.5 -92h-72l-51 67l-50 -67h-71z" />
    <glyph glyph-name="Ocircumflex" unicode="&#xd4;" horiz-adv-x="817" 
d="M36 363q0 76 29.5 144t80 119t118 81t144.5 30q76 0 144 -30t119 -81t80.5 -119t29.5 -144q0 -77 -29.5 -144.5t-80.5 -118t-119 -79.5t-144 -29q-77 0 -144.5 29t-118 79.5t-80 118t-29.5 144.5zM159 363q0 -53 19.5 -99.5t54 -81t80 -54.5t98.5 -20q51 0 96.5 20
t79 54.5t53 81t19.5 99.5t-20 99.5t-54 81.5t-79.5 55t-97.5 20t-97.5 -20t-79 -55t-53 -81.5t-19.5 -99.5zM415 954l61.5 -91l61.5 -92h-72l-51 67l-50 -67h-71z" />
    <glyph glyph-name="Ucircumflex" unicode="&#xdb;" horiz-adv-x="720" 
d="M359 -8q-59 0 -110.5 19.5t-89.5 54.5t-60 84.5t-22 109.5v469h122v-466q0 -32 12.5 -60t34 -49t50.5 -33.5t63 -12.5t63.5 12.5t51.5 33.5t34.5 49t12.5 60v466h122v-469q0 -60 -22 -109.5t-60.5 -84.5t-90.5 -54.5t-111 -19.5zM365 979l61.5 -91l61.5 -92h-72l-51 67
l-50 -67h-71z" />
    <glyph glyph-name="plusminus" unicode="&#xb1;" horiz-adv-x="491" 
d="M193 214v133h-130v99h130v134h105v-134h130v-99h-130v-133h-105zM428 76h-365v100h365v-100z" />
    <glyph glyph-name="dollar" unicode="$" horiz-adv-x="592" 
d="M527 688l-44 -100q-38 14 -76 22.5t-71 10.5v-192q37 -14 75.5 -31t69.5 -42t50.5 -60.5t19.5 -86.5q0 -87 -57.5 -142t-157.5 -70v-65h-70v60h-2q-43 0 -79 6t-64.5 15.5t-50 20t-36.5 19.5l53 107q42 -23 90 -35.5t85 -12.5h4v224q-36 13 -70.5 29t-62.5 38t-45 52.5
t-17 72.5q0 34 12 67t36.5 60.5t61 47t85.5 26.5v67h70v-64q36 -2 68.5 -8.5t58.5 -14t43 -14t21 -7.5zM430 210q0 35 -27 58t-67 40v-186q18 4 34.5 11.5t30 18t21.5 25t8 33.5zM192 536q0 -28 20.5 -47t53.5 -33v158q-35 -10 -54.5 -30.5t-19.5 -47.5z" />
    <glyph glyph-name="cent" unicode="&#xa2;" horiz-adv-x="439" 
d="M344 111l29 -36.5l29 -35.5q-56 -45 -131 -50v-57h-70v65q-36 10 -67 30.5t-53.5 49t-35 63t-12.5 73.5q0 38 12.5 73t35 63t53.5 48.5t67 30.5v64h70v-56q38 -2 71.5 -15t62.5 -35l-61 -71q-31 23 -73 26v-258q42 3 73 28zM129 213q0 -39 19.5 -70.5t52.5 -47.5v234
q-33 -15 -52.5 -45.5t-19.5 -70.5z" />
    <glyph glyph-name="bullet" unicode="&#x2022;" horiz-adv-x="416" 
d="M63 305q0 30 11 57t30.5 47t46 31.5t56.5 11.5t57 -11.5t46.5 -31.5t31 -47t11.5 -57q0 -31 -11.5 -57t-31 -45.5t-46.5 -30.5t-57 -11t-56.5 11t-46 30.5t-30.5 45.5t-11 57z" />
    <glyph glyph-name="quotedblleft" unicode="&#x201c;" horiz-adv-x="288" 
d="M143 600q-23 -14 -51 -26q-28 29 -40 67.5t-4 80.5l61 -7q-7 -35 3 -65t31 -50zM249 600q-13 -8 -25.5 -14l-25.5 -12q-28 29 -40 67.5t-4 80.5l61 -7q-7 -35 3 -65t31 -50z" />
    <glyph glyph-name="quotedblright" unicode="&#x201d;" horiz-adv-x="288" 
d="M90 574l-25 12t-26 14q22 20 31.5 50t2.5 65l62 7q8 -42 -4 -80.5t-41 -67.5zM196 574l-25.5 12t-25.5 14q22 20 31.5 50t2.5 65l61 7q8 -42 -4 -80.5t-40 -67.5z" />
    <glyph glyph-name="quoteleft" unicode="&#x2018;" horiz-adv-x="182" 
d="M143 600q-13 -8 -25.5 -14l-25.5 -12q-28 29 -40 67.5t-4 80.5l61 -7q-7 -35 3 -65t31 -50z" />
    <glyph glyph-name="quotedblbase" unicode="&#x201e;" horiz-adv-x="301" 
d="M189 -56l-26 13.5t-25 12.5q22 21 31.5 51.5t2.5 65.5l61 7q8 -43 -4 -82t-40 -68zM83 -56l-25.5 13.5t-25.5 12.5q22 21 31.5 51.5t2.5 65.5l61 7q8 -43 -4 -82t-40 -68z" />
    <glyph glyph-name="quotesinglbase" unicode="&#x201a;" horiz-adv-x="195" 
d="M83 -56l-25.5 13.5t-25.5 12.5q22 21 31.5 51.5t2.5 65.5l61 7q8 -43 -4 -82t-40 -68z" />
    <glyph glyph-name="guilsinglright" unicode="&#x203a;" horiz-adv-x="282" 
d="M70 163l12 15.5l18.5 24.5l18.5 24.5l12 15.5l-12 15.5l-18.5 24l-18.5 24t-12 14.5v117q3 -3 16 -17.5l31.5 -35l39 -44.5l39 -45l31.5 -35.5t16 -17.5l-173 -196v116z" />
    <glyph glyph-name="guillemotleft" unicode="&#xab;" horiz-adv-x="456" 
d="M386 47l-174 196q3 3 16 17.5l31.5 35.5l39.5 45l39.5 44.5l31.5 35t16 17.5v-116q-3 -3 -12 -14.5l-18.5 -24.5l-18.5 -24.5t-13 -15.5q4 -4 13 -15.5l18.5 -24.5l18.5 -24.5l12 -15.5v-116zM212 47l-173 196q3 3 16 17.5l31.5 35.5l39 45l39 44.5l31.5 35t16 17.5v-117
q-3 -3 -12 -14.5l-18.5 -24l-18.5 -24l-12 -15.5l12 -15.5l18.5 -24.5l18.5 -24.5l12 -15.5v-116z" />
    <glyph glyph-name="guillemotright" unicode="&#xbb;" horiz-adv-x="456" 
d="M70 163l12 15.5l18.5 24.5l18.5 24.5t13 15.5q-4 4 -13 15.5l-18.5 24.5l-18.5 24.5t-12 14.5v116q3 -3 16 -17.5l31.5 -35l39.5 -44.5l39.5 -45l31.5 -35.5t16 -17.5l-174 -196v116zM244 163l12 15.5l18.5 24.5l18.5 24.5l12 15.5l-12 15.5l-18.5 24l-18.5 24t-12 14.5
v117q3 -3 16 -17.5l31.5 -35l39 -44.5l39 -45l31.5 -35.5t16 -17.5l-173 -196v116z" />
    <glyph glyph-name="yen" unicode="&#xa5;" horiz-adv-x="714" 
d="M419 236v-68h99v-68h-99v-100h-123v100h-111v68h111v68l-16 27h-95v68h58l-63.5 117.5l-68 125.5l-56.5 103.5t-29 51.5h139l15.5 -28.5l27.5 -52l35 -67l38 -73l36 -70l30 -58.5l11 -34q4 8 7 17.5t6 16.5l30 58.5l35.5 70l37 73l34 67l26.5 52t15 28.5h139l-218 -398
h48v-68h-85z" />
    <glyph glyph-name="copyright" unicode="&#xa9;" horiz-adv-x="610" 
d="M305 145q48 0 89 17t72 47.5t48.5 72t17.5 90.5t-17.5 91t-48.5 72.5t-72 47.5t-89 17t-89 -17t-72 -47.5t-48.5 -72.5t-17.5 -91t17.5 -90.5t48.5 -72t72 -47.5t89 -17zM305 112q-54 0 -101.5 20t-83 54.5t-56 82t-20.5 103.5t20.5 104t56 83t83 54.5t101.5 19.5
t101.5 -19.5t83 -54.5t56 -83t20.5 -104t-20.5 -103.5t-56 -82t-83 -54.5t-101.5 -20zM413 234q-11 -8 -38.5 -18t-65.5 -10q-39 0 -69.5 13.5t-51.5 36t-32.5 53t-11.5 63.5q0 37 13.5 69t36.5 54.5t54 35.5t66 13q27 0 53.5 -7.5t35.5 -16.5l-6.5 -10t-5 -8.5l-5.5 -10
l-8 -14.5q-11 8 -29.5 11t-32.5 3q-25 0 -46.5 -9.5t-37 -25t-24.5 -36.5t-9 -43t8.5 -42.5t23.5 -36.5t36 -25.5t46 -9.5q14 0 27.5 3t24 6.5t17.5 7t7 5.5z" />
    <glyph glyph-name="registered" unicode="&#xae;" horiz-adv-x="610" 
d="M305 112q-54 0 -101.5 20t-83 54.5t-56 82t-20.5 103.5t20.5 104t56 83t83 54.5t101.5 19.5t101.5 -19.5t83 -54.5t56 -83t20.5 -104t-20.5 -103.5t-56 -82t-83 -54.5t-101.5 -20zM305 145q48 0 89 17t72 47.5t48.5 72t17.5 90.5t-17.5 91t-48.5 72.5t-72 47.5t-89 17
t-89 -17t-72 -47.5t-48.5 -72.5t-17.5 -91t17.5 -90.5t48.5 -72t72 -47.5t89 -17zM194 210v345h97q57 0 91.5 -29t34.5 -82q0 -29 -12 -56t-40 -43l40.5 -65l45.5 -70h-70l-76 119h-5h-49v-119h-57zM251 383h47q18 0 30 6t18.5 15t9.5 19t3 19q0 8 -2.5 18t-9.5 19t-18.5 15
t-30.5 6h-47v-117z" />
    <glyph glyph-name="divide" unicode="&#xf7;" horiz-adv-x="450" 
d="M407 208h-365v100h365v-100zM166 411q0 26 19.5 44.5t42.5 18.5q22 0 41 -18.5t19 -44.5q0 -28 -19 -44.5t-41 -16.5q-23 0 -42.5 16.5t-19.5 44.5zM166 109q0 26 19.5 44.5t42.5 18.5q22 0 41 -18.5t19 -44.5q0 -28 -19 -44.5t-41 -16.5q-23 0 -42.5 16.5t-19.5 44.5z
" />
    <glyph glyph-name="onehalf" unicode="&#xbd;" horiz-adv-x="840" 
d="M185 -19l141.5 383.5l141.5 383.5h103l-282 -767h-104zM652 70h153v-71h-327l85 86t73 81t51.5 75.5t19.5 70.5q0 23 -8 40t-20.5 28t-26.5 16.5t-26 5.5q-25 0 -41 -8.5t-25.5 -21t-13 -26t-3.5 -22.5q0 -23 7.5 -41t21.5 -32l-43 -44q-14 7 -25 21.5t-18.5 31.5
t-11.5 34t-4 30q0 29 10.5 56t30 47.5t48.5 33t67 12.5q35 0 63.5 -12.5t49 -33.5t31.5 -48.5t11 -57.5q0 -34 -10.5 -66t-28 -63t-41 -61zM43 632v70h114v-468h-74v398h-40z" />
    <glyph glyph-name="onequarter" unicode="&#xbc;" horiz-adv-x="804" 
d="M182 -19l141.5 383.5l141.5 383.5h103l-282 -767h-104zM402 125l147 186l147 186v-298h73v-74h-73v-125h-77v125h-217zM43 632v70h114v-468h-74v398h-40zM619 290l-15.5 -20l-19.5 -25l-19.5 -25.5t-14.5 -20.5h69v91z" />
    <glyph glyph-name="ordfeminine" unicode="&#xaa;" horiz-adv-x="432" 
d="M38 456q0 33 13 63t34.5 52.5t51 35.5t62.5 13q22 0 39 -5.5t29.5 -12.5t20 -14.5t9.5 -11.5l3 37h67v-307h-70v20q0 4 0.5 7t0.5 5q-3 -4 -10.5 -10.5t-19.5 -13t-29.5 -11.5t-39.5 -5q-35 0 -64.5 13t-51 34.5t-33.5 50t-12 60.5zM108 460q0 -40 26 -67t68 -27
q43 0 69 27.5t26 66.5t-26 66t-69 27q-42 0 -68 -26.5t-26 -66.5z" />
    <glyph glyph-name="sterling" unicode="&#xa3;" horiz-adv-x="620" 
d="M219 100h155q33 0 53 2.5t31 8.5t14.5 16t3.5 26v41q26 0 52 0.5t52 0.5v-109q0 -19 -5.5 -35t-19 -27t-36.5 -17.5t-59 -6.5h-422v100h45q15 0 25.5 3t16.5 12t8.5 26.5t2.5 46.5v79h-66v100h66v181q0 36 16 66.5t45 53t70 35.5t91 13q73 0 119 -27.5t72 -77.5
l-39 -22.5l-39 -22.5q-4 1 -9 9t-16.5 17t-32 16.5t-53.5 7.5q-56 0 -88.5 -24.5t-32.5 -73.5v-151h116v-100h-116v-98q0 -24 -3 -40.5t-17 -28.5z" />
    <glyph glyph-name="onesuperior" unicode="&#xb9;" horiz-adv-x="186" 
d="M48 659v46h74v-304h-48v258h-26z" />
    <glyph glyph-name="threequarters" unicode="&#xbe;" horiz-adv-x="992" 
d="M356 -19l141.5 383.5l141.5 383.5h103l-282 -767h-104zM114 454q23 46 53.5 91.5t53.5 91.5h-148v78h272l-53.5 -92l-53.5 -92q46 -23 74 -64.5t28 -94.5q0 -36 -14 -67.5t-38 -55t-55.5 -37t-67.5 -13.5q-38 0 -71 15t-57 41l58 54q28 -33 71 -33q19 0 36.5 7.5
t30.5 20.5t20.5 30.5t7.5 37.5q0 19 -7.5 36.5t-20.5 30t-30.5 20t-36.5 7.5q-30 0 -52 -12zM590 125l71.5 92l75.5 94l75.5 94l71.5 92v-298h74v-74h-74v-125h-77v125h-217zM807 290l-15.5 -20l-19.5 -25l-19.5 -25.5t-14.5 -20.5h69v91z" />
    <glyph glyph-name="twosuperior" unicode="&#xb2;" horiz-adv-x="341" 
d="M181 424h107v-49h-228l59 60t51 56t35.5 52.5t13.5 49.5q0 16 -5.5 27.5t-14 19.5t-18.5 12t-18 4q-17 0 -28.5 -6t-18 -14.5t-9 -18t-2.5 -15.5q0 -33 20 -51l-30 -31q-10 5 -17.5 15t-13 22t-8 24t-2.5 21q0 20 7 38.5t21 33t34.5 23t46.5 8.5q24 0 44 -8.5t34.5 -23.5
t22 -34t7.5 -40q0 -48 -26.5 -89.5t-63.5 -85.5z" />
    <glyph glyph-name="paragraph" unicode="&#xb6;" horiz-adv-x="573" 
d="M301 0h-103v429q-35 0 -65 13t-52 35.5t-35 53t-13 65.5q0 34 13 64.5t35 53t52 35.5t65 13h268v-762h-102v662h-63v-662z" />
    <glyph glyph-name="logicalnot" unicode="&#xac;" horiz-adv-x="484" 
d="M323 150v31h-262v73h365v-104h-103z" />
    <glyph glyph-name="threesuperior" unicode="&#xb3;" horiz-adv-x="283" 
d="M90 539q15 29 34 58t34 58h-94v50h173l-33.5 -58.5l-34.5 -58.5q29 -15 47.5 -41.5t18.5 -60.5q0 -23 -9 -43t-24.5 -35t-36 -23.5t-42.5 -8.5q-24 0 -45.5 9.5t-36.5 26.5l37 34q19 -21 45 -21q25 0 43 18t18 43t-18 42.5t-43 17.5q-19 0 -33 -7z" />
    <glyph glyph-name="brokenbar" unicode="&#xa6;" horiz-adv-x="230" 
d="M167 -237h-104v356h104v-356zM167 356h-104v355h104v-355z" />
    <glyph glyph-name="ampersand" unicode="&#x26;" horiz-adv-x="661" 
d="M647 0h-114q-1 0 -17.5 20l-43.5 52q-32 -37 -83.5 -60t-115.5 -23q-52 0 -96 16.5t-75.5 45.5t-49.5 69t-18 88q0 40 12.5 75.5t34.5 63.5t53 48.5t67 30.5q-12 18 -22 35t-17 31q-17 33 -27.5 60.5t-10.5 58.5q0 34 14 61.5t38 46.5t56 29.5t68 11.5q48 2 88 -11.5
t63 -28.5l-8.5 -12l-18.5 -25.5t-18 -25.5l-8 -12q-9 6 -22.5 12t-33.5 9t-40 1t-37 -10t-27.5 -22.5t-10.5 -36.5q0 -25 10 -45.5t14 -26.5l207 -276l73 185h101l-108 -272zM259 342q-26 -1 -49.5 -11.5t-41 -28t-28 -40.5t-10.5 -48q0 -35 13 -60t34 -40.5t48 -23t54 -7.5
q19 0 38.5 4.5t37.5 12.5t33 19t25 25l-77.5 97t-76.5 101z" />
    <glyph glyph-name="germandbls" unicode="&#xdf;" horiz-adv-x="573" 
d="M233 6l20.5 46l21.5 46q18 -7 40 -7q25 0 47.5 10t39.5 26.5t27 39t10 47.5q0 26 -10.5 48.5t-27.5 39.5t-39.5 26.5t-47.5 8.5h-2q0 12 -0.5 24.5t-0.5 24.5v51q31 0 50 17t19 46t-21 48t-62 19q-56 0 -78 -39t-22 -107v-421h-102v330h-65v100h65v-1q0 55 15 99.5
t42 75.5t63.5 47.5t78.5 16.5q44 0 79 -13t59 -35.5t37 -52.5t13 -62q0 -16 -3 -32t-10 -31t-17.5 -27t-25.5 -19q17 -4 37 -19.5t37.5 -39.5t29 -55.5t11.5 -68.5q0 -45 -18 -85.5t-49.5 -71t-73 -48.5t-87.5 -18q-19 0 -40 4t-40 12z" />
    <glyph glyph-name="currency" unicode="&#xa4;" horiz-adv-x="448" 
d="M69 361q0 45 23 80l-26 27l49 49l27 -27q18 11 38 17.5t43 6.5q44 0 82 -24l27 27l49 -50l-25 -25q24 -38 24 -81q0 -46 -26 -83l28 -27l-49 -49l-29 28q-35 -23 -81 -23q-44 0 -80 22l-28 -28l-49 49l27 27q-24 38 -24 84zM139 360q0 -35 25 -60t60 -25q18 0 33.5 6.5
t27 18t18.5 27t7 33.5t-7 33.5t-18.5 27.5t-27 18.5t-33.5 6.5q-35 0 -60 -25t-25 -61z" />
    <glyph glyph-name="section" unicode="&#xa7;" horiz-adv-x="385" 
d="M141 149l-35.5 56.5l-24 39t-14 24t-6.5 11.5q-1 0 -1 2l-1 1q-12 24 -15.5 52t0.5 55t16 51.5t33 43.5q12 9 26 18t34 17q-9 14 -17 28.5l-17 30.5q-21 35 -26.5 60.5t-0.5 44.5t20 32t35 23q40 21 75 44q14 -22 26.5 -44t26.5 -43q-9 -5 -19 -10t-18 -11
q-12 -7 -19 -13.5t-8.5 -15t3 -21.5t15.5 -32h2l91 -151q15 -24 19.5 -51.5t0 -54.5t-18 -51.5t-35.5 -43.5l-26 -19t-34 -18q9 -14 18 -29.5l18 -30.5q21 -35 27 -61t1 -45.5t-19.5 -33t-34.5 -23.5l-37.5 -20.5t-37.5 -21.5l-51 86q9 6 18 11t18 11q12 7 18.5 14t6.5 18
t-8 27.5t-24 42.5zM133 378q-7 -26 10.5 -46.5t44.5 -22.5q23 0 40.5 14.5t19.5 39.5q1 22 -13.5 39.5t-39.5 19.5q-19 0 -38.5 -9.5t-23.5 -34.5z" />
    <glyph glyph-name="periodcentered" unicode="&#xb7;" horiz-adv-x="232" 
d="M55 288q0 26 19.5 44t42.5 18q21 0 40.5 -18t19.5 -44q0 -29 -19.5 -45.5t-40.5 -16.5q-23 0 -42.5 16.5t-19.5 45.5z" />
    <glyph glyph-name="ordmasculine" unicode="&#xba;" horiz-adv-x="404" 
d="M40 460q0 33 13 62t35 51t52 34.5t64 12.5t63.5 -12.5t51.5 -34.5t34 -51t12 -62t-12 -62.5t-33.5 -51.5t-51.5 -35t-65 -13q-33 0 -63 11.5t-52 33t-35 51.5t-13 66zM109 459q0 -19 7 -36t20 -29.5t29.5 -20t36.5 -7.5q19 0 36 7.5t30 20t20.5 29.5t7.5 36t-7.5 36
t-20.5 30t-30 20.5t-36 7.5q-20 0 -36.5 -7.5t-29.5 -20.5t-20 -30t-7 -36z" />
    <glyph glyph-name="macron" unicode="&#xaf;" horiz-adv-x="406" 
d="M87 482v64h234v-64h-234z" />
    <glyph glyph-name="mu" unicode="&#xb5;" horiz-adv-x="568" 
d="M484 -10h-80l-12 118q-23 -51 -63.5 -84.5t-106.5 -33.5q-27 0 -49 6v-197h-95v302q-1 5 -1 15v309h96v-264q2 -31 21.5 -52.5t62.5 -23.5q29 0 53 10t41.5 28t27.5 43t10 54v205h95v-435z" />
    <glyph glyph-name="multiply" unicode="&#xd7;" horiz-adv-x="449" 
d="M312 0l-44 44l-45 44q-20 -22 -42.5 -43.5l-42.5 -42.5l-89 86l43.5 44l44.5 44l-91 90l90 91l91 -92l88 89l42 -44.5l43 -44.5l-85 -86q23 -22 44 -44.5l44 -45.5z" />
    <glyph glyph-name="O" unicode="O" horiz-adv-x="817" 
d="M36 363q0 76 29.5 144t80 119t118 81t144.5 30q76 0 144 -30t119 -81t80.5 -119t29.5 -144q0 -77 -29.5 -144.5t-80.5 -118t-119 -79.5t-144 -29q-77 0 -144.5 29t-118 79.5t-80 118t-29.5 144.5zM159 363q0 -53 19.5 -99.5t54 -81t80 -54.5t98.5 -20q51 0 96.5 20
t79 54.5t53 81t19.5 99.5t-20 99.5t-54 81.5t-79.5 55t-97.5 20t-97.5 -20t-79 -55t-53 -81.5t-19.5 -99.5z" />
    <glyph glyph-name="g" unicode="g" horiz-adv-x="547" 
d="M33 210q0 48 17 89.5t46.5 72t69 47.5t84.5 17q34 0 60 -9t43.5 -20t27 -21l11.5 -12q0 11 2 24t2 27h92v-403q0 -54 -17 -96.5t-47.5 -71t-73 -43.5t-93.5 -15q-39 0 -68.5 8t-53 21t-43 29l-37.5 32l62 65q28 -26 60 -44.5t78 -18.5q62 0 99 30t37 85v11.5t1 13.5
q0 9 2 16t2 12q-9 -10 -21.5 -22t-30 -22t-40.5 -16.5t-53 -6.5q-48 0 -88 17t-69 47t-45 70t-16 87zM129 214q0 -28 9.5 -52t27 -41.5t41.5 -27.5t53 -10t53.5 10t42 28t27 42t9.5 51t-9.5 50.5t-27 40.5t-42 27t-53.5 10t-53 -9.5t-41.5 -27t-27 -41t-9.5 -50.5z" />
    <glyph glyph-name="d" unicode="d" horiz-adv-x="547" 
d="M33 212q0 50 16.5 91t46 70.5t69 46t86.5 16.5q32 0 56 -7t41 -17t27.5 -21.5t16.5 -19.5v410h96v-781h-96v28q0 5 1 11t1 9q-9 -9 -22 -19.5t-31 -19.5t-40.5 -14.5t-51.5 -5.5q-51 0 -91.5 17.5t-68 48t-42 71t-14.5 86.5zM129 214q0 -28 9.5 -52t27 -41.5t41.5 -27.5
t53 -10t53.5 10t42 28t27 42t9.5 51t-9.5 50.5t-27 40.5t-42 27t-53.5 10t-53 -9.5t-41.5 -27t-27 -41t-9.5 -50.5z" />
    <glyph glyph-name="a" unicode="a" horiz-adv-x="547" 
d="M32 208q0 46 18 87.5t48.5 72.5t71 49.5t85.5 18.5q30 0 54 -7.5t41.5 -17.5t27.5 -20.5t13 -16.5l4 51h93v-425h-97v28q0 5 0.5 9.5t0.5 6.5q-4 -5 -14 -14.5t-27 -18.5t-40.5 -15.5t-54.5 -6.5q-49 0 -90 18t-71 48t-46.5 69.5t-16.5 83.5zM129 214q0 -28 9.5 -52
t27 -41.5t41.5 -27.5t53 -10t53 10t41.5 28t27 42t9.5 51t-9.5 50.5t-27 40.5t-41.5 27t-53 10t-53 -9.5t-41.5 -27t-27 -41t-9.5 -50.5z" />
    <glyph glyph-name="n" unicode="n" 
d="M59 425h84q2 -36 4.5 -58.5t4.5 -50.5q23 54 65 87t105 33q65 0 103.5 -35.5t40.5 -92.5v-308h-95v263q-2 31 -22 53.5t-62 24.5q-29 0 -53.5 -10.5t-42 -28.5t-27 -43t-9.5 -54v-205h-96v425z" />
    <glyph glyph-name="ogonek" unicode="&#x2db;" horiz-adv-x="487" 
d="M245 -39q0 -17 -10.5 -26.5t-23 -18.5t-23 -19.5t-10.5 -29.5q0 -23 11.5 -38t34.5 -15q18 0 30.5 10t17.5 25l55 -29q-14 -42 -45 -61.5t-67 -19.5q-29 0 -50 10t-34.5 26t-20.5 36t-7 40q0 29 8.5 50t29.5 37q6 5 13.5 8.5t14 9t10.5 13.5t4 23v8h62v-39z" />
    <glyph glyph-name="caron" unicode="&#x2c7;" horiz-adv-x="445" 
d="M114 670h71l50 -66l10 13l15.5 19.5t15.5 20l10 13.5h72l-61.5 -91l-61.5 -92z" />
    <glyph glyph-name="hungarumlaut" unicode="&#x2dd;" horiz-adv-x="528" 
d="M62 487l45.5 67l45.5 68h103l-61 -68l-62 -67h-71zM283 487l45.5 67l45.5 68h104l-124 -135h-71z" />
    <glyph glyph-name="dotaccent" unicode="&#x2d9;" horiz-adv-x="252" 
d="M69 590q0 26 19 43t41 17t40.5 -17t18.5 -43q0 -27 -18.5 -43.5t-40.5 -16.5t-41 16.5t-19 43.5z" />
    <glyph glyph-name="breve" unicode="&#x2d8;" horiz-adv-x="768" 
d="M263 500q-33 0 -62.5 12t-51.5 33t-35 50t-14 62h53q2 -46 32.5 -75t77.5 -29q48 0 76.5 29t30.5 75h54q0 -33 -13 -62t-35 -50t-51 -33t-62 -12z" />
    <glyph glyph-name="Aogonek" unicode="&#x104;" horiz-adv-x="651" 
d="M593 0v-39q0 -17 -10.5 -26.5t-23 -18.5t-23 -19.5t-10.5 -29.5q0 -23 11.5 -38t34.5 -15q18 0 30.5 10t17.5 25l55 -29q-14 -42 -45 -61.5t-67 -19.5q-29 0 -50 10t-34.5 26t-20.5 36t-7 40q0 29 8.5 50t29.5 37q6 5 13.5 8.5t14 9t10.5 13.5t4 23v8l-10.5 25l-18.5 44
l-24 57.5l-27 65.5h-251l-80 -192h-121l19 44.5l37.5 88l50 117l56.5 131.5l56.5 131.5l50 117l37.5 88l19 44.5l19.5 -44.5l38 -88l50 -117l56.5 -131.5l56.5 -131.5l50 -117l37.5 -88l19 -44.5h-59zM242 295h166l-72 174q-1 1 -5 13.5t-6 22.5q-2 -10 -6 -22.5t-4 -13.5z
" />
    <glyph glyph-name="Lslash" unicode="&#x141;" horiz-adv-x="582" 
d="M91 0v259l-75 -23v99l75 23v371h122v-334l206 64v-99l-206 -64v-180h354v-116h-476z" />
    <glyph glyph-name="Lcaron" unicode="&#x13d;" horiz-adv-x="575" 
d="M84 0v729h122v-613h354v-116h-476zM380 574l-25 12t-26 14q22 20 31.5 50t2.5 65l62 7q8 -42 -4 -80.5t-41 -67.5z" />
    <glyph glyph-name="Sacute" unicode="&#x15a;" horiz-adv-x="571" 
d="M514 688l-44 -100q-42 15 -83 24t-76 9q-61 0 -96.5 -24t-35.5 -61q0 -32 26.5 -52t66.5 -36t86.5 -32.5t86.5 -42.5t66.5 -66t26.5 -102q0 -48 -17.5 -87t-52.5 -67t-88.5 -43.5t-125.5 -15.5q-44 0 -80 6t-64.5 15t-50.5 19.5t-38 20.5l53 107q42 -23 90 -35.5
t85 -12.5q18 0 46.5 4t55.5 15t46.5 30t19.5 49q0 35 -26.5 57.5t-66.5 40t-86.5 34.5t-86.5 40.5t-66.5 58t-26.5 87.5q0 38 15 74.5t45.5 65.5t76 47t107.5 18q39 0 75.5 -6.5t65.5 -14.5t48 -15.5t23 -8.5zM220 770l45.5 67l45.5 68h103l-61 -68l-62 -67h-71z" />
    <glyph glyph-name="Scaron" unicode="&#x160;" horiz-adv-x="571" 
d="M514 688l-44 -100q-42 15 -83 24t-76 9q-61 0 -96.5 -24t-35.5 -61q0 -32 26.5 -52t66.5 -36t86.5 -32.5t86.5 -42.5t66.5 -66t26.5 -102q0 -48 -17.5 -87t-52.5 -67t-88.5 -43.5t-125.5 -15.5q-44 0 -80 6t-64.5 15t-50.5 19.5t-38 20.5l53 107q42 -23 90 -35.5
t85 -12.5q18 0 46.5 4t55.5 15t46.5 30t19.5 49q0 35 -26.5 57.5t-66.5 40t-86.5 34.5t-86.5 40.5t-66.5 58t-26.5 87.5q0 38 15 74.5t45.5 65.5t76 47t107.5 18q39 0 75.5 -6.5t65.5 -14.5t48 -15.5t23 -8.5zM168 928h71l50 -66l10 13l15.5 19.5t15.5 20l10 13.5h72
l-61.5 -91l-61.5 -92z" />
    <glyph glyph-name="Scedilla" unicode="&#x15e;" horiz-adv-x="571" 
d="M514 688l-44 -100q-42 15 -83 24t-76 9q-61 0 -96.5 -24t-35.5 -61q0 -32 26.5 -52t66.5 -36t86.5 -32.5t86.5 -42.5t66.5 -66t26.5 -102q0 -44 -15 -81t-45 -64.5t-75 -44.5t-106 -21v-2q0 -15 4.5 -23t11 -13.5t14 -9t13.5 -8.5q20 -16 29 -37t9 -50q0 -20 -7 -40
t-21 -36t-35 -26t-50 -10q-36 0 -66.5 19.5t-44.5 61.5q13 8 27 15l28 14q5 -15 17 -25t30 -10q23 0 34.5 15t11.5 38q0 19 -10.5 29.5t-23 19.5t-23 18.5t-10.5 26.5v32q-40 1 -72.5 7t-59 14.5t-47 19t-35.5 19.5l53 107q42 -23 90 -35.5t85 -12.5q18 0 46.5 4t55.5 15
t46.5 30t19.5 49q0 35 -26.5 57.5t-66.5 40t-86.5 34.5t-86.5 40.5t-66.5 58t-26.5 87.5q0 38 15 74.5t45.5 65.5t76 47t107.5 18q39 0 75.5 -6.5t65.5 -14.5t48 -15.5t23 -8.5z" />
    <glyph glyph-name="Tcaron" unicode="&#x164;" horiz-adv-x="563" 
d="M521 729v-117h-180v-612h-123v612h-176v117h479zM159 928h71l50 -66l10 13l15.5 19.5t15.5 20l10 13.5h72l-61.5 -91l-61.5 -92z" />
    <glyph glyph-name="Zacute" unicode="&#x179;" horiz-adv-x="640" 
d="M188 729h422l-396 -611h402v-118h-616l25.5 39l47.5 73.5l62 97l68.5 108.5l68.5 108l62 96l47.5 73t25.5 38h-271q-16 0 -32 4.5t-28.5 13.5t-20.5 21.5t-8 27.5v65h109v-13q0 -20 7 -21.5t25 -1.5zM274 770l45.5 67l45.5 68h103l-61 -68l-62 -67h-71z" />
    <glyph glyph-name="Zcaron" unicode="&#x17d;" horiz-adv-x="640" 
d="M188 729h422l-396 -611h402v-118h-616l25.5 39l47.5 73.5l62 97l68.5 108.5l68.5 108l62 96l47.5 73t25.5 38h-271q-16 0 -32 4.5t-28.5 13.5t-20.5 21.5t-8 27.5v65h109v-13q0 -20 7 -21.5t25 -1.5zM200 928h71l50 -66l10 13l15.5 19.5t15.5 20l10 13.5h72l-61.5 -91
l-61.5 -92z" />
    <glyph glyph-name="Zdotaccent" unicode="&#x17b;" horiz-adv-x="640" 
d="M188 729h422l-396 -611h402v-118h-616l25.5 39l47.5 73.5l62 97l68.5 108.5l68.5 108l62 96l47.5 73t25.5 38h-271q-16 0 -32 4.5t-28.5 13.5t-20.5 21.5t-8 27.5v65h109v-13q0 -20 7 -21.5t25 -1.5zM277 832q0 26 19 43t41 17t40.5 -17t18.5 -43q0 -27 -18.5 -43.5
t-40.5 -16.5t-41 16.5t-19 43.5z" />
    <glyph glyph-name="aogonek" unicode="&#x105;" horiz-adv-x="547" 
d="M488 0h-97v28q0 5 0.5 9.5t0.5 6.5q-4 -5 -14 -14.5t-27 -18.5t-40.5 -15.5t-54.5 -6.5q-49 0 -90 18t-71 48t-46.5 69.5t-16.5 83.5q0 46 18 87.5t48.5 72.5t71 49.5t85.5 18.5q30 0 54 -7.5t41.5 -17.5t27.5 -20.5t13 -16.5l4 51h93v-425zM129 214q0 -28 9.5 -52
t27 -41.5t41.5 -27.5t53 -10t53 10t41.5 28t27 42t9.5 51t-9.5 50.5t-27 40.5t-41.5 27t-53 10t-53 -9.5t-41.5 -27t-27 -41t-9.5 -50.5zM453 0h-62v-8q0 -15 -4 -23t-10.5 -13.5t-14 -9t-13.5 -8.5q-21 -16 -29.5 -37t-8.5 -50q0 -20 7 -40t20.5 -36t34.5 -26t50 -10
q36 0 67 19.5t45 61.5l-55 29q-5 -15 -17.5 -25t-30.5 -10q-23 0 -34.5 15t-11.5 38q0 19 10.5 29.5t23 19.5t23 18.5t10.5 26.5v39z" />
    <glyph glyph-name="lslash" unicode="&#x142;" horiz-adv-x="248" 
d="M162 0h-95v251l-48 -15v99l48 15v431h95v-402l67 21v-99l-67 -21v-280z" />
    <glyph glyph-name="lcaron" unicode="&#x13e;" horiz-adv-x="213" 
d="M154 0h-95v781h95v-781zM245 574l-25 12t-26 14q22 20 31.5 50t2.5 65l62 7q8 -42 -4 -80.5t-41 -67.5z" />
    <glyph glyph-name="sacute" unicode="&#x15b;" horiz-adv-x="350" 
d="M301 387q-6 -9 -14.5 -20.5l-16.5 -21.5t-13.5 -17.5l-5.5 -7.5l-5 3.5t-14.5 7.5t-22 7.5t-25.5 3.5q-14 0 -29.5 -6.5t-15.5 -26.5q0 -17 13.5 -28.5t33 -21t43 -19.5t43 -25t33 -37.5t13.5 -55.5q0 -29 -10.5 -53t-30 -41t-46.5 -27t-61 -10q-41 0 -79.5 14t-60.5 40
l17 20l19 23l15.5 18.5l6.5 7.5q0 1 6.5 -3.5t17.5 -10.5t26 -11t31 -5q25 0 38.5 11t13.5 27t-13.5 26t-33 18.5l-43 18.5t-43 25t-33 38.5t-13.5 59.5t13 60t33.5 39t44.5 21.5t47 6.5q31 0 64.5 -12.5t56.5 -35.5zM122 487l45.5 67l45.5 68h103l-61 -68l-62 -67h-71z" />
    <glyph glyph-name="scaron" unicode="&#x161;" horiz-adv-x="350" 
d="M301 387q-6 -9 -14.5 -20.5l-16.5 -21.5t-13.5 -17.5l-5.5 -7.5l-5 3.5t-14.5 7.5t-22 7.5t-25.5 3.5q-14 0 -29.5 -6.5t-15.5 -26.5q0 -17 13.5 -28.5t33 -21t43 -19.5t43 -25t33 -37.5t13.5 -55.5q0 -29 -10.5 -53t-30 -41t-46.5 -27t-61 -10q-41 0 -79.5 14t-60.5 40
l17 20l19 23l15.5 18.5l6.5 7.5q0 1 6.5 -3.5t17.5 -10.5t26 -11t31 -5q25 0 38.5 11t13.5 27t-13.5 26t-33 18.5l-43 18.5t-43 25t-33 38.5t-13.5 59.5t13 60t33.5 39t44.5 21.5t47 6.5q31 0 64.5 -12.5t56.5 -35.5zM47 670h71l50 -66l10 13l15.5 19.5t15.5 20l10 13.5h72
l-61.5 -91l-61.5 -92z" />
    <glyph glyph-name="scedilla" unicode="&#x15f;" horiz-adv-x="350" 
d="M301 387q-6 -9 -14.5 -20.5l-16.5 -21.5t-13.5 -17.5l-5.5 -7.5l-5 3.5t-14.5 7.5t-22 7.5t-25.5 3.5q-14 0 -29.5 -6.5t-15.5 -26.5q0 -17 13.5 -28.5t33 -21t43 -19.5t43 -25t33 -37.5t13.5 -55.5q0 -49 -29.5 -83.5t-80.5 -43.5v-3q0 -15 4.5 -23t11 -13.5t14 -9
t13.5 -8.5q20 -16 29 -37t9 -50q0 -20 -7 -40t-21 -36t-35 -26t-50 -10q-36 0 -66.5 19.5t-44.5 61.5q13 8 27 15l28 14q5 -15 17 -25t30 -10q23 0 34.5 15t11.5 38q0 19 -10.5 29.5t-23 19.5t-23 18.5t-10.5 26.5v32q-35 4 -66.5 17t-49.5 35l17 20l19 23l15.5 18.5
l6.5 7.5q0 1 6.5 -3.5t17.5 -10.5t26 -11t31 -5q25 0 38.5 11t13.5 27t-13.5 26t-33 18.5l-43 18.5t-43 25t-33 38.5t-13.5 59.5t13 60t33.5 39t44.5 21.5t47 6.5q31 0 64.5 -12.5t56.5 -35.5z" />
    <glyph glyph-name="tcaron" unicode="&#x165;" horiz-adv-x="316" 
d="M98 611h95v-186h111v-86h-111v-339h-95v339h-72v86h72v186zM308 574l-25 12t-26 14q22 20 31.5 50t2.5 65l62 7q8 -42 -4 -80.5t-41 -67.5z" />
    <glyph glyph-name="zacute" unicode="&#x17a;" horiz-adv-x="454" 
d="M424 0h-410l238 343h-131q-35 0 -59.5 20.5t-24.5 52.5v49h86v-13q0 -19 8 -23t26 -4h271l-230 -331h226v-94zM191 487l45.5 67l45.5 68h103l-61 -68l-62 -67h-71z" />
    <glyph glyph-name="zcaron" unicode="&#x17e;" horiz-adv-x="454" 
d="M424 0h-410l238 343h-131q-35 0 -59.5 20.5t-24.5 52.5v49h86v-13q0 -19 8 -23t26 -4h271l-230 -331h226v-94zM114 670h71l50 -66l10 13l15.5 19.5t15.5 20l10 13.5h72l-61.5 -91l-61.5 -92z" />
    <glyph glyph-name="zdotaccent" unicode="&#x17c;" horiz-adv-x="454" 
d="M424 0h-410l238 343h-131q-35 0 -59.5 20.5t-24.5 52.5v49h86v-13q0 -19 8 -23t26 -4h271l-230 -331h226v-94zM173 590q0 26 19 43t41 17t40.5 -17t18.5 -43q0 -27 -18.5 -43.5t-40.5 -16.5t-41 16.5t-19 43.5z" />
    <glyph glyph-name="Racute" unicode="&#x154;" horiz-adv-x="636" 
d="M84 0v729h206q60 0 109.5 -16t84 -46t53.5 -74t19 -99q0 -30 -6 -60t-19 -58t-34 -51.5t-50 -40.5l43 -68.5l42.5 -67.5l44.5 -70l50 -78h-147l-85 132.5l-77 118.5h-10h-102v-251h-122zM206 366h98q38 0 63 13t40 31.5t21 40t6 39.5q0 17 -5.5 38.5t-20 40.5t-39.5 32
t-64 13h-99v-248zM237 770l45.5 67l45.5 68h103l-61 -68l-62 -67h-71z" />
    <glyph glyph-name="Abreve" unicode="&#x102;" horiz-adv-x="653" 
d="M653 0l-19 44.5l-37.5 88l-50 117l-56.5 131.5l-56.5 131.5l-50 117l-38 88l-19.5 44.5l-19 -44.5l-37.5 -88l-50 -117l-56.5 -131.5l-56.5 -131.5l-50 -117l-37.5 -88l-19 -44.5h121l80 192h251l27 -65.5l24 -57.5l18.5 -44l10.5 -25h121zM327 774q-33 0 -62.5 12
t-51.5 33t-35 50t-14 62h53q2 -46 32.5 -75t77.5 -29q48 0 76.5 29t30.5 75h54q0 -33 -13 -62t-35 -50t-51 -33t-62 -12zM316 469q0 1 4 13.5t6 22.5q2 -10 6 -22.5t5 -13.5l72 -174h-166z" />
    <glyph glyph-name="Lacute" unicode="&#x139;" horiz-adv-x="575" 
d="M84 0v729h122v-613h354v-116h-476zM255 770l45.5 67l45.5 68h103l-61 -68l-62 -67h-71z" />
    <glyph glyph-name="Cacute" unicode="&#x106;" horiz-adv-x="640" 
d="M633 54q-12 -8 -33.5 -19t-51 -20.5t-66.5 -16t-79 -6.5q-86 0 -154 29.5t-115 79.5t-72 117t-25 141q0 82 30 151.5t81.5 120t120 78.5t146.5 28q30 0 60.5 -4.5t57.5 -11.5t47.5 -16t29.5 -19q-9 -14 -14 -23l-10.5 -18.5l-12 -21.5l-18.5 -33q-12 8 -29 14t-35.5 9.5
t-37.5 5.5t-34 2q-56 0 -103.5 -21t-82 -55.5t-54 -80.5t-19.5 -95q0 -48 18.5 -93.5t52 -80.5t79.5 -56.5t102 -21.5q32 0 62 6.5t53 14.5t37.5 16t15.5 11zM341 770l45.5 67l45.5 68h103l-61 -68l-62 -67h-71z" />
    <glyph glyph-name="Ccaron" unicode="&#x10c;" horiz-adv-x="640" 
d="M633 54q-12 -8 -33.5 -19t-51 -20.5t-66.5 -16t-79 -6.5q-86 0 -154 29.5t-115 79.5t-72 117t-25 141q0 82 30 151.5t81.5 120t120 78.5t146.5 28q30 0 60.5 -4.5t57.5 -11.5t47.5 -16t29.5 -19q-9 -14 -14 -23l-10.5 -18.5l-12 -21.5l-18.5 -33q-12 8 -29 14t-35.5 9.5
t-37.5 5.5t-34 2q-56 0 -103.5 -21t-82 -55.5t-54 -80.5t-19.5 -95q0 -48 18.5 -93.5t52 -80.5t79.5 -56.5t102 -21.5q32 0 62 6.5t53 14.5t37.5 16t15.5 11zM288 928h71l50 -66l10 13l15.5 19.5t15.5 20l10 13.5h72l-61.5 -91l-61.5 -92z" />
    <glyph glyph-name="Eogonek" unicode="&#x118;" horiz-adv-x="619" 
d="M84 0v729h484v-111h-362v-196h322v-114h-322v-194h376v-114h-498zM582 0h-62v-8q0 -15 -4 -23t-10.5 -13.5t-14 -9t-13.5 -8.5q-21 -16 -29.5 -37t-8.5 -50q0 -20 7 -40t20.5 -36t34.5 -26t50 -10q36 0 67 19.5t45 61.5l-55 29q-5 -15 -17.5 -25t-30.5 -10
q-23 0 -34.5 15t-11.5 38q0 19 10.5 29.5t23 19.5t23 18.5t10.5 26.5v39z" />
    <glyph glyph-name="Ecaron" unicode="&#x11a;" horiz-adv-x="619" 
d="M84 0v729h484v-111h-362v-196h322v-114h-322v-194h376v-114h-498zM213 928h71l50 -66l10 13l15.5 19.5t15.5 20l10 13.5h72l-61.5 -91l-61.5 -92z" />
    <glyph glyph-name="Dcaron" unicode="&#x10e;" horiz-adv-x="713" 
d="M84 729h189q110 0 186.5 -33.5t124.5 -86.5t69.5 -120.5t21.5 -134.5q0 -82 -29.5 -147.5t-79.5 -111.5t-116.5 -70.5t-140.5 -24.5h-225v729zM290 116q57 0 105 16t83 47.5t54.5 77t19.5 105.5q0 68 -23.5 115.5t-59.5 77t-80 43t-84 13.5h-98v-495h83zM218 928h71
l50 -66l10 13l15.5 19.5t15.5 20l10 13.5h72l-61.5 -91l-61.5 -92z" />
    <glyph glyph-name="Dcroat" unicode="&#x110;" horiz-adv-x="719" 
d="M18 412h72v317h189q110 0 186.5 -33.5t124.5 -86.5t69.5 -120.5t21.5 -134.5q0 -82 -29.5 -147.5t-79.5 -111.5t-116.5 -70.5t-140.5 -24.5h-225v330h-72v82zM296 116q57 0 105 16t83 47.5t54.5 77t19.5 105.5q0 68 -23.5 115.5t-59.5 77t-80 43t-84 13.5h-98v-199h108
v-82h-108v-214h83z" />
    <glyph glyph-name="Nacute" unicode="&#x143;" horiz-adv-x="811" 
d="M727 729v-763q-7 9 -31 33l-59 57.5l-77.5 74l-86.5 82l-86 81.5l-76.5 73.5l-58 57t-30.5 32.5q-1 2 -8 10.5t-12 15.5l3 -32v-451h-122v762q7 -9 31 -32.5l59 -56.5l77.5 -72l86.5 -79.5l86 -80l77 -72l58.5 -55.5t30.5 -32l19 -28l-3 34v441h122zM341 770l45.5 67
l45.5 68h103l-61 -68l-62 -67h-71z" />
    <glyph glyph-name="Ncaron" unicode="&#x147;" horiz-adv-x="812" 
d="M728 729v-763q-7 9 -31 33l-59 57.5l-77.5 74l-86.5 82l-86 81.5l-76.5 73.5l-58 57t-30.5 32.5q-1 2 -8 10.5t-12 15.5l3 -32v-451h-122v762q7 -9 31 -32.5l59 -56.5l77.5 -72l86.5 -79.5l86 -80l77 -72l58.5 -55.5t30.5 -32l19 -28l-3 34v441h122zM270 928h71l50 -66
l10 13l15.5 19.5t15.5 20l10 13.5h72l-61.5 -91l-61.5 -92z" />
    <glyph glyph-name="Ohungarumlaut" unicode="&#x150;" horiz-adv-x="817" 
d="M36 363q0 76 29.5 144t80 119t118 81t144.5 30q76 0 144 -30t119 -81t80.5 -119t29.5 -144q0 -77 -29.5 -144.5t-80.5 -118t-119 -79.5t-144 -29q-77 0 -144.5 29t-118 79.5t-80 118t-29.5 144.5zM159 363q0 -53 19.5 -99.5t54 -81t80 -54.5t98.5 -20q51 0 96.5 20
t79 54.5t53 81t19.5 99.5t-20 99.5t-54 81.5t-79.5 55t-97.5 20t-97.5 -20t-79 -55t-53 -81.5t-19.5 -99.5zM255 765l45.5 67l45.5 68h103l-61 -68l-62 -67h-71zM476 765l45.5 67l45.5 68h104l-124 -135h-71z" />
    <glyph glyph-name="Rcaron" unicode="&#x158;" horiz-adv-x="636" 
d="M84 0v729h206q60 0 109.5 -16t84 -46t53.5 -74t19 -99q0 -30 -6 -60t-19 -58t-34 -51.5t-50 -40.5l43 -68.5l42.5 -67.5l44.5 -70l50 -78h-147l-85 132.5l-77 118.5h-10h-102v-251h-122zM206 366h98q38 0 63 13t40 31.5t21 40t6 39.5q0 17 -5.5 38.5t-20 40.5t-39.5 32
t-64 13h-99v-248zM179 928h71l50 -66l10 13l15.5 19.5t15.5 20l10 13.5h72l-61.5 -91l-61.5 -92z" />
    <glyph glyph-name="Uring" unicode="&#x16e;" horiz-adv-x="720" 
d="M333 853q0 -14 9.5 -23t23.5 -9t23.5 9t9.5 23q0 15 -9.5 24.5t-23.5 9.5t-23.5 -9.5t-9.5 -24.5zM277 855q0 18 7 33.5t19.5 27.5t28.5 19t34 7t34 -7t28 -19t19 -27.5t7 -33.5t-7 -34t-19 -28.5t-28 -19.5t-34 -7t-34 7t-28.5 19.5t-19.5 28.5t-7 34zM359 -8
q-59 0 -110.5 19.5t-89.5 54.5t-60 84.5t-22 109.5v469h122v-466q0 -32 12.5 -60t34 -49t50.5 -33.5t63 -12.5t63.5 12.5t51.5 33.5t34.5 49t12.5 60v466h122v-469q0 -60 -22 -109.5t-60.5 -84.5t-90.5 -54.5t-111 -19.5z" />
    <glyph glyph-name="Uhungarumlaut" unicode="&#x170;" horiz-adv-x="720" 
d="M359 -8q-59 0 -110.5 19.5t-89.5 54.5t-60 84.5t-22 109.5v469h122v-466q0 -32 12.5 -60t34 -49t50.5 -33.5t63 -12.5t63.5 12.5t51.5 33.5t34.5 49t12.5 60v466h122v-469q0 -60 -22 -109.5t-60.5 -84.5t-90.5 -54.5t-111 -19.5zM193 765l45.5 67l45.5 68h103l-61 -68
l-62 -67h-71zM414 765l45.5 67l45.5 68h104l-124 -135h-71z" />
    <glyph glyph-name="uni0162" unicode="&#x162;" horiz-adv-x="563" 
d="M521 729v-117h-180v-612h-123v612h-176v117h479zM343 -21l-88 -210h-92l39 104.5l39 105.5h102z" />
    <glyph glyph-name="racute" unicode="&#x155;" horiz-adv-x="324" 
d="M297 312q-28 0 -53.5 -7t-45 -21.5t-31.5 -36t-12 -50.5v-197h-96v425h84q2 -36 4.5 -58.5t4.5 -50.5q13 28 35 50t45.5 37.5t46.5 24t39 8.5zM112 487l45.5 67l45.5 68h103l-61 -68l-62 -67h-71z" />
    <glyph glyph-name="abreve" unicode="&#x103;" horiz-adv-x="547" 
d="M32 208q0 46 18 87.5t48.5 72.5t71 49.5t85.5 18.5q30 0 54 -7.5t41.5 -17.5t27.5 -20.5t13 -16.5l4 51h93v-425h-97v28q0 5 0.5 9.5t0.5 6.5q-4 -5 -14 -14.5t-27 -18.5t-40.5 -15.5t-54.5 -6.5q-49 0 -90 18t-71 48t-46.5 69.5t-16.5 83.5zM129 214q0 -28 9.5 -52
t27 -41.5t41.5 -27.5t53 -10t53 10t41.5 28t27 42t9.5 51t-9.5 50.5t-27 40.5t-41.5 27t-53 10t-53 -9.5t-41.5 -27t-27 -41t-9.5 -50.5zM277 500q-33 0 -62.5 12t-51.5 33t-35 50t-14 62h53q2 -46 32.5 -75t77.5 -29q48 0 76.5 29t30.5 75h54q0 -33 -13 -62t-35 -50
t-51 -33t-62 -12z" />
    <glyph glyph-name="lacute" unicode="&#x13a;" horiz-adv-x="213" 
d="M154 0h-95v781h95v-781zM65 798l45.5 67l45.5 68h103l-61 -68l-62 -67h-71z" />
    <glyph glyph-name="cacute" unicode="&#x107;" horiz-adv-x="425" 
d="M343 111l29 -36.5l29 -35.5q-29 -23 -65 -36.5t-77 -13.5q-47 0 -88.5 17.5t-72 48t-48.5 71.5t-18 87t18 86.5t48.5 71t72 48t88.5 17.5q42 0 78.5 -13.5t66.5 -36.5l-61 -71q-35 27 -84 27q-29 0 -53 -10t-41.5 -27t-27 -40.5t-9.5 -51.5q0 -27 9.5 -50.5t27 -41.5
t41.5 -28t53 -10q50 0 84 28zM186 487l45.5 67l45.5 68h103l-61 -68l-62 -67h-71z" />
    <glyph glyph-name="ccaron" unicode="&#x10d;" horiz-adv-x="425" 
d="M343 111l29 -36.5l29 -35.5q-29 -23 -65 -36.5t-77 -13.5q-47 0 -88.5 17.5t-72 48t-48.5 71.5t-18 87t18 86.5t48.5 71t72 48t88.5 17.5q42 0 78.5 -13.5t66.5 -36.5l-61 -71q-35 27 -84 27q-29 0 -53 -10t-41.5 -27t-27 -40.5t-9.5 -51.5q0 -27 9.5 -50.5t27 -41.5
t41.5 -28t53 -10q50 0 84 28zM126 670h71l50 -66l10 13l15.5 19.5t15.5 20l10 13.5h72l-61.5 -91l-61.5 -92z" />
    <glyph glyph-name="eogonek" unicode="&#x119;" horiz-adv-x="474" 
d="M287 0h-62v-8q-41 6 -76 25.5t-61 49t-41 66.5t-15 79q0 46 18 86.5t48.5 71t71 48t85.5 17.5q72 0 126.5 -43.5t77.5 -114.5l-69.5 -26.5l-82.5 -32.5l-86 -34.5l-79 -31.5q17 -31 47 -50t68 -19q26 0 52.5 9.5t43.5 25.5l71 -69q-26 -24 -62.5 -38.5t-74.5 -19.5v9z
M259 -11q-18 0 -34 3q0 -15 -4 -23t-10.5 -13.5t-14 -9t-13.5 -8.5q-21 -16 -29.5 -37t-8.5 -50q0 -20 7 -40t20.5 -36t34.5 -26t50 -10q36 0 67 19.5t45 61.5l-55 29q-5 -15 -17.5 -25t-30.5 -10q-23 0 -34.5 15t-11.5 38q0 19 10.5 29.5t23 19.5t23 18.5t10.5 26.5v30
q-8 -1 -14.5 -1.5t-13.5 -0.5zM340 299q-12 22 -36 32.5t-47 10.5q-27 0 -51 -10.5t-41 -28t-27 -40t-10 -46.5v-4l53.5 21.5l57 23.5l54.5 22.5z" />
    <glyph glyph-name="ecaron" unicode="&#x11b;" horiz-adv-x="474" 
d="M424 49q-31 -28 -75 -44t-90 -16q-47 0 -88.5 17.5t-72 48t-48.5 71t-18 86.5t18 86.5t48.5 71t71 48t85.5 17.5q72 0 126.5 -43.5t77.5 -114.5l-69.5 -26.5l-82.5 -32.5l-86 -34.5l-79 -31.5q17 -31 47 -50t68 -19q26 0 52.5 9.5t43.5 25.5zM117 670h71l50 -66l10 13
l15.5 19.5t15.5 20l10 13.5h72l-61.5 -91l-61.5 -92zM340 299q-12 22 -36 32.5t-47 10.5q-27 0 -51 -10.5t-41 -28t-27 -40t-10 -46.5v-4l53.5 21.5l57 23.5l54.5 22.5z" />
    <glyph glyph-name="dcaron" unicode="&#x10f;" horiz-adv-x="548" 
d="M33 212q0 50 16.5 91t46 70.5t69 46t86.5 16.5q32 0 56 -7t41 -17t27.5 -21.5t16.5 -19.5v410h96v-781h-96v28q0 5 1 11t1 9q-9 -9 -22 -19.5t-31 -19.5t-40.5 -14.5t-51.5 -5.5q-51 0 -91.5 17.5t-68 48t-42 71t-14.5 86.5zM129 214q0 -28 9.5 -52t27 -41.5t41.5 -27.5
t53 -10t53.5 10t42 28t27 42t9.5 51t-9.5 50.5t-27 40.5t-42 27t-53.5 10t-53 -9.5t-41.5 -27t-27 -41t-9.5 -50.5zM580 574l-25 12t-26 14q22 20 31.5 50t2.5 65l62 7q8 -42 -4 -80.5t-41 -67.5z" />
    <glyph glyph-name="dcroat" unicode="&#x111;" horiz-adv-x="548" 
d="M33 212q0 50 16.5 91t46 70.5t69 46t86.5 16.5q32 0 56 -7t41 -17t27.5 -21.5t16.5 -19.5v233h96v-604h-96v28q0 5 1 11t1 9q-9 -9 -22 -19.5t-31 -19.5t-40.5 -14.5t-51.5 -5.5q-51 0 -91.5 17.5t-68 48t-42 71t-14.5 86.5zM129 214q0 -28 9.5 -52t27 -41.5t41.5 -27.5
t53 -10t53.5 10t42 28t27 42t9.5 51t-9.5 50.5t-27 40.5t-42 27t-53.5 10t-53 -9.5t-41.5 -27t-27 -41t-9.5 -50.5zM242 604h150v82h-150v-82zM392 781h96v-95h-96v95zM545 604v82h-57v-82h57z" />
    <glyph glyph-name="nacute" unicode="&#x144;" 
d="M59 425h84q2 -36 4.5 -58.5t4.5 -50.5q23 54 65 87t105 33q65 0 103.5 -35.5t40.5 -92.5v-308h-95v263q-2 31 -22 53.5t-62 24.5q-29 0 -53.5 -10.5t-42 -28.5t-27 -43t-9.5 -54v-205h-96v425zM227 487l45.5 67l45.5 68h103l-61 -68l-62 -67h-71z" />
    <glyph glyph-name="ncaron" unicode="&#x148;" 
d="M59 425h84q2 -36 4.5 -58.5t4.5 -50.5q23 54 65 87t105 33q65 0 103.5 -35.5t40.5 -92.5v-308h-95v263q-2 31 -22 53.5t-62 24.5q-29 0 -53.5 -10.5t-42 -28.5t-27 -43t-9.5 -54v-205h-96v425zM149 670h71l50 -66l10 13l15.5 19.5t15.5 20l10 13.5h72l-61.5 -91
l-61.5 -92z" />
    <glyph glyph-name="ohungarumlaut" unicode="&#x151;" horiz-adv-x="514" 
d="M32 213q0 46 17.5 86.5t48.5 70.5t72.5 47.5t88.5 17.5q48 0 89 -17.5t70.5 -47.5t46.5 -70.5t17 -86.5t-16.5 -87t-46.5 -71.5t-71 -48t-90 -17.5q-47 0 -88 16t-71.5 45.5t-48.5 71t-18 91.5zM127 212q0 -27 10 -50.5t27.5 -41t41 -27.5t50.5 -10t50.5 10t41 27.5
t28 41t10.5 50.5t-10.5 50.5t-28 41t-41 28t-50.5 10.5t-50.5 -10.5t-41 -28t-27.5 -41t-10 -50.5zM82 487l45.5 67l45.5 68h103l-61 -68l-62 -67h-71zM303 487l45.5 67l45.5 68h104l-124 -135h-71z" />
    <glyph glyph-name="rcaron" unicode="&#x159;" horiz-adv-x="324" 
d="M297 312q-28 0 -53.5 -7t-45 -21.5t-31.5 -36t-12 -50.5v-197h-96v425h84q2 -36 4.5 -58.5t4.5 -50.5q13 28 35 50t45.5 37.5t46.5 24t39 8.5zM63 670h71l50 -66l10 13l15.5 19.5t15.5 20l10 13.5h72l-61.5 -91l-61.5 -92z" />
    <glyph glyph-name="uring" unicode="&#x16f;" 
d="M228 553q0 -14 9.5 -23t23.5 -9t23.5 9t9.5 23q0 15 -9.5 24.5t-23.5 9.5t-23.5 -9.5t-9.5 -24.5zM173 555q0 18 7 33.5t19 27.5t28 19t34 7t34 -7t28 -19t19 -27.5t7 -33.5t-7 -34t-19 -28.5t-28 -19.5t-34 -7t-34 7t-28 19.5t-19 28.5t-7 34zM463 -10h-80l-12 118
q-23 -51 -63.5 -84.5t-106.5 -33.5t-104.5 34.5t-40.5 91.5v309h96v-264q2 -31 21.5 -52.5t62.5 -23.5q29 0 53 10t41.5 28t27.5 43t10 54v205h95v-435z" />
    <glyph glyph-name="uhungarumlaut" unicode="&#x171;" horiz-adv-x="523" 
d="M463 -10h-80l-12 118q-23 -51 -63.5 -84.5t-106.5 -33.5t-104.5 34.5t-40.5 91.5v309h96v-264q2 -31 21.5 -52.5t62.5 -23.5q29 0 53 10t41.5 28t27.5 43t10 54v205h95v-435zM84 487l45.5 67l45.5 68h103l-61 -68l-62 -67h-71zM305 487l45.5 67l45.5 68h104l-124 -135
h-71z" />
    <glyph glyph-name="uni0163" unicode="&#x163;" horiz-adv-x="316" 
d="M98 611h95v-186h111v-86h-111v-339h-95v339h-72v86h72v186zM214 -21l-88 -210h-92l39 104.5l39 105.5h102z" />
    <glyph glyph-name="Hbar" unicode="&#x126;" horiz-adv-x="776" 
d="M91 0v522h-79v64h79v143h123v-143h348v143h124v-143h76v-64h-76q0 -51 -0.5 -107.5t-0.5 -112v-107v-92v-68v-35.5h-123v308h-348v-308h-123zM562 425v97h-348v-97h348z" />
    <glyph glyph-name="Hcircumflex" unicode="&#x124;" horiz-adv-x="763" 
d="M84 0v729h123v-304h348v304h124v-67v-132.5t-0.5 -165t-0.5 -165v-132.5v-67h-123v308h-348v-308h-123zM379 954l61.5 -91l61.5 -92h-72l-51 67l-50 -67h-71z" />
    <glyph glyph-name="Idotaccent" unicode="&#x130;" horiz-adv-x="291" 
d="M84 729h123v-729h-123v729zM85 836q0 26 19 43t41 17t40.5 -17t18.5 -43q0 -27 -18.5 -43.5t-40.5 -16.5t-41 16.5t-19 43.5z" />
    <glyph glyph-name="Gbreve" unicode="&#x11e;" horiz-adv-x="688" 
d="M635 354v-310q-42 -25 -101.5 -38.5t-121.5 -13.5q-86 0 -155.5 27t-118.5 74t-75 112t-26 142q0 87 31 158.5t83.5 123t122 80t146.5 28.5q26 0 54.5 -3.5t56.5 -10.5t54 -16.5t47 -22.5l-60 -100q-14 9 -33.5 15.5t-40.5 11.5t-41.5 7.5t-38.5 2.5q-51 0 -97.5 -20.5
t-82.5 -55.5t-57.5 -83.5t-21.5 -103.5q0 -50 19 -95t53 -79.5t81 -55t103 -20.5q20 0 50 3.5t57 12.5v124h-136v106h249zM410 769q-33 0 -62.5 12t-51.5 33t-35 50t-14 62h53q2 -46 32.5 -75t77.5 -29q48 0 76.5 29t30.5 75h54q0 -33 -13 -62t-35 -50t-51 -33t-62 -12z" />
    <glyph glyph-name="Jcircumflex" unicode="&#x134;" horiz-adv-x="342" 
d="M-20 -151v116q34 2 63 13t50 32.5t32.5 55t11.5 79.5v584h124v-587q0 -69 -21.5 -122.5t-59 -91t-89 -57.5t-111.5 -22zM197 954l61.5 -91l61.5 -92h-72l-51 67l-50 -67h-71z" />
    <glyph glyph-name="hbar" unicode="&#x127;" 
d="M59 781h96v-171h147v-65h-147v-223q22 51 62 82t103 32q66 0 105 -35t41 -93v-308h-95v263q-2 31 -22 53.5t-62 24.5q-29 0 -53.5 -10.5t-42 -28.5t-27 -43t-9.5 -54v-205h-96v545h-63v65h63v171z" />
    <glyph glyph-name="hcircumflex" unicode="&#x125;" 
d="M59 781h96v-459q22 51 62 82t103 32q66 0 105 -35t41 -93v-308h-95v263q-2 31 -22 53.5t-62 24.5q-29 0 -53.5 -10.5t-42 -28.5t-27 -43t-9.5 -54v-205h-96v781zM316 954l61.5 -91l61.5 -92h-72l-51 67l-50 -67h-71z" />
    <glyph glyph-name="dotlessi" unicode="&#x131;" horiz-adv-x="214" 
d="M155 0h-96v425h96v-425z" />
    <glyph glyph-name="gbreve" unicode="&#x11f;" horiz-adv-x="547" 
d="M33 210q0 48 17 89.5t46.5 72t69 47.5t84.5 17q34 0 60 -9t43.5 -20t27 -21l11.5 -12q0 11 2 24t2 27h92v-403q0 -54 -17 -96.5t-47.5 -71t-73 -43.5t-93.5 -15q-39 0 -68.5 8t-53 21t-43 29l-37.5 32l62 65q28 -26 60 -44.5t78 -18.5q62 0 99 30t37 85v11.5t1 13.5
q0 9 2 16t2 12q-9 -10 -21.5 -22t-30 -22t-40.5 -16.5t-53 -6.5q-48 0 -88 17t-69 47t-45 70t-16 87zM129 214q0 -28 9.5 -52t27 -41.5t41.5 -27.5t53 -10t53.5 10t42 28t27 42t9.5 51t-9.5 50.5t-27 40.5t-42 27t-53.5 10t-53 -9.5t-41.5 -27t-27 -41t-9.5 -50.5zM282 500
q-33 0 -62.5 12t-51.5 33t-35 50t-14 62h53q2 -46 32.5 -75t77.5 -29q48 0 76.5 29t30.5 75h54q0 -33 -13 -62t-35 -50t-51 -33t-62 -12z" />
    <glyph glyph-name="jcircumflex" unicode="&#x135;" horiz-adv-x="214" 
d="M64 -205l-33.5 36t-32.5 36q29 23 45 56.5t16 80.5v421h96v-425q0 -69 -24.5 -120t-66.5 -85zM104 669l61.5 -91l61.5 -92h-72l-51 67l-50 -67h-71z" />
    <glyph glyph-name="Cdotaccent" unicode="&#x10a;" horiz-adv-x="640" 
d="M633 54q-12 -8 -33.5 -19t-51 -20.5t-66.5 -16t-79 -6.5q-86 0 -154 29.5t-115 79.5t-72 117t-25 141q0 82 30 151.5t81.5 120t120 78.5t146.5 28q30 0 60.5 -4.5t57.5 -11.5t47.5 -16t29.5 -19q-9 -14 -14 -23l-10.5 -18.5l-12 -21.5l-18.5 -33q-12 8 -29 14t-35.5 9.5
t-37.5 5.5t-34 2q-56 0 -103.5 -21t-82 -55.5t-54 -80.5t-19.5 -95q0 -48 18.5 -93.5t52 -80.5t79.5 -56.5t102 -21.5q32 0 62 6.5t53 14.5t37.5 16t15.5 11zM337 827q0 26 19 43t41 17t40.5 -17t18.5 -43q0 -27 -18.5 -43.5t-40.5 -16.5t-41 16.5t-19 43.5z" />
    <glyph glyph-name="Ccircumflex" unicode="&#x108;" horiz-adv-x="640" 
d="M633 54q-12 -8 -33.5 -19t-51 -20.5t-66.5 -16t-79 -6.5q-86 0 -154 29.5t-115 79.5t-72 117t-25 141q0 82 30 151.5t81.5 120t120 78.5t146.5 28q30 0 60.5 -4.5t57.5 -11.5t47.5 -16t29.5 -19q-9 -14 -14 -23l-10.5 -18.5l-12 -21.5l-18.5 -33q-12 8 -29 14t-35.5 9.5
t-37.5 5.5t-34 2q-56 0 -103.5 -21t-82 -55.5t-54 -80.5t-19.5 -95q0 -48 18.5 -93.5t52 -80.5t79.5 -56.5t102 -21.5q32 0 62 6.5t53 14.5t37.5 16t15.5 11zM393 954l61.5 -91l61.5 -92h-72l-51 67l-50 -67h-71z" />
    <glyph glyph-name="Gdotaccent" unicode="&#x120;" horiz-adv-x="688" 
d="M635 354v-310q-42 -25 -101.5 -38.5t-121.5 -13.5q-86 0 -155.5 27t-118.5 74t-75 112t-26 142q0 87 31 158.5t83.5 123t122 80t146.5 28.5q26 0 54.5 -3.5t56.5 -10.5t54 -16.5t47 -22.5l-60 -100q-14 9 -33.5 15.5t-40.5 11.5t-41.5 7.5t-38.5 2.5q-51 0 -97.5 -20.5
t-82.5 -55.5t-57.5 -83.5t-21.5 -103.5q0 -50 19 -95t53 -79.5t81 -55t103 -20.5q20 0 50 3.5t57 12.5v124h-136v106h249zM324 827q0 26 19 43t41 17t40.5 -17t18.5 -43q0 -27 -18.5 -43.5t-40.5 -16.5t-41 16.5t-19 43.5z" />
    <glyph glyph-name="Gcircumflex" unicode="&#x11c;" horiz-adv-x="688" 
d="M635 354v-310q-42 -25 -101.5 -38.5t-121.5 -13.5q-86 0 -155.5 27t-118.5 74t-75 112t-26 142q0 87 31 158.5t83.5 123t122 80t146.5 28.5q26 0 54.5 -3.5t56.5 -10.5t54 -16.5t47 -22.5l-60 -100q-14 9 -33.5 15.5t-40.5 11.5t-41.5 7.5t-38.5 2.5q-51 0 -97.5 -20.5
t-82.5 -55.5t-57.5 -83.5t-21.5 -103.5q0 -50 19 -95t53 -79.5t81 -55t103 -20.5q20 0 50 3.5t57 12.5v124h-136v106h249zM409 954l61.5 -91l61.5 -92h-72l-51 67l-50 -67h-71z" />
    <glyph glyph-name="Ubreve" unicode="&#x16c;" horiz-adv-x="720" 
d="M359 -8q-59 0 -110.5 19.5t-89.5 54.5t-60 84.5t-22 109.5v469h122v-466q0 -32 12.5 -60t34 -49t50.5 -33.5t63 -12.5t63.5 12.5t51.5 33.5t34.5 49t12.5 60v466h122v-469q0 -60 -22 -109.5t-60.5 -84.5t-90.5 -54.5t-111 -19.5zM362 769q-33 0 -62.5 12t-51.5 33t-35 50
t-14 62h53q2 -46 32.5 -75t77.5 -29q48 0 76.5 29t30.5 75h54q0 -33 -13 -62t-35 -50t-51 -33t-62 -12z" />
    <glyph glyph-name="Scircumflex" unicode="&#x15c;" horiz-adv-x="571" 
d="M514 688l-44 -100q-42 15 -83 24t-76 9q-61 0 -96.5 -24t-35.5 -61q0 -32 26.5 -52t66.5 -36t86.5 -32.5t86.5 -42.5t66.5 -66t26.5 -102q0 -48 -17.5 -87t-52.5 -67t-88.5 -43.5t-125.5 -15.5q-44 0 -80 6t-64.5 15t-50.5 19.5t-38 20.5l53 107q42 -23 90 -35.5
t85 -12.5q18 0 46.5 4t55.5 15t46.5 30t19.5 49q0 35 -26.5 57.5t-66.5 40t-86.5 34.5t-86.5 40.5t-66.5 58t-26.5 87.5q0 38 15 74.5t45.5 65.5t76 47t107.5 18q39 0 75.5 -6.5t65.5 -14.5t48 -15.5t23 -8.5zM293 954l61.5 -91l61.5 -92h-72l-51 67l-50 -67h-71z" />
    <glyph glyph-name="cdotaccent" unicode="&#x10b;" horiz-adv-x="425" 
d="M343 111l29 -36.5l29 -35.5q-29 -23 -65 -36.5t-77 -13.5q-47 0 -88.5 17.5t-72 48t-48.5 71.5t-18 87t18 86.5t48.5 71t72 48t88.5 17.5q42 0 78.5 -13.5t66.5 -36.5l-61 -71q-35 27 -84 27q-29 0 -53 -10t-41.5 -27t-27 -40.5t-9.5 -51.5q0 -27 9.5 -50.5t27 -41.5
t41.5 -28t53 -10q50 0 84 28zM203 590q0 26 19 43t41 17t40.5 -17t18.5 -43q0 -27 -18.5 -43.5t-40.5 -16.5t-41 16.5t-19 43.5z" />
    <glyph glyph-name="ccircumflex" unicode="&#x109;" horiz-adv-x="425" 
d="M343 111l29 -36.5l29 -35.5q-29 -23 -65 -36.5t-77 -13.5q-47 0 -88.5 17.5t-72 48t-48.5 71.5t-18 87t18 86.5t48.5 71t72 48t88.5 17.5q42 0 78.5 -13.5t66.5 -36.5l-61 -71q-35 27 -84 27q-29 0 -53 -10t-41.5 -27t-27 -40.5t-9.5 -51.5q0 -27 9.5 -50.5t27 -41.5
t41.5 -28t53 -10q50 0 84 28zM254 669l61.5 -91l61.5 -92h-72l-51 67l-50 -67h-71z" />
    <glyph glyph-name="gdotaccent" unicode="&#x121;" horiz-adv-x="547" 
d="M33 210q0 48 17 89.5t46.5 72t69 47.5t84.5 17q34 0 60 -9t43.5 -20t27 -21l11.5 -12q0 11 2 24t2 27h92v-403q0 -54 -17 -96.5t-47.5 -71t-73 -43.5t-93.5 -15q-39 0 -68.5 8t-53 21t-43 29l-37.5 32l62 65q28 -26 60 -44.5t78 -18.5q62 0 99 30t37 85v11.5t1 13.5
q0 9 2 16t2 12q-9 -10 -21.5 -22t-30 -22t-40.5 -16.5t-53 -6.5q-48 0 -88 17t-69 47t-45 70t-16 87zM129 214q0 -28 9.5 -52t27 -41.5t41.5 -27.5t53 -10t53.5 10t42 28t27 42t9.5 51t-9.5 50.5t-27 40.5t-42 27t-53.5 10t-53 -9.5t-41.5 -27t-27 -41t-9.5 -50.5zM221 590
q0 26 19 43t41 17t40.5 -17t18.5 -43q0 -27 -18.5 -43.5t-40.5 -16.5t-41 16.5t-19 43.5z" />
    <glyph glyph-name="gcircumflex" unicode="&#x11d;" horiz-adv-x="547" 
d="M33 210q0 48 17 89.5t46.5 72t69 47.5t84.5 17q34 0 60 -9t43.5 -20t27 -21l11.5 -12q0 11 2 24t2 27h92v-403q0 -54 -17 -96.5t-47.5 -71t-73 -43.5t-93.5 -15q-39 0 -68.5 8t-53 21t-43 29l-37.5 32l62 65q28 -26 60 -44.5t78 -18.5q62 0 99 30t37 85v11.5t1 13.5
q0 9 2 16t2 12q-9 -10 -21.5 -22t-30 -22t-40.5 -16.5t-53 -6.5q-48 0 -88 17t-69 47t-45 70t-16 87zM129 214q0 -28 9.5 -52t27 -41.5t41.5 -27.5t53 -10t53.5 10t42 28t27 42t9.5 51t-9.5 50.5t-27 40.5t-42 27t-53.5 10t-53 -9.5t-41.5 -27t-27 -41t-9.5 -50.5zM254 670
l61.5 -91l61.5 -92h-72l-51 67l-50 -67h-71z" />
    <glyph glyph-name="ubreve" unicode="&#x16d;" 
d="M463 -10h-80l-12 118q-23 -51 -63.5 -84.5t-106.5 -33.5t-104.5 34.5t-40.5 91.5v309h96v-264q2 -31 21.5 -52.5t62.5 -23.5q29 0 53 10t41.5 28t27.5 43t10 54v205h95v-435zM261 500q-33 0 -62.5 12t-51.5 33t-35 50t-14 62h53q2 -46 32.5 -75t77.5 -29q48 0 76.5 29
t30.5 75h54q0 -33 -13 -62t-35 -50t-51 -33t-62 -12z" />
    <glyph glyph-name="scircumflex" unicode="&#x15d;" horiz-adv-x="350" 
d="M301 387q-6 -9 -14.5 -20.5l-16.5 -21.5t-13.5 -17.5l-5.5 -7.5l-5 3.5t-14.5 7.5t-22 7.5t-25.5 3.5q-14 0 -29.5 -6.5t-15.5 -26.5q0 -17 13.5 -28.5t33 -21t43 -19.5t43 -25t33 -37.5t13.5 -55.5q0 -29 -10.5 -53t-30 -41t-46.5 -27t-61 -10q-41 0 -79.5 14t-60.5 40
l17 20l19 23l15.5 18.5l6.5 7.5q0 1 6.5 -3.5t17.5 -10.5t26 -11t31 -5q25 0 38.5 11t13.5 27t-13.5 26t-33 18.5l-43 18.5t-43 25t-33 38.5t-13.5 59.5t13 60t33.5 39t44.5 21.5t47 6.5q31 0 64.5 -12.5t56.5 -35.5zM177 670l61.5 -91l61.5 -92h-72l-51 67l-50 -67h-71z
" />
    <glyph glyph-name="oe" unicode="&#x153;" horiz-adv-x="725" 
d="M676 49q-31 -28 -75 -44t-90 -16q-35 0 -67 10t-59 28q-27 -18 -59.5 -28t-67.5 -10q-47 0 -88 16t-71.5 45.5t-48.5 71t-18 91.5q0 46 17.5 86.5t48.5 70.5t72.5 47.5t88.5 17.5q35 0 67.5 -10t58.5 -27q27 17 58 27t64 10q72 0 126.5 -43.5t77.5 -114.5l-69.5 -26.5
l-82.5 -32.5l-86 -34.5l-79 -31.5q17 -31 47 -50t68 -19q26 0 52.5 9.5t43.5 25.5zM256 342q-27 0 -50.5 -10.5t-41 -28t-27.5 -41t-10 -50.5t10 -50.5t27.5 -41t41 -27.5t50.5 -10q33 0 60 15q-32 50 -32 114q0 32 8.5 60.5t23.5 54.5q-14 7 -29 11t-31 4zM592 299
q-12 22 -36 32.5t-47 10.5q-27 0 -51 -10.5t-41 -28t-27 -40t-10 -46.5v-4l53.5 21.5l57 23.5l54.5 22.5z" />
    <glyph glyph-name="OE" unicode="&#x152;" horiz-adv-x="961" 
d="M408 -8q-77 0 -144.5 29t-118 79.5t-80 118t-29.5 144.5q0 76 29.5 144t80 119t118 81t144.5 30q35 0 73 -8h429v-111h-331v-196h291v-114h-291v-194h345v-114h-441q-40 -8 -75 -8zM408 619q-52 0 -97.5 -20t-79 -55t-53 -81.5t-19.5 -99.5t19.5 -99.5t54 -81t80 -54.5
t98.5 -20q25 0 45 4v502q-12 2 -24 3.5t-24 1.5z" />
    <glyph glyph-name="Ydieresis" unicode="&#x178;" horiz-adv-x="669" 
d="M396 236v-236h-123v236q-5 7 -25 44.5l-49 90l-61 112l-61 112l-49 90t-25 44.5h139l15.5 -28.5l27.5 -52l35 -67l38 -73l36 -70l30 -58.5l11 -34q4 8 7 17.5t6 16.5l30 58.5l35.5 70l37 73l34 67l26.5 52t15 28.5h139zM372 837q0 26 19.5 44t42.5 18q21 0 40.5 -18
t19.5 -44q0 -28 -19.5 -45t-40.5 -17q-23 0 -42.5 17t-19.5 45zM179 837q0 26 19.5 44t42.5 18q21 0 40.5 -18t19.5 -44q0 -28 -19.5 -45t-40.5 -17q-23 0 -42.5 17t-19.5 45z" />
    <glyph glyph-name="Etilde" unicode="&#x1ebc;" horiz-adv-x="619" 
d="M84 0v729h484v-111h-362v-196h322v-114h-322v-194h376v-114h-498zM324 821q-16 14 -27 19.5t-25 5.5q-7 0 -15 -1.5t-15.5 -6.5t-13.5 -13.5t-7 -22.5l-54 2q1 21 10 38.5t22.5 30t30 19.5t32.5 7q25 0 44 -8t36 -24q16 -15 27 -20t25 -5q7 0 15 1.5t15.5 6.5t13 13.5
t7.5 22.5l54 -2q-1 -21 -10 -38.5t-22.5 -30t-30 -19.5t-32.5 -7q-24 0 -43.5 8.5t-36.5 23.5z" />
    <glyph glyph-name="uni0156" unicode="&#x156;" horiz-adv-x="636" 
d="M84 0v729h206q60 0 109.5 -16t84 -46t53.5 -74t19 -99q0 -30 -6 -60t-19 -58t-34 -51.5t-50 -40.5l43 -68.5l42.5 -67.5l44.5 -70l50 -78h-147l-85 132.5l-77 118.5h-10h-102v-251h-122zM206 366h98q38 0 63 13t40 31.5t21 40t6 39.5q0 17 -5.5 38.5t-20 40.5t-39.5 32
t-64 13h-99v-248zM392 -21l-88 -210h-92l39 104.5l39 105.5h102z" />
    <glyph glyph-name="Itilde" unicode="&#x128;" horiz-adv-x="291" 
d="M84 729h123v-729h-123v729zM138 800q-16 14 -27 19.5t-25 5.5q-7 0 -15 -1.5t-15.5 -6.5t-13.5 -13.5t-7 -22.5l-54 2q1 21 10 38.5t22.5 30t30 19.5t32.5 7q25 0 44 -8t36 -24q16 -15 27 -20t25 -5q7 0 15 1.5t15.5 6.5t13 13.5t7.5 22.5l54 -2q-1 -21 -10 -38.5
t-22.5 -30t-30 -19.5t-32.5 -7q-24 0 -43.5 8.5t-36.5 23.5z" />
    <glyph glyph-name="uni013B" unicode="&#x13b;" horiz-adv-x="575" 
d="M84 0v729h122v-613h354v-116h-476zM408 -21l-88 -210h-92l39 104.5l39 105.5h102z" />
    <glyph glyph-name="Emacron" unicode="&#x112;" horiz-adv-x="619" 
d="M84 0v729h484v-111h-362v-196h322v-114h-322v-194h376v-114h-498zM220 777v64h234v-64h-234z" />
    <glyph glyph-name="uni0122" unicode="&#x122;" horiz-adv-x="688" 
d="M635 354v-310q-42 -25 -101.5 -38.5t-121.5 -13.5q-86 0 -155.5 27t-118.5 74t-75 112t-26 142q0 87 31 158.5t83.5 123t122 80t146.5 28.5q26 0 54.5 -3.5t56.5 -10.5t54 -16.5t47 -22.5l-60 -100q-14 9 -33.5 15.5t-40.5 11.5t-41.5 7.5t-38.5 2.5q-51 0 -97.5 -20.5
t-82.5 -55.5t-57.5 -83.5t-21.5 -103.5q0 -50 19 -95t53 -79.5t81 -55t103 -20.5q20 0 50 3.5t57 12.5v124h-136v106h249zM441 -21l-88 -210h-92l39 104.5l39 105.5h102z" />
    <glyph glyph-name="Tbar" unicode="&#x166;" horiz-adv-x="561" 
d="M161 434v64h56v114h-176v117h479v-117h-180v-114h55v-64h-55v-434h-123v434h-56z" />
    <glyph glyph-name="uni0157" unicode="&#x157;" horiz-adv-x="324" 
d="M297 312q-28 0 -53.5 -7t-45 -21.5t-31.5 -36t-12 -50.5v-197h-96v425h84q2 -36 4.5 -58.5t4.5 -50.5q13 28 35 50t45.5 37.5t46.5 24t39 8.5zM223 -21l-88 -210h-92l39 104.5l39 105.5h102z" />
    <glyph glyph-name="emacron" unicode="&#x113;" horiz-adv-x="474" 
d="M424 49q-31 -28 -75 -44t-90 -16q-47 0 -88.5 17.5t-72 48t-48.5 71t-18 86.5t18 86.5t48.5 71t71 48t85.5 17.5q72 0 126.5 -43.5t77.5 -114.5l-69.5 -26.5l-82.5 -32.5l-86 -34.5l-79 -31.5q17 -31 47 -50t68 -19q26 0 52.5 9.5t43.5 25.5zM146 482v64h234v-64h-234z
M340 299q-12 22 -36 32.5t-47 10.5q-27 0 -51 -10.5t-41 -28t-27 -40t-10 -46.5v-4l53.5 21.5l57 23.5l54.5 22.5z" />
    <glyph glyph-name="uni0123" unicode="&#x123;" horiz-adv-x="547" 
d="M33 210q0 48 17 89.5t46.5 72t69 47.5t84.5 17q34 0 60 -9t43.5 -20t27 -21l11.5 -12q0 11 2 24t2 27h92v-403q0 -54 -17 -96.5t-47.5 -71t-73 -43.5t-93.5 -15q-39 0 -68.5 8t-53 21t-43 29l-37.5 32l62 65q28 -26 60 -44.5t78 -18.5q62 0 99 30t37 85v11.5t1 13.5
q0 9 2 16t2 12q-9 -10 -21.5 -22t-30 -22t-40.5 -16.5t-53 -6.5q-48 0 -88 17t-69 47t-45 70t-16 87zM129 214q0 -28 9.5 -52t27 -41.5t41.5 -27.5t53 -10t53.5 10t42 28t27 42t9.5 51t-9.5 50.5t-27 40.5t-42 27t-53.5 10t-53 -9.5t-41.5 -27t-27 -41t-9.5 -50.5zM218 507
l88 210h92l-39 -104.5l-39 -105.5h-102z" />
    <glyph glyph-name="tbar" unicode="&#x167;" horiz-adv-x="316" 
d="M43 482v64h55v65h95v-65h84v-64h-84v-57h111v-86h-111v-339h-95v339h-72v86h72v57h-55z" />
    <glyph glyph-name="Amacron" unicode="&#x100;" horiz-adv-x="653" 
d="M653 0l-19 44.5l-37.5 88l-50 117l-56.5 131.5l-56.5 131.5l-50 117l-38 88l-19.5 44.5l-19 -44.5l-37.5 -88l-50 -117l-56.5 -131.5l-56.5 -131.5l-50 -117l-37.5 -88l-19 -44.5h121l80 192h251l27 -65.5l24 -57.5l18.5 -44l10.5 -25h121zM316 469q0 1 4 13.5t6 22.5
q2 -10 6 -22.5t5 -13.5l72 -174h-166zM209 790v64h234v-64h-234z" />
    <glyph glyph-name="Iogonek" unicode="&#x12e;" horiz-adv-x="291" 
d="M84 729h123v-729h-123v729zM147 0h-62v-8q0 -15 -4 -23t-10.5 -13.5t-14 -9t-13.5 -8.5q-21 -16 -29.5 -37t-8.5 -50q0 -20 7 -40t20.5 -36t34.5 -26t50 -10q36 0 67 19.5t45 61.5l-55 29q-5 -15 -17.5 -25t-30.5 -10q-23 0 -34.5 15t-11.5 38q0 19 10.5 29.5t23 19.5
t23 18.5t10.5 26.5v39z" />
    <glyph glyph-name="itilde" unicode="&#x129;" horiz-adv-x="214" 
d="M155 0h-96v425h96v-425zM98 513q-16 14 -27 19.5t-25 5.5q-7 0 -15 -1.5t-15.5 -6.5t-13.5 -13.5t-7 -22.5l-54 2q1 21 10 38.5t22.5 30t30 19.5t32.5 7q25 0 44 -8t36 -24q16 -15 27 -20t25 -5q7 0 15 1.5t15.5 6.5t13 13.5t7.5 22.5l54 -2q-1 -21 -10 -38.5t-22.5 -30
t-30 -19.5t-32.5 -7q-24 0 -43.5 8.5t-36.5 23.5z" />
    <glyph glyph-name="uni013C" unicode="&#x13c;" horiz-adv-x="213" 
d="M154 0h-95v781h95v-781zM158 -21l-88 -210h-92l39 104.5l39 105.5h102z" />
    <glyph glyph-name="Edotaccent" unicode="&#x116;" horiz-adv-x="619" 
d="M84 0v729h484v-111h-362v-196h322v-114h-322v-194h376v-114h-498zM265 827q0 26 19 43t41 17t40.5 -17t18.5 -43q0 -27 -18.5 -43.5t-40.5 -16.5t-41 16.5t-19 43.5z" />
    <glyph glyph-name="Imacron" unicode="&#x12a;" horiz-adv-x="291" 
d="M84 729h123v-729h-123v729zM33 790v64h234v-64h-234z" />
    <glyph glyph-name="uni0145" unicode="&#x145;" horiz-adv-x="812" 
d="M728 729v-763q-7 9 -31 33l-59 57.5l-77.5 74l-86.5 82l-86 81.5l-76.5 73.5l-58 57t-30.5 32.5q-1 2 -8 10.5t-12 15.5l3 -32v-451h-122v762q7 -9 31 -32.5l59 -56.5l77.5 -72l86.5 -79.5l86 -80l77 -72l58.5 -55.5t30.5 -32l19 -28l-3 34v441h122zM472 -21l-88 -210
h-92l39 104.5l39 105.5h102z" />
    <glyph glyph-name="uni0136" unicode="&#x136;" horiz-adv-x="655" 
d="M511 0l-65 83l-60 79.5l-60.5 80l-64.5 84.5q-11 -12 -21 -21.5l-21 -19.5v-286h-135v729h135v-262q0 -8 -1 -17l-2 -18q5 7 10.5 12.5t10.5 13.5q68 65 130.5 135t130.5 136h155l-149 -160l-148 -159l79.5 -105l74.5 -100.5l74.5 -100l78.5 -104.5h-152zM415 -21
l-88 -210h-92l39 104.5l39 105.5h102z" />
    <glyph glyph-name="uni0146" unicode="&#x146;" 
d="M59 425h84q2 -36 4.5 -58.5t4.5 -50.5q23 54 65 87t105 33q65 0 103.5 -35.5t40.5 -92.5v-308h-95v263q-2 31 -22 53.5t-62 24.5q-29 0 -53.5 -10.5t-42 -28.5t-27 -43t-9.5 -54v-205h-96v425zM321 -21l-88 -210h-92l39 104.5l39 105.5h102z" />
    <glyph glyph-name="uni0137" unicode="&#x137;" horiz-adv-x="458" 
d="M365 435l57 -56l-72.5 -68.5l-72.5 -68.5l88 -121l88 -121h-110l-67 89.5l-66 89.5l-55 -50v-129h-96v781h96v-541l105 97.5zM321 -21l-88 -210h-92l39 104.5l39 105.5h102z" />
    <glyph glyph-name="Omacron" unicode="&#x14c;" horiz-adv-x="817" 
d="M36 363q0 76 29.5 144t80 119t118 81t144.5 30q76 0 144 -30t119 -81t80.5 -119t29.5 -144q0 -77 -29.5 -144.5t-80.5 -118t-119 -79.5t-144 -29q-77 0 -144.5 29t-118 79.5t-80 118t-29.5 144.5zM159 363q0 -53 19.5 -99.5t54 -81t80 -54.5t98.5 -20q51 0 96.5 20
t79 54.5t53 81t19.5 99.5t-20 99.5t-54 81.5t-79.5 55t-97.5 20t-97.5 -20t-79 -55t-53 -81.5t-19.5 -99.5zM294 790v64h234v-64h-234z" />
    <glyph glyph-name="Umacron" unicode="&#x16a;" horiz-adv-x="720" 
d="M359 -8q-59 0 -110.5 19.5t-89.5 54.5t-60 84.5t-22 109.5v469h122v-466q0 -32 12.5 -60t34 -49t50.5 -33.5t63 -12.5t63.5 12.5t51.5 33.5t34.5 49t12.5 60v466h122v-469q0 -60 -22 -109.5t-60.5 -84.5t-90.5 -54.5t-111 -19.5zM244 790v64h234v-64h-234z" />
    <glyph glyph-name="omacron" unicode="&#x14d;" horiz-adv-x="514" 
d="M32 213q0 46 17.5 86.5t48.5 70.5t72.5 47.5t88.5 17.5q48 0 89 -17.5t70.5 -47.5t46.5 -70.5t17 -86.5t-16.5 -87t-46.5 -71.5t-71 -48t-90 -17.5q-47 0 -88 16t-71.5 45.5t-48.5 71t-18 91.5zM127 212q0 -27 10 -50.5t27.5 -41t41 -27.5t50.5 -10t50.5 10t41 27.5
t28 41t10.5 50.5t-10.5 50.5t-28 41t-41 28t-50.5 10.5t-50.5 -10.5t-41 -28t-27.5 -41t-10 -50.5zM149 482v64h234v-64h-234z" />
    <glyph glyph-name="umacron" unicode="&#x16b;" 
d="M463 -10h-80l-12 118q-23 -51 -63.5 -84.5t-106.5 -33.5t-104.5 34.5t-40.5 91.5v309h96v-264q2 -31 21.5 -52.5t62.5 -23.5q29 0 53 10t41.5 28t27.5 43t10 54v205h95v-435zM143 482v64h234v-64h-234z" />
    <glyph glyph-name="amacron" unicode="&#x101;" horiz-adv-x="547" 
d="M32 208q0 46 18 87.5t48.5 72.5t71 49.5t85.5 18.5q30 0 54 -7.5t41.5 -17.5t27.5 -20.5t13 -16.5l4 51h93v-425h-97v28q0 5 0.5 9.5t0.5 6.5q-4 -5 -14 -14.5t-27 -18.5t-40.5 -15.5t-54.5 -6.5q-49 0 -90 18t-71 48t-46.5 69.5t-16.5 83.5zM129 214q0 -28 9.5 -52
t27 -41.5t41.5 -27.5t53 -10t53 10t41.5 28t27 42t9.5 51t-9.5 50.5t-27 40.5t-41.5 27t-53 10t-53 -9.5t-41.5 -27t-27 -41t-9.5 -50.5zM159 482v64h234v-64h-234z" />
    <glyph glyph-name="Uogonek" unicode="&#x172;" horiz-adv-x="720" 
d="M402 0h-62v-7q-56 3 -104 23t-83.5 55t-55.5 83t-20 106v469h122v-466q0 -32 12.5 -60t34 -49t50.5 -33.5t63 -12.5t63.5 12.5t51.5 33.5t34.5 49t12.5 60v466h122v-469q0 -54 -18.5 -100t-50.5 -80.5t-76.5 -56.5t-95.5 -28v5zM359 -8h-9.5t-9.5 1v-1q0 -15 -4 -23
t-10.5 -13.5t-14 -9t-13.5 -8.5q-21 -16 -29.5 -37t-8.5 -50q0 -20 7 -40t20.5 -36t34.5 -26t50 -10q36 0 67 19.5t45 61.5l-55 29q-5 -15 -17.5 -25t-30.5 -10q-23 0 -34.5 15t-11.5 38q0 19 10.5 29.5t23 19.5t23 18.5t10.5 26.5v34q-21 -3 -43 -3z" />
    <glyph glyph-name="imacron" unicode="&#x12b;" horiz-adv-x="214" 
d="M155 0h-96v425h96v-425zM-9 482v64h234v-64h-234z" />
    <glyph glyph-name="uogonek" unicode="&#x173;" 
d="M443 0h-61l-11 108q-23 -51 -63.5 -84.5t-106.5 -33.5t-104.5 34.5t-40.5 91.5v309h96v-264q2 -31 21.5 -52.5t62.5 -23.5q29 0 53 10t41.5 28t27.5 43t10 54v205h95v-435h-20v10zM382 0h-1v-8q0 -15 -4 -23t-10.5 -13.5t-14 -9t-13.5 -8.5q-21 -16 -29.5 -37t-8.5 -50
q0 -20 7 -40t20.5 -36t34.5 -26t50 -10q36 0 67 19.5t45 61.5l-55 29q-5 -15 -17.5 -25t-30.5 -10q-23 0 -34.5 15t-11.5 38q0 19 10.5 29.5t23 19.5t23 18.5t10.5 26.5v29h-60z" />
    <glyph glyph-name="Utilde" unicode="&#x168;" horiz-adv-x="720" 
d="M359 -8q-59 0 -110.5 19.5t-89.5 54.5t-60 84.5t-22 109.5v469h122v-466q0 -32 12.5 -60t34 -49t50.5 -33.5t63 -12.5t63.5 12.5t51.5 33.5t34.5 49t12.5 60v466h122v-469q0 -60 -22 -109.5t-60.5 -84.5t-90.5 -54.5t-111 -19.5zM353 800q-16 14 -27 19.5t-25 5.5
q-7 0 -15 -1.5t-15.5 -6.5t-13.5 -13.5t-7 -22.5l-54 2q1 21 10 38.5t22.5 30t30 19.5t32.5 7q25 0 44 -8t36 -24q16 -15 27 -20t25 -5q7 0 15 1.5t15.5 6.5t13 13.5t7.5 22.5l54 -2q-1 -21 -10 -38.5t-22.5 -30t-30 -19.5t-32.5 -7q-24 0 -43.5 8.5t-36.5 23.5z" />
    <glyph glyph-name="utilde" unicode="&#x169;" 
d="M463 -10h-80l-12 118q-23 -51 -63.5 -84.5t-106.5 -33.5t-104.5 34.5t-40.5 91.5v309h96v-264q2 -31 21.5 -52.5t62.5 -23.5q29 0 53 10t41.5 28t27.5 43t10 54v205h95v-435zM260 513q-16 14 -27 19.5t-25 5.5q-7 0 -15 -1.5t-15.5 -6.5t-13.5 -13.5t-7 -22.5l-54 2
q1 21 10 38.5t22.5 30t30 19.5t32.5 7q25 0 44 -8t36 -24q16 -15 27 -20t25 -5q7 0 15 1.5t15.5 6.5t13 13.5t7.5 22.5l54 -2q-1 -21 -10 -38.5t-22.5 -30t-30 -19.5t-32.5 -7q-24 0 -43.5 8.5t-36.5 23.5z" />
    <glyph glyph-name="edotaccent" unicode="&#x117;" horiz-adv-x="474" 
d="M424 49q-31 -28 -75 -44t-90 -16q-47 0 -88.5 17.5t-72 48t-48.5 71t-18 86.5t18 86.5t48.5 71t71 48t85.5 17.5q72 0 126.5 -43.5t77.5 -114.5l-69.5 -26.5l-82.5 -32.5l-86 -34.5l-79 -31.5q17 -31 47 -50t68 -19q26 0 52.5 9.5t43.5 25.5zM340 299q-12 22 -36 32.5
t-47 10.5q-27 0 -51 -10.5t-41 -28t-27 -40t-10 -46.5v-4l53.5 21.5l57 23.5l54.5 22.5zM194 590q0 26 19 43t41 17t40.5 -17t18.5 -43q0 -27 -18.5 -43.5t-40.5 -16.5t-41 16.5t-19 43.5z" />
    <glyph glyph-name="iogonek" unicode="&#x12f;" horiz-adv-x="214" 
d="M155 0h-96v425h96v-425zM121 0h-62v-8q0 -15 -4 -23t-10.5 -13.5t-14 -9t-13.5 -8.5q-21 -16 -29.5 -37t-8.5 -50q0 -20 7 -40t20.5 -36t34.5 -26t50 -10q36 0 67 19.5t45 61.5l-55 29q-5 -15 -17.5 -25t-30.5 -10q-23 0 -34.5 15t-11.5 38q0 19 10.5 29.5t23 19.5
t23 18.5t10.5 26.5v39zM48 590q0 26 19 43t41 17t40.5 -17t18.5 -43q0 -27 -18.5 -43.5t-40.5 -16.5t-41 16.5t-19 43.5z" />
    <glyph glyph-name="ellipsis" unicode="&#x2026;" horiz-adv-x="558" 
d="M52 62q0 26 19.5 44t42.5 18q21 0 40.5 -18t19.5 -44q0 -29 -19.5 -45.5t-40.5 -16.5q-23 0 -42.5 16.5t-19.5 45.5zM218 62q0 26 19.5 44t42.5 18q22 0 41 -18t19 -44q0 -29 -19 -45.5t-41 -16.5q-23 0 -42.5 16.5t-19.5 45.5zM385 62q0 26 19 44t42 18q22 0 41 -18
t19 -44q0 -29 -19 -45.5t-41 -16.5q-23 0 -42 16.5t-19 45.5z" />
    <glyph glyph-name="perthousand" unicode="&#x2030;" horiz-adv-x="1061" 
d="M159 0l303 508h113l-303 -508h-113zM562 -22q-28 0 -52.5 10.5t-43 28.5t-29 42.5t-10.5 52.5t10.5 52t29 42t43 28.5t52.5 10.5q27 0 51.5 -10.5t43 -28.5t29.5 -42t11 -52t-11 -52.5t-29.5 -42.5t-43 -28.5t-51.5 -10.5zM892 -22q-28 0 -52.5 10.5t-43 28.5t-29 42.5
t-10.5 52.5t10.5 52t29 42t43 28.5t52.5 10.5q27 0 51.5 -10.5t43 -28.5t29.5 -42t11 -52t-11 -52.5t-29.5 -42.5t-43 -28.5t-51.5 -10.5zM173 262q-27 0 -51.5 10.5t-43 28.5t-29.5 42t-11 52t11 52t29.5 42t43 28.5t51.5 10.5t51.5 -10.5t43 -28.5t29.5 -42t11 -52
t-11 -52t-29.5 -42t-43 -28.5t-51.5 -10.5zM142 395q0 -14 8 -24t23 -10t23 10t8 24q0 15 -8 24t-23 9t-23 -9t-8 -24zM861 113q0 -15 8 -24.5t23 -9.5q16 0 23.5 9.5t7.5 24.5q0 14 -7.5 23t-23.5 9q-15 0 -23 -9t-8 -23zM531 113q0 -15 8 -24.5t23 -9.5q16 0 23.5 9.5
t7.5 24.5q0 14 -7.5 23t-23.5 9q-15 0 -23 -9t-8 -23z" />
    <glyph glyph-name="circumflex" unicode="&#x2c6;" horiz-adv-x="450" 
d="M235 670l61.5 -91l61.5 -92h-72l-51 67l-50 -67h-71z" />
    <glyph glyph-name="tilde" unicode="&#x2dc;" horiz-adv-x="599" 
d="M316 513q-16 14 -27 19.5t-25 5.5q-7 0 -15 -1.5t-15.5 -6.5t-13.5 -13.5t-7 -22.5l-54 2q1 21 10 38.5t22.5 30t30 19.5t32.5 7q25 0 44 -8t36 -24q16 -15 27 -20t25 -5q7 0 15 1.5t15.5 6.5t13 13.5t7.5 22.5l54 -2q-1 -21 -10 -38.5t-22.5 -30t-30 -19.5t-32.5 -7
q-24 0 -43.5 8.5t-36.5 23.5z" />
    <glyph glyph-name="fi" unicode="&#xfb01;" horiz-adv-x="585" 
d="M26 331v94h73v91q0 134 62 197.5t180 67.5v-91q-78 -5 -112 -50t-34 -128v-87h331v-425h-95v331h-236v-331h-96v331h-73z" />
    <glyph glyph-name="fl" unicode="&#xfb02;" horiz-adv-x="570" 
d="M26 332v94h73v90q0 134 62 197.5t180 67.5h170v-781h-95v690h-75q-78 -5 -112 -50t-34 -128v-86h132v-94h-132v-332h-96v332h-73z" />
    <glyph glyph-name="ring" unicode="&#x2da;" horiz-adv-x="533" 
d="M252 553q0 -14 9.5 -23t23.5 -9t23.5 9t9.5 23q0 15 -9.5 24.5t-23.5 9.5t-23.5 -9.5t-9.5 -24.5zM197 555q0 18 7 33.5t19 27.5t28 19t34 7t34 -7t28 -19t19 -27.5t7 -33.5t-7 -34t-19 -28.5t-28 -19.5t-34 -7t-34 7t-28 19.5t-19 28.5t-7 34z" />
    <glyph glyph-name="fraction" unicode="&#x2044;" horiz-adv-x="368" 
d="M-9 0l141 383.5l142 383.5h103l-141 -383.5l-142 -383.5h-103z" />
    <glyph glyph-name="florin" unicode="&#x192;" horiz-adv-x="381" 
d="M212 332v-232q0 -135 -62.5 -198.5t-180.5 -67.5v92q79 5 113 50t34 127v229h-73v94h73v90q0 134 62 197.5t180 67.5v-91q-78 -5 -112 -50t-34 -128v-86h132v-94h-132z" />
    <glyph glyph-name="dagger" unicode="&#x2020;" horiz-adv-x="349" 
d="M123 -9v383h-72v100h72v147h104v-147h71v-100h-71v-383h-104z" />
    <glyph glyph-name="daggerdbl" unicode="&#x2021;" horiz-adv-x="387" 
d="M141 -9v211h-98v100h98v72h-72v100h72v147h104v-147h71v-100h-71v-72h99v-100h-99v-211h-104z" />
    <glyph glyph-name="trademark" unicode="&#x2122;" horiz-adv-x="587" 
d="M259 768l131 -181q1 2 10.5 15l23 32l29.5 41l30.5 41.5l24.5 33.5l13 18v-270h-47v133q0 3 1 6t1 4q-3 -5 -16 -23l-27.5 -39l-27 -39.5t-15.5 -22.5l-89 124q0 -1 1 -4t1 -6v-133h-44v270zM213 757v-41h-64v-218h-42v218h-63v41h169z" />
    <glyph glyph-name="minus" unicode="&#x2212;" horiz-adv-x="481" 
d="M423 158h-365v100h365v-100z" />
    <glyph glyph-name="integral" unicode="&#x222b;" horiz-adv-x="345" 
d="M120 638q0 48 10 72.5t27.5 35t41 11.5t50.5 1h70v-100h-41q-15 0 -25.5 -3.5t-16.5 -14t-8.5 -31t-2.5 -53.5v-597q0 -44 -11 -67t-29 -33t-41 -10.5t-48 -0.5h-70v100h41q16 0 26 3.5t16 14.5t8.5 31.5t2.5 53.5v587z" />
    <glyph glyph-name="product" unicode="&#x220f;" horiz-adv-x="506" 
d="M198 -82h-103v844h316v-844h-102v744h-111v-744z" />
    <glyph glyph-name="pi" unicode="&#x3c0;" horiz-adv-x="463" 
d="M195 259v-259h-103v259h-57v99h391v-99h-58v-259h-102v259h-71z" />
    <glyph glyph-name="Euro" unicode="&#x20ac;" horiz-adv-x="541" 
d="M37 407h71q9 66 34 115t61 81.5t80.5 48.5t92.5 16q36 0 67.5 -8.5t56.5 -22.5l-46 -91q-17 11 -35.5 17t-44.5 6q-40 0 -69 -12.5t-48.5 -34.5t-31 -51.5t-16.5 -63.5h205v-53h-208v-1q0 -29 3 -53h205v-53h-197q10 -43 28 -72.5t40 -48t45 -26.5t44 -8q39 0 74 24
l49 -95q-56 -30 -123 -30q-49 0 -92.5 16.5t-78.5 49t-59.5 80t-34.5 110.5h-71v53h66q-1 8 -1 16v17v21h-66v53z" />
    <glyph glyph-name="lessequal" unicode="&#x2264;" horiz-adv-x="544" 
d="M479 358v-141l-443 256l221.5 128l221.5 127v-140l-199 -115zM440 52h-365v100h365v-100z" />
    <glyph glyph-name="greaterequal" unicode="&#x2265;" horiz-adv-x="552" 
d="M76 358l199 115l-199 115v140l221.5 -127l221.5 -128l-443 -256v141zM75 152h365v-100h-365v100z" />
    <glyph glyph-name="notequal" unicode="&#x2260;" horiz-adv-x="669" 
d="M591 401v-100h-184l-83 -97h267v-100h-353l-55.5 -65.5l-49.5 -56.5l-59 52l60 70h-57v100h144l83 97h-227v100h313l126 146l57 -53l-81 -93h99z" />
    <glyph glyph-name="approxequal" unicode="&#x2248;" horiz-adv-x="451" 
d="M217 192q-16 14 -27 19.5t-25 5.5q-7 0 -15 -1.5t-15.5 -6.5t-13.5 -13.5t-7 -22.5l-54 2q1 21 10 38.5t22.5 30t30 19.5t32.5 7q25 0 44 -8t36 -24q16 -15 27 -20t25 -5q7 0 15 1.5t15.5 6.5t13 13.5t7.5 22.5l54 -2q-1 -21 -10 -38.5t-22.5 -30t-30 -19.5t-32.5 -7
q-24 0 -43.5 8.5t-36.5 23.5zM218 341q-16 14 -27 19.5t-25 5.5q-7 0 -15 -1.5t-15.5 -6.5t-13.5 -13.5t-7 -22.5l-54 2q1 21 10 38.5t22.5 30t30 19.5t32.5 7q25 0 44 -8t36 -24q16 -15 27 -20t25 -5q7 0 15 1.5t15.5 6.5t13 13.5t7.5 22.5l54 -2q-1 -21 -10 -38.5
t-22.5 -30t-30 -19.5t-32.5 -7q-24 0 -43.5 8.5t-36.5 23.5z" />
    <glyph glyph-name="summation" unicode="&#x2211;" horiz-adv-x="504" 
d="M187 11h252l30 -100h-418l116 426l-116 425h418l-30 -100h-252l91 -325z" />
    <glyph glyph-name="Omega" unicode="&#x2126;" horiz-adv-x="669" 
d="M54 100h114q-21 14 -40.5 34t-33.5 47.5t-22.5 64.5t-8.5 85q0 75 22 129t58.5 88t85.5 50t103 16q70 0 123.5 -23t88 -63t50.5 -95.5t13 -120.5q-5 -84 -34 -134t-66 -78h108v-100h-220v100q26 12 46 32.5t34 48t21 60.5t7 68q0 34 -7.5 70.5t-26 66.5t-51 49t-81.5 19
q-52 0 -85 -20.5t-52 -51t-26.5 -65.5t-7.5 -63q0 -39 9 -72.5t25 -61t37.5 -48t47.5 -32.5v-100h-231v100z" />
    <glyph glyph-name="radical" unicode="&#x221a;" horiz-adv-x="526" 
d="M18 347h124l93 -208l211 479h71l-282 -632l-138 301h-80z" />
    <glyph glyph-name="Delta" unicode="&#x2206;" horiz-adv-x="419" 
d="M209 740l173 -487h-345zM128 313h163l-82 243z" />
    <glyph glyph-name="lozenge" unicode="&#x25ca;" horiz-adv-x="417" 
d="M36 363l172 377l173 -377l-173 -377zM107 363l101 -224l102 224l-102 225z" />
    <glyph glyph-name="infinity" unicode="&#x221e;" horiz-adv-x="514" 
d="M356 213q-28 0 -54 9t-44 26q-19 -17 -45 -26t-54 -9t-48 9t-32.5 23t-18.5 31t-6 33q0 15 6 32t19 31t33 23t47 9q28 0 54 -9.5t45 -26.5q19 17 45 26.5t54 9.5q27 0 46 -9t32 -23t19 -30.5t6 -32.5t-6 -33t-18.5 -31t-32.5 -23t-47 -9zM228 307q0 17 -21 26.5t-47 9.5
q-45 0 -45 -35q0 -14 9.5 -24.5t35.5 -10.5q25 0 46.5 9t21.5 25zM288 307q0 -8 6.5 -14t16 -10.5t21.5 -7t24 -2.5q26 0 35.5 10.5t9.5 24.5q0 35 -45 35q-25 0 -46 -9.5t-22 -25.5v-1z" />
    </font>
</defs>
</svg>
